<svg width="85" height="417" viewBox="0 0 85 417" fill="none" xmlns="http://www.w3.org/2000/svg">
    <path d="M56.7717 154.5C63.9717 94.1 22.7717 37 1.27166 16V397.5C74.0717 376.3 83.9624 324.784 64.2717 295.5C33.0717 249.1 49.5717 214.9 56.7717 154.5Z" fill="#8B00FF"/>
    <path d="M1.27166 1C30.4383 29.5 85.5717 100.1 72.7717 154.5C59.9717 208.9 45.5717 242.1 72.7717 286.5C96.0509 324.5 88.0717 392.8 1.27166 416M1.27166 16C22.7717 37 63.9717 94.1 56.7717 154.5C49.5717 214.9 33.0717 249.1 64.2717 295.5C83.9624 324.784 74.0717 376.3 1.27166 397.5V16Z" stroke="#36D6AD" stroke-width="2"/>
</svg>

