<svg xmlns="http://www.w3.org/2000/svg" xmlns:xlink="http://www.w3.org/1999/xlink" width="148" zoomAndPan="magnify" viewBox="0 0 110.88 110.999996" height="148" preserveAspectRatio="xMidYMid meet" version="1.0"><defs><g/><clipPath id="63bb5bc405"><path d="M 10.503906 15.347656 L 27.785156 15.347656 L 27.785156 28.371094 L 10.503906 28.371094 Z M 10.503906 15.347656 " clip-rule="nonzero"/></clipPath><clipPath id="ade7e8b9b4"><path d="M 10 5.148438 L 17 5.148438 L 17 15 L 10 15 Z M 10 5.148438 " clip-rule="nonzero"/></clipPath><clipPath id="225a84fa5f"><path d="M 19 5.148438 L 26 5.148438 L 26 14 L 19 14 Z M 19 5.148438 " clip-rule="nonzero"/></clipPath></defs><g clip-path="url(#63bb5bc405)"><path fill="#5e17eb" d="M 14.3125 19.882812 C 12.933594 21.273438 9.957031 22 10.632812 25.609375 C 11.324219 29.289062 16.421875 28.339844 19.082031 28.257812 C 20.492188 28.214844 26.308594 29.300781 27.453125 26.382812 C 28.457031 23.828125 26.800781 22.117188 24.292969 20.105469 C 22.054688 18.308594 21.417969 15.324219 18.824219 15.347656 C 16.394531 15.375 15.15625 19.03125 14.3125 19.882812 " fill-opacity="1" fill-rule="nonzero"/></g><path fill="#5e17eb" d="M 9.597656 14.402344 C 11.023438 16.007812 11.292969 18.042969 10.203125 18.945312 C 9.113281 19.847656 7.074219 19.28125 5.652344 17.675781 C 4.226562 16.074219 3.957031 14.039062 5.046875 13.136719 C 6.136719 12.230469 8.175781 12.800781 9.597656 14.402344 " fill-opacity="1" fill-rule="nonzero"/><g clip-path="url(#ade7e8b9b4)"><path fill="#5e17eb" d="M 16.539062 9.347656 C 17.222656 11.65625 16.578125 13.859375 15.105469 14.265625 C 13.632812 14.675781 11.882812 13.132812 11.199219 10.824219 C 10.515625 8.515625 11.160156 6.3125 12.632812 5.90625 C 14.109375 5.496094 15.855469 7.039062 16.539062 9.347656 " fill-opacity="1" fill-rule="nonzero"/></g><g clip-path="url(#225a84fa5f)"><path fill="#5e17eb" d="M 25.457031 10.34375 C 24.773438 12.605469 23.054688 14.117188 21.625 13.726562 C 20.191406 13.332031 19.585938 11.179688 20.273438 8.921875 C 20.957031 6.660156 22.671875 5.144531 24.105469 5.539062 C 25.535156 5.929688 26.140625 8.082031 25.457031 10.34375 " fill-opacity="1" fill-rule="nonzero"/></g><path fill="#5e17eb" d="M 31.640625 17.597656 C 30.144531 19.328125 27.992188 19.96875 26.828125 19.03125 C 25.671875 18.09375 25.941406 15.929688 27.4375 14.199219 C 28.933594 12.472656 31.085938 11.832031 32.246094 12.769531 C 33.40625 13.707031 33.136719 15.867188 31.640625 17.597656 " fill-opacity="1" fill-rule="nonzero"/><g fill="#5e17eb" fill-opacity="1"><g transform="translate(37.889687, 26.280081)"><g><path d="M 3.789062 -9.050781 C 3.660156 -9.050781 0.183594 -9.234375 0.183594 -6.226562 C 0.183594 -4.34375 1.546875 -3.257812 3.378906 -3.257812 L 4.027344 -3.257812 C 4.386719 -3.257812 4.675781 -3.042969 4.675781 -2.683594 C 4.675781 -2.339844 4.386719 -2.089844 4.082031 -2.089844 C 3.910156 -2.089844 3.617188 -2.144531 3.507812 -2.578125 C 3.476562 -2.664062 3.433594 -2.71875 3.269531 -2.683594 L 0.367188 -2.339844 C 0.207031 -2.304688 0.171875 -2.199219 0.261719 -2.035156 C 0.703125 -0.800781 1.496094 0.390625 4.203125 0.390625 C 5.566406 0.390625 7.289062 -0.355469 7.289062 -2.738281 C 7.289062 -5.675781 4.699219 -5.457031 3.789062 -5.457031 C 3.507812 -5.457031 2.96875 -5.523438 2.96875 -6.042969 C 2.96875 -6.464844 3.324219 -6.648438 3.5625 -6.648438 C 3.734375 -6.648438 4.027344 -6.519531 4.136719 -6.226562 C 4.179688 -6.097656 4.277344 -6.042969 4.386719 -6.042969 L 7.039062 -6.410156 C 7.15625 -6.421875 7.242188 -6.539062 7.210938 -6.703125 C 7.09375 -7.289062 6.574219 -9.050781 3.789062 -9.050781 Z M 3.789062 -9.050781 "/></g></g></g><g fill="#5e17eb" fill-opacity="1"><g transform="translate(45.360441, 26.280081)"><g><path d="M 3.714844 -8.792969 C 1.9375 -8.792969 0.183594 -7.363281 0.183594 -5.578125 L 0.183594 -3.109375 C 0.183594 -1.257812 1.9375 0.183594 3.714844 0.183594 C 5.53125 0.183594 7.242188 -1.257812 7.242188 -3.109375 L 7.242188 -5.578125 C 7.242188 -7.363281 5.53125 -8.792969 3.714844 -8.792969 Z M 4.441406 -3.214844 C 4.441406 -2.847656 4.105469 -2.523438 3.714844 -2.523438 C 3.3125 -2.523438 3 -2.847656 3 -3.214844 L 3 -5.382812 C 3 -5.769531 3.3125 -6.097656 3.714844 -6.097656 C 4.105469 -6.097656 4.441406 -5.769531 4.441406 -5.382812 Z M 4.441406 -3.214844 "/></g></g></g><g fill="#5e17eb" fill-opacity="1"><g transform="translate(52.787887, 26.280081)"><g><path d="M 5.371094 -2.921875 L 3.257812 -2.921875 L 3.257812 -7.785156 C 3.257812 -8.25 2.847656 -8.664062 2.402344 -8.664062 L 1.148438 -8.664062 C 0.683594 -8.664062 0.355469 -8.25 0.355469 -7.785156 L 0.355469 -0.714844 C 0.355469 -0.324219 0.605469 0 1.070312 0 L 5.371094 0 C 5.769531 0 6.097656 -0.324219 6.097656 -0.714844 L 6.097656 -2.164062 C 6.097656 -2.566406 5.769531 -2.921875 5.371094 -2.921875 Z M 5.371094 -2.921875 "/></g></g></g><g fill="#5e17eb" fill-opacity="1"><g transform="translate(59.240886, 26.280081)"><g><path d="M 1.125 0.0117188 L 2.46875 0.0117188 C 2.921875 0.0117188 3.25 -0.355469 3.25 -0.769531 L 3.25 -7.882812 C 3.25 -8.335938 2.921875 -8.664062 2.46875 -8.664062 L 1.125 -8.664062 C 0.703125 -8.664062 0.355469 -8.335938 0.355469 -7.882812 L 0.355469 -0.769531 C 0.355469 -0.355469 0.703125 0.0117188 1.125 0.0117188 Z M 1.125 0.0117188 "/></g></g></g><g fill="#5e17eb" fill-opacity="1"><g transform="translate(62.846337, 26.280081)"><g><path d="M 4.050781 -8.652344 L 1.136719 -8.652344 C 0.683594 -8.652344 0.355469 -8.273438 0.355469 -7.871094 L 0.355469 -0.824219 C 0.355469 -0.433594 0.683594 -0.03125 1.136719 -0.03125 L 4.050781 -0.03125 C 5.75 -0.03125 7.050781 -1.40625 7.050781 -3.042969 L 7.050781 -5.652344 C 7.050781 -7.289062 5.75 -8.652344 4.050781 -8.652344 Z M 4.40625 -4.082031 C 4.40625 -3.628906 4.070312 -3.3125 3.628906 -3.3125 L 3.109375 -3.3125 C 3.03125 -3.3125 2.957031 -3.367188 2.957031 -3.496094 L 2.957031 -5.1875 C 2.957031 -5.328125 3.03125 -5.390625 3.109375 -5.390625 L 3.628906 -5.390625 C 4.070312 -5.390625 4.40625 -5.066406 4.40625 -4.601562 Z M 4.40625 -4.082031 "/></g></g></g><g fill="#5e17eb" fill-opacity="1"><g transform="translate(70.165511, 26.280081)"><g><path d="M 4.039062 -11.652344 C 4.070312 -11.707031 4.136719 -11.75 4.191406 -11.75 L 5.859375 -11.75 C 6.019531 -11.75 6.097656 -11.554688 5.988281 -11.433594 L 4.210938 -9.550781 C 4.179688 -9.519531 4.125 -9.496094 4.070312 -9.496094 L 3.042969 -9.496094 C 2.902344 -9.496094 2.816406 -9.648438 2.890625 -9.765625 Z M 8.261719 -0.910156 L 6.421875 -7.914062 C 6.386719 -8.046875 6.355469 -8.238281 6.203125 -8.414062 C 6.042969 -8.574219 5.835938 -8.617188 5.683594 -8.617188 L 2.847656 -8.617188 C 2.683594 -8.617188 2.535156 -8.566406 2.425781 -8.476562 C 2.316406 -8.402344 2.199219 -8.273438 2.15625 -8.078125 L 0.207031 -0.921875 C 0.117188 -0.574219 0.28125 -0.207031 0.605469 -0.0664062 C 0.691406 -0.0234375 0.78125 -0.0117188 0.886719 -0.0117188 L 2.359375 -0.0117188 C 2.761719 -0.0117188 2.921875 -0.261719 3.085938 -0.671875 L 3.398438 -1.515625 L 5.058594 -1.515625 L 5.382812 -0.671875 C 5.542969 -0.261719 5.707031 0 6.105469 0 L 7.578125 0 C 7.699219 0 7.816406 -0.03125 7.90625 -0.0859375 C 8.195312 -0.238281 8.335938 -0.585938 8.261719 -0.910156 Z M 4.742188 -4.015625 L 3.734375 -4.015625 C 3.628906 -4.015625 3.539062 -4.113281 3.59375 -4.222656 L 3.875 -4.960938 L 4.09375 -5.523438 C 4.136719 -5.664062 4.332031 -5.664062 4.375 -5.523438 L 4.601562 -4.960938 L 4.882812 -4.222656 C 4.914062 -4.113281 4.839844 -4.015625 4.742188 -4.015625 Z M 4.742188 -4.015625 "/></g></g></g><g fill="#5e17eb" fill-opacity="1"><g transform="translate(78.632365, 26.280081)"><g><path d="M 7.09375 -0.921875 L 6.421875 -3.550781 C 6.398438 -3.636719 6.378906 -3.703125 6.34375 -3.757812 C 6.820312 -4.320312 7.125 -5.011719 7.125 -5.957031 C 7.125 -7.613281 6.171875 -8.652344 4.992188 -8.652344 L 1.082031 -8.640625 C 0.660156 -8.640625 0.324219 -8.292969 0.324219 -7.675781 L 0.324219 -0.78125 C 0.324219 -0.378906 0.660156 -0.03125 1.082031 -0.03125 L 2.46875 -0.03125 C 2.683594 -0.03125 2.902344 -0.117188 3.042969 -0.292969 C 3.238281 -0.507812 3.226562 -0.628906 3.226562 -0.800781 L 3.226562 -2.609375 C 3.226562 -2.632812 3.238281 -2.675781 3.28125 -2.675781 C 3.324219 -2.675781 3.347656 -2.640625 3.347656 -2.621094 L 3.433594 -2.175781 L 3.714844 -0.855469 C 3.824219 -0.367188 4.296875 -0.03125 4.667969 -0.03125 L 6.421875 -0.03125 C 6.84375 -0.03125 7.199219 -0.410156 7.09375 -0.921875 Z M 4.210938 -5.675781 L 4.210938 -5.523438 C 4.210938 -5.175781 3.917969 -4.882812 3.574219 -4.882812 L 3.367188 -4.882812 C 3.28125 -4.882812 3.226562 -4.949219 3.226562 -5.023438 L 3.226562 -6.183594 C 3.226562 -6.257812 3.28125 -6.324219 3.367188 -6.324219 L 3.574219 -6.324219 C 3.917969 -6.324219 4.210938 -6.03125 4.210938 -5.675781 Z M 4.210938 -5.675781 "/></g></g></g><g fill="#5e17eb" fill-opacity="1"><g transform="translate(86.113948, 26.280081)"><g><path d="M 1.125 0.0117188 L 2.46875 0.0117188 C 2.921875 0.0117188 3.25 -0.355469 3.25 -0.769531 L 3.25 -7.882812 C 3.25 -8.335938 2.921875 -8.664062 2.46875 -8.664062 L 1.125 -8.664062 C 0.703125 -8.664062 0.355469 -8.335938 0.355469 -7.882812 L 0.355469 -0.769531 C 0.355469 -0.355469 0.703125 0.0117188 1.125 0.0117188 Z M 1.125 0.0117188 "/></g></g></g><g fill="#5e17eb" fill-opacity="1"><g transform="translate(89.719399, 26.280081)"><g><path d="M 8.261719 -0.910156 L 6.421875 -7.914062 C 6.386719 -8.046875 6.355469 -8.238281 6.203125 -8.414062 C 6.042969 -8.574219 5.835938 -8.617188 5.683594 -8.617188 L 2.847656 -8.617188 C 2.683594 -8.617188 2.535156 -8.566406 2.425781 -8.476562 C 2.316406 -8.402344 2.199219 -8.273438 2.15625 -8.078125 L 0.207031 -0.921875 C 0.117188 -0.574219 0.28125 -0.207031 0.605469 -0.0664062 C 0.691406 -0.0234375 0.78125 -0.0117188 0.886719 -0.0117188 L 2.359375 -0.0117188 C 2.761719 -0.0117188 2.921875 -0.261719 3.085938 -0.671875 L 3.398438 -1.515625 L 5.058594 -1.515625 L 5.382812 -0.671875 C 5.542969 -0.261719 5.707031 0 6.105469 0 L 7.578125 0 C 7.699219 0 7.816406 -0.03125 7.90625 -0.0859375 C 8.195312 -0.238281 8.335938 -0.585938 8.261719 -0.910156 Z M 4.742188 -4.015625 L 3.734375 -4.015625 C 3.628906 -4.015625 3.539062 -4.113281 3.59375 -4.222656 L 3.875 -4.960938 L 4.09375 -5.523438 C 4.136719 -5.664062 4.332031 -5.664062 4.375 -5.523438 L 4.601562 -4.960938 L 4.882812 -4.222656 C 4.914062 -4.113281 4.839844 -4.015625 4.742188 -4.015625 Z M 4.742188 -4.015625 "/></g></g></g><g fill="#5e17eb" fill-opacity="1"><g transform="translate(98.186257, 26.280081)"><g><path d="M 3.789062 -9.050781 C 3.660156 -9.050781 0.183594 -9.234375 0.183594 -6.226562 C 0.183594 -4.34375 1.546875 -3.257812 3.378906 -3.257812 L 4.027344 -3.257812 C 4.386719 -3.257812 4.675781 -3.042969 4.675781 -2.683594 C 4.675781 -2.339844 4.386719 -2.089844 4.082031 -2.089844 C 3.910156 -2.089844 3.617188 -2.144531 3.507812 -2.578125 C 3.476562 -2.664062 3.433594 -2.71875 3.269531 -2.683594 L 0.367188 -2.339844 C 0.207031 -2.304688 0.171875 -2.199219 0.261719 -2.035156 C 0.703125 -0.800781 1.496094 0.390625 4.203125 0.390625 C 5.566406 0.390625 7.289062 -0.355469 7.289062 -2.738281 C 7.289062 -5.675781 4.699219 -5.457031 3.789062 -5.457031 C 3.507812 -5.457031 2.96875 -5.523438 2.96875 -6.042969 C 2.96875 -6.464844 3.324219 -6.648438 3.5625 -6.648438 C 3.734375 -6.648438 4.027344 -6.519531 4.136719 -6.226562 C 4.179688 -6.097656 4.277344 -6.042969 4.386719 -6.042969 L 7.039062 -6.410156 C 7.15625 -6.421875 7.242188 -6.539062 7.210938 -6.703125 C 7.09375 -7.289062 6.574219 -9.050781 3.789062 -9.050781 Z M 3.789062 -9.050781 "/></g></g></g><path stroke-linecap="butt" transform="matrix(0.0565019, 0, 0, 0.0565019, 33.413434, 17.364789)" fill="none" stroke-linejoin="miter" d="M 152.937427 -7.216702 C 150.586842 -7.216702 89.056818 -10.466041 89.056818 42.836935 C 89.056818 76.159937 113.254019 95.310293 145.609132 95.310293 L 157.085519 95.310293 C 163.445926 95.310293 168.561905 99.181845 168.561905 105.473117 C 168.561905 111.626119 163.445926 115.981615 158.053407 115.981615 C 155.011473 115.981615 149.826359 115.082862 147.890583 107.408893 C 147.337504 105.818791 146.507886 104.920038 143.673356 105.473117 L 92.306157 111.626119 C 89.471627 112.179198 88.918549 114.114974 90.370381 116.949503 C 98.251754 138.796119 112.216996 159.882251 160.127453 159.882251 C 184.324653 159.882251 214.813126 146.677493 214.813126 104.505229 C 214.813126 52.58495 168.976715 56.456502 152.937427 56.456502 C 147.890583 56.456502 138.280837 55.28121 138.280837 46.017139 C 138.280837 38.619709 144.641244 35.301236 148.858471 35.301236 C 151.900405 35.301236 157.085519 37.651821 159.021295 42.836935 C 159.781778 45.118386 161.51015 46.017139 163.445926 46.017139 L 210.388495 39.518462 C 212.462541 39.380192 213.983507 37.237012 213.430429 34.402483 C 211.356383 24.032254 202.092312 -7.216702 152.937427 -7.216702 Z M 283.74058 -2.584667 C 252.353354 -2.584667 221.311802 22.718691 221.311802 54.313322 L 221.311802 98.006552 C 221.311802 130.776475 252.353354 156.287238 283.74058 156.287238 C 315.957424 156.287238 346.238492 130.776475 346.238492 98.006552 L 346.238492 54.313322 C 346.238492 22.718691 315.957424 -2.584667 283.74058 -2.584667 Z M 296.599663 96.070776 C 296.599663 102.638588 290.654065 108.376781 283.74058 108.376781 C 276.688824 108.376781 271.158035 102.638588 271.158035 96.070776 L 271.158035 57.770065 C 271.158035 50.856579 276.688824 45.118386 283.74058 45.118386 C 290.654065 45.118386 296.599663 50.856579 296.599663 57.770065 Z M 444.54826 101.255891 L 407.146302 101.255891 L 407.146302 15.182992 C 407.146302 6.955944 399.887142 -0.303216 392.005768 -0.303216 L 369.813478 -0.303216 C 361.58643 -0.303216 355.779102 6.955944 355.779102 15.182992 L 355.779102 140.38622 C 355.779102 147.230571 360.203733 152.968765 368.499916 152.968765 L 444.54826 152.968765 C 451.600016 152.968765 457.407344 147.230571 457.407344 140.38622 L 457.407344 114.668053 C 457.407344 107.547163 451.600016 101.255891 444.54826 101.255891 Z M 483.609455 153.176169 L 507.391847 153.176169 C 515.41149 153.176169 521.218818 146.677493 521.218818 139.418332 L 521.218818 13.45462 C 521.218818 5.434977 515.41149 -0.303216 507.391847 -0.303216 L 483.609455 -0.303216 C 476.142891 -0.303216 469.989888 5.434977 469.989888 13.45462 L 469.989888 139.418332 C 469.989888 146.677493 476.142891 153.176169 483.609455 153.176169 Z M 599.202938 -0.164947 L 547.628334 -0.164947 C 539.608691 -0.164947 533.801362 6.610269 533.801362 13.662025 L 533.801362 138.450444 C 533.801362 145.294795 539.608691 152.415686 547.628334 152.415686 L 599.202938 152.415686 C 629.276602 152.415686 652.229375 128.080216 652.229375 99.181845 L 652.229375 52.999759 C 652.229375 24.032254 629.276602 -0.164947 599.202938 -0.164947 Z M 605.494211 80.791972 C 605.494211 88.811616 599.548613 94.342405 591.667239 94.342405 L 582.541438 94.342405 C 581.15874 94.342405 579.845178 93.374517 579.845178 91.093066 L 579.845178 61.226808 C 579.845178 58.737953 581.15874 57.56266 582.541438 57.56266 L 591.667239 57.56266 C 599.548613 57.56266 605.494211 63.300853 605.494211 71.527901 Z M 728.554259 -53.191383 C 729.107337 -54.159271 730.28263 -54.919755 731.181383 -54.919755 L 760.701968 -54.919755 C 763.605632 -54.919755 764.919194 -51.463012 763.052553 -49.319831 L 731.596192 -16.065964 C 731.043113 -15.44375 730.075225 -15.028941 729.107337 -15.028941 L 710.92487 -15.028941 C 708.436015 -15.028941 706.845913 -17.794336 708.22861 -19.868381 Z M 803.289041 136.929478 L 770.726522 12.901542 C 770.104308 10.620091 769.55123 7.163348 766.85497 4.05228 C 764.020441 1.21775 760.356293 0.457267 757.660034 0.457267 L 707.468127 0.457267 C 704.564463 0.457267 701.868203 1.425155 700.001562 2.946122 C 698.065786 4.328819 695.922605 6.610269 695.162122 9.997877 L 660.663828 136.722073 C 659.142861 142.875075 661.97739 149.373752 667.784718 151.862607 C 669.305685 152.62309 670.826652 152.830495 672.762428 152.830495 L 698.826269 152.830495 C 705.878025 152.830495 708.781689 148.405864 711.616218 141.146704 L 717.216142 126.213574 L 746.529322 126.213574 L 752.33665 141.146704 C 755.171179 148.405864 758.074843 152.968765 765.126599 152.968765 L 791.19044 152.968765 C 793.264486 152.968765 795.407667 152.415686 796.928634 151.447798 C 802.113748 148.820673 804.602603 142.667671 803.289041 136.929478 Z M 740.998533 81.89813 L 723.16174 81.89813 C 721.225964 81.89813 719.704997 80.169759 720.672885 78.303118 L 725.650595 65.236629 L 729.453012 55.28121 C 730.28263 52.792355 733.670238 52.792355 734.499856 55.28121 L 738.509678 65.236629 L 743.487388 78.303118 C 744.040467 80.169759 742.726905 81.89813 740.998533 81.89813 Z M 932.432956 136.722073 L 920.54176 90.194313 C 920.196086 88.604211 919.781277 87.428919 919.159063 86.530166 C 927.593516 76.574746 932.986035 64.268741 932.986035 47.60724 C 932.986035 18.29406 916.117129 -0.164947 895.238402 -0.164947 L 826.103544 0.0424579 C 818.567844 0.0424579 812.622246 6.19546 812.622246 17.118768 L 812.622246 139.210928 C 812.622246 146.331818 818.567844 152.415686 826.103544 152.415686 L 850.577284 152.415686 C 854.448836 152.415686 858.251253 150.894719 860.740108 147.78365 C 864.196851 143.981233 864.058581 141.838052 864.058581 138.796119 L 864.058581 106.786679 C 864.058581 106.441005 864.196851 105.680522 864.957334 105.680522 C 865.717818 105.680522 866.132627 106.2336 866.132627 106.64841 L 867.653594 114.460649 L 872.631304 137.828231 C 874.56708 146.470088 883.001532 152.415686 889.500209 152.415686 L 920.54176 152.415686 C 928.008325 152.415686 934.368732 145.709605 932.432956 136.722073 Z M 881.411431 52.58495 L 881.411431 55.28121 C 881.411431 61.365077 876.295451 66.550192 870.142449 66.550192 L 866.478301 66.550192 C 864.957334 66.550192 864.058581 65.444034 864.058581 64.061337 L 864.058581 43.597419 C 864.058581 42.283856 864.957334 41.108564 866.478301 41.108564 L 870.142449 41.108564 C 876.295451 41.108564 881.411431 46.293678 881.411431 52.58495 Z M 959.257281 153.176169 L 983.039672 153.176169 C 991.059316 153.176169 996.797509 146.677493 996.797509 139.418332 L 996.797509 13.45462 C 996.797509 5.434977 991.059316 -0.303216 983.039672 -0.303216 L 959.257281 -0.303216 C 951.721582 -0.303216 945.637714 5.434977 945.637714 13.45462 L 945.637714 139.418332 C 945.637714 146.677493 951.721582 153.176169 959.257281 153.176169 Z M 1149.309007 136.929478 L 1116.746489 12.901542 C 1116.19341 10.620091 1115.571196 7.163348 1112.944071 4.05228 C 1110.109542 1.21775 1106.445395 0.457267 1103.68 0.457267 L 1053.488093 0.457267 C 1050.653564 0.457267 1047.957304 1.425155 1046.090663 2.946122 C 1044.154887 4.328819 1042.011707 6.610269 1041.251223 9.997877 L 1006.752929 136.722073 C 1005.231962 142.875075 1008.066491 149.373752 1013.804684 151.862607 C 1015.394786 152.62309 1016.915753 152.830495 1018.851529 152.830495 L 1044.915371 152.830495 C 1051.967126 152.830495 1054.87079 148.405864 1057.705319 141.146704 L 1063.305243 126.213574 L 1092.618423 126.213574 L 1098.356616 141.146704 C 1101.26028 148.405864 1104.163944 152.968765 1111.2157 152.968765 L 1137.279541 152.968765 C 1139.353587 152.968765 1141.496768 152.415686 1143.017735 151.447798 C 1148.202849 148.820673 1150.691704 142.667671 1149.309007 136.929478 Z M 1087.087634 81.89813 L 1069.250841 81.89813 C 1067.315065 81.89813 1065.794098 80.169759 1066.761986 78.303118 L 1071.739696 65.236629 L 1075.542113 55.28121 C 1076.371731 52.792355 1079.759339 52.792355 1080.588958 55.28121 L 1084.598779 65.236629 L 1089.507354 78.303118 C 1090.129568 80.169759 1088.816006 81.89813 1087.087634 81.89813 Z M 1220.033967 -7.216702 C 1217.752517 -7.216702 1156.222493 -10.466041 1156.222493 42.836935 C 1156.222493 76.159937 1180.419693 95.310293 1212.774807 95.310293 L 1224.251193 95.310293 C 1230.6116 95.310293 1235.72758 99.181845 1235.72758 105.473117 C 1235.72758 111.626119 1230.6116 115.981615 1225.219081 115.981615 C 1222.177148 115.981615 1216.992033 115.082862 1215.056257 107.408893 C 1214.503178 105.818791 1213.67356 104.920038 1210.839031 105.473117 L 1159.471831 111.626119 C 1156.637302 112.179198 1156.084223 114.114974 1157.536055 116.949503 C 1165.417429 138.796119 1179.38267 159.882251 1227.293127 159.882251 C 1251.490328 159.882251 1281.9788 146.677493 1281.9788 104.505229 C 1281.9788 52.58495 1236.142389 56.456502 1220.033967 56.456502 C 1215.056257 56.456502 1205.446512 55.28121 1205.446512 46.017139 C 1205.446512 38.619709 1211.806919 35.301236 1216.024145 35.301236 C 1219.066079 35.301236 1224.251193 37.651821 1226.186969 42.836935 C 1226.947453 45.118386 1228.675824 46.017139 1230.6116 46.017139 L 1277.554169 39.518462 C 1279.628215 39.380192 1281.149182 37.237012 1280.596103 34.402483 C 1278.522057 24.032254 1269.257986 -7.216702 1220.033967 -7.216702 Z M 1220.033967 -7.216702 " stroke="#5e17eb" stroke-width="3.114264" stroke-opacity="1" stroke-miterlimit="4"/><g fill="#5ce1e6" fill-opacity="1"><g transform="translate(52.002799, 15.686314)"><g><path d="M 6.398438 -7.332031 C 6.160156 -8.109375 5.445312 -8.640625 4.632812 -8.640625 L 1.203125 -8.640625 C 0.734375 -8.640625 0.355469 -8.25 0.355469 -7.785156 L 0.355469 -0.878906 C 0.355469 -0.402344 0.734375 -0.0234375 1.203125 -0.0234375 L 2.328125 -0.0234375 C 2.792969 -0.0234375 3.171875 -0.402344 3.171875 -0.878906 L 3.171875 -2.859375 L 4.675781 -2.859375 C 5.132812 -2.859375 5.566406 -3.054688 5.859375 -3.398438 C 6.214844 -3.832031 6.582031 -4.582031 6.582031 -5.824219 C 6.582031 -6.453125 6.507812 -6.960938 6.398438 -7.332031 Z M 4.15625 -5.847656 L 4.15625 -5.695312 C 4.15625 -5.328125 3.875 -5.046875 3.519531 -5.046875 L 3.3125 -5.046875 C 3.226562 -5.046875 3.171875 -5.101562 3.171875 -5.175781 L 3.171875 -6.34375 C 3.171875 -6.421875 3.226562 -6.496094 3.3125 -6.496094 L 3.519531 -6.496094 C 3.875 -6.496094 4.15625 -6.195312 4.15625 -5.847656 Z M 4.15625 -5.847656 "/></g></g></g><g fill="#5ce1e6" fill-opacity="1"><g transform="translate(58.769787, 15.686314)"><g><path d="M 8.261719 -0.910156 L 6.421875 -7.914062 C 6.386719 -8.046875 6.355469 -8.238281 6.203125 -8.414062 C 6.042969 -8.574219 5.835938 -8.617188 5.683594 -8.617188 L 2.847656 -8.617188 C 2.683594 -8.617188 2.535156 -8.566406 2.425781 -8.476562 C 2.316406 -8.402344 2.199219 -8.273438 2.15625 -8.078125 L 0.207031 -0.921875 C 0.117188 -0.574219 0.28125 -0.207031 0.605469 -0.0664062 C 0.691406 -0.0234375 0.78125 -0.0117188 0.886719 -0.0117188 L 2.359375 -0.0117188 C 2.761719 -0.0117188 2.921875 -0.261719 3.085938 -0.671875 L 3.398438 -1.515625 L 5.058594 -1.515625 L 5.382812 -0.671875 C 5.542969 -0.261719 5.707031 0 6.105469 0 L 7.578125 0 C 7.699219 0 7.816406 -0.03125 7.90625 -0.0859375 C 8.195312 -0.238281 8.335938 -0.585938 8.261719 -0.910156 Z M 4.742188 -4.015625 L 3.734375 -4.015625 C 3.628906 -4.015625 3.539062 -4.113281 3.59375 -4.222656 L 3.875 -4.960938 L 4.09375 -5.523438 C 4.136719 -5.664062 4.332031 -5.664062 4.375 -5.523438 L 4.601562 -4.960938 L 4.882812 -4.222656 C 4.914062 -4.113281 4.839844 -4.015625 4.742188 -4.015625 Z M 4.742188 -4.015625 "/></g></g></g><g fill="#5ce1e6" fill-opacity="1"><g transform="translate(67.236643, 15.686314)"><g><path d="M 7.253906 -8.664062 L 1.117188 -8.664062 C 0.703125 -8.664062 0.355469 -8.328125 0.355469 -7.90625 L 0.355469 -6.421875 C 0.355469 -6.007812 0.703125 -5.664062 1.117188 -5.664062 L 2.609375 -5.664062 C 2.652344 -5.664062 2.683594 -5.621094 2.683594 -5.585938 L 2.683594 -0.734375 C 2.683594 -0.324219 3.019531 0.0234375 3.453125 0.0234375 L 4.925781 0.0234375 C 5.339844 0.0234375 5.683594 -0.324219 5.683594 -0.734375 L 5.683594 -5.585938 C 5.683594 -5.621094 5.726562 -5.664062 5.769531 -5.664062 L 7.253906 -5.664062 C 7.667969 -5.664062 8.011719 -6.007812 8.011719 -6.421875 L 8.011719 -7.90625 C 8.011719 -8.328125 7.667969 -8.664062 7.253906 -8.664062 Z M 7.253906 -8.664062 "/></g></g></g><g fill="#5ce1e6" fill-opacity="1"><g transform="translate(75.606054, 15.686314)"><g><path d="M 8.261719 -0.910156 L 6.421875 -7.914062 C 6.386719 -8.046875 6.355469 -8.238281 6.203125 -8.414062 C 6.042969 -8.574219 5.835938 -8.617188 5.683594 -8.617188 L 2.847656 -8.617188 C 2.683594 -8.617188 2.535156 -8.566406 2.425781 -8.476562 C 2.316406 -8.402344 2.199219 -8.273438 2.15625 -8.078125 L 0.207031 -0.921875 C 0.117188 -0.574219 0.28125 -0.207031 0.605469 -0.0664062 C 0.691406 -0.0234375 0.78125 -0.0117188 0.886719 -0.0117188 L 2.359375 -0.0117188 C 2.761719 -0.0117188 2.921875 -0.261719 3.085938 -0.671875 L 3.398438 -1.515625 L 5.058594 -1.515625 L 5.382812 -0.671875 C 5.542969 -0.261719 5.707031 0 6.105469 0 L 7.578125 0 C 7.699219 0 7.816406 -0.03125 7.90625 -0.0859375 C 8.195312 -0.238281 8.335938 -0.585938 8.261719 -0.910156 Z M 4.742188 -4.015625 L 3.734375 -4.015625 C 3.628906 -4.015625 3.539062 -4.113281 3.59375 -4.222656 L 3.875 -4.960938 L 4.09375 -5.523438 C 4.136719 -5.664062 4.332031 -5.664062 4.375 -5.523438 L 4.601562 -4.960938 L 4.882812 -4.222656 C 4.914062 -4.113281 4.839844 -4.015625 4.742188 -4.015625 Z M 4.742188 -4.015625 "/></g></g></g><g fill="#5ce1e6" fill-opacity="1"><g transform="translate(84.07291, 15.686314)"><g><path d="M 3.789062 -9.050781 C 3.660156 -9.050781 0.183594 -9.234375 0.183594 -6.226562 C 0.183594 -4.34375 1.546875 -3.257812 3.378906 -3.257812 L 4.027344 -3.257812 C 4.386719 -3.257812 4.675781 -3.042969 4.675781 -2.683594 C 4.675781 -2.339844 4.386719 -2.089844 4.082031 -2.089844 C 3.910156 -2.089844 3.617188 -2.144531 3.507812 -2.578125 C 3.476562 -2.664062 3.433594 -2.71875 3.269531 -2.683594 L 0.367188 -2.339844 C 0.207031 -2.304688 0.171875 -2.199219 0.261719 -2.035156 C 0.703125 -0.800781 1.496094 0.390625 4.203125 0.390625 C 5.566406 0.390625 7.289062 -0.355469 7.289062 -2.738281 C 7.289062 -5.675781 4.699219 -5.457031 3.789062 -5.457031 C 3.507812 -5.457031 2.96875 -5.523438 2.96875 -6.042969 C 2.96875 -6.464844 3.324219 -6.648438 3.5625 -6.648438 C 3.734375 -6.648438 4.027344 -6.519531 4.136719 -6.226562 C 4.179688 -6.097656 4.277344 -6.042969 4.386719 -6.042969 L 7.039062 -6.410156 C 7.15625 -6.421875 7.242188 -6.539062 7.210938 -6.703125 C 7.09375 -7.289062 6.574219 -9.050781 3.789062 -9.050781 Z M 3.789062 -9.050781 "/></g></g></g><path stroke-linecap="butt" transform="matrix(0.0565019, 0, 0, 0.0565019, 33.413434, 6.771022)" fill="none" stroke-linejoin="miter" d="M 448.834621 23.272063 C 444.68653 9.445091 431.965716 0.0427503 417.585665 0.0427503 L 356.88526 0.0427503 C 348.658212 0.0427503 341.882996 6.956236 341.882996 15.183284 L 341.882996 137.482849 C 341.882996 145.917302 348.658212 152.623383 356.88526 152.623383 L 376.796099 152.623383 C 385.023147 152.623383 391.729228 145.917302 391.729228 137.482849 L 391.729228 102.431476 L 418.346149 102.431476 C 426.434927 102.431476 434.108897 98.974733 439.294011 92.82173 C 445.585283 85.147761 452.08396 71.943003 452.08396 49.888983 C 452.08396 38.758271 450.770397 29.770739 448.834621 23.272063 Z M 409.220348 49.474174 L 409.220348 52.239568 C 409.220348 58.738245 404.173503 63.715955 397.882231 63.715955 L 394.218083 63.715955 C 392.697116 63.715955 391.729228 62.748067 391.729228 61.36537 L 391.729228 40.694047 C 391.729228 39.380485 392.697116 37.997788 394.218083 37.997788 L 397.882231 37.997788 C 404.173503 37.997788 409.220348 43.390307 409.220348 49.474174 Z M 601.553524 136.92977 L 568.991005 12.901834 C 568.437927 10.620384 567.815713 7.163641 565.188588 4.052572 C 562.284924 1.218043 558.689911 0.457559 555.924517 0.457559 L 505.73261 0.457559 C 502.898081 0.457559 500.201821 1.425447 498.33518 2.946414 C 496.399404 4.329112 494.256223 6.610562 493.49574 9.99817 L 458.997446 136.722365 C 457.476479 142.875368 460.311008 149.374044 466.049201 151.862899 C 467.639303 152.623383 469.16027 152.830787 471.096046 152.830787 L 497.159887 152.830787 C 504.211643 152.830787 507.115307 148.406156 509.949836 141.146996 L 515.54976 126.213867 L 544.86294 126.213867 L 550.601133 141.146996 C 553.504797 148.406156 556.339326 152.969057 563.460217 152.969057 L 589.524058 152.969057 C 591.598104 152.969057 593.741285 152.415978 595.262252 151.44809 C 600.447366 148.820966 602.936221 142.667963 601.553524 136.92977 Z M 539.263016 81.898423 L 521.495358 81.898423 C 519.559582 81.898423 518.038615 80.170051 519.006503 78.30341 L 523.915078 65.236922 L 527.78663 55.281502 C 528.547113 52.792647 532.003856 52.792647 532.76434 55.281502 L 536.843296 65.236922 L 541.751871 78.30341 C 542.374085 80.170051 541.060523 81.898423 539.263016 81.898423 Z M 733.601103 -0.302924 L 624.921106 -0.302924 C 617.661946 -0.302924 611.508943 5.642674 611.508943 13.109239 L 611.508943 39.380485 C 611.508943 46.639645 617.661946 52.792647 624.921106 52.792647 L 651.399757 52.792647 C 652.16024 52.792647 652.713319 53.553131 652.713319 54.10621 L 652.713319 139.971704 C 652.713319 147.230864 658.658917 153.383866 666.332886 153.383866 L 692.396728 153.383866 C 699.655888 153.383866 705.80889 147.230864 705.80889 139.971704 L 705.80889 54.10621 C 705.80889 53.553131 706.569374 52.792647 707.329857 52.792647 L 733.601103 52.792647 C 740.860263 52.792647 747.013266 46.639645 747.013266 39.380485 L 747.013266 13.109239 C 747.013266 5.642674 740.860263 -0.302924 733.601103 -0.302924 Z M 899.524763 136.92977 L 866.962245 12.901834 C 866.409166 10.620384 865.786953 7.163641 863.159828 4.052572 C 860.325299 1.218043 856.661151 0.457559 853.895757 0.457559 L 803.70385 0.457559 C 800.86932 0.457559 798.173061 1.425447 796.30642 2.946414 C 794.370644 4.329112 792.227463 6.610562 791.46698 9.99817 L 756.968685 136.722365 C 755.447718 142.875368 758.282248 149.374044 764.020441 151.862899 C 765.610543 152.623383 767.13151 152.830787 769.067286 152.830787 L 795.131127 152.830787 C 802.182883 152.830787 805.086547 148.406156 807.921076 141.146996 L 813.521 126.213867 L 842.83418 126.213867 L 848.572373 141.146996 C 851.476037 148.406156 854.379701 152.969057 861.431456 152.969057 L 887.495298 152.969057 C 889.569344 152.969057 891.712524 152.415978 893.233491 151.44809 C 898.418606 148.820966 900.907461 142.667963 899.524763 136.92977 Z M 837.303391 81.898423 L 819.466597 81.898423 C 817.530821 81.898423 816.009854 80.170051 816.977742 78.30341 L 821.955452 65.236922 L 825.757869 55.281502 C 826.587488 52.792647 829.975096 52.792647 830.735579 55.281502 L 834.814536 65.236922 L 839.723111 78.30341 C 840.345325 80.170051 839.031762 81.898423 837.303391 81.898423 Z M 970.249724 -7.21641 C 967.968273 -7.21641 906.438249 -10.465748 906.438249 42.837228 C 906.438249 76.160229 930.63545 95.310585 962.990563 95.310585 L 974.46695 95.310585 C 980.827357 95.310585 985.943336 99.182137 985.943336 105.473409 C 985.943336 111.626412 980.827357 115.981908 975.434838 115.981908 C 972.392904 115.981908 967.20779 115.083155 965.272014 107.409185 C 964.718935 105.819084 963.889317 104.920331 961.054787 105.473409 L 909.687588 111.626412 C 906.853058 112.179491 906.29998 114.115267 907.751812 116.949796 C 915.633185 138.796411 929.598427 159.882543 977.508884 159.882543 C 1001.706084 159.882543 1032.194557 146.677785 1032.194557 104.505521 C 1032.194557 52.585243 986.358146 56.456795 970.249724 56.456795 C 965.272014 56.456795 955.662268 55.281502 955.662268 46.017431 C 955.662268 38.620001 962.022675 35.301528 966.239902 35.301528 C 969.281836 35.301528 974.46695 37.652113 976.402726 42.837228 C 977.163209 45.118678 978.891581 46.017431 980.827357 46.017431 L 1027.700791 39.518754 C 1029.843972 39.380485 1031.364938 37.237304 1030.81186 34.402775 C 1028.737814 24.032546 1019.473743 -7.21641 970.249724 -7.21641 Z M 970.249724 -7.21641 " stroke="#b2edef" stroke-width="3.114264" stroke-opacity="1" stroke-miterlimit="4"/></svg>