<svg xmlns="http://www.w3.org/2000/svg" xmlns:xlink="http://www.w3.org/1999/xlink" width="21" zoomAndPan="magnify" viewBox="0 0 164.25 30.000001" height="20" preserveAspectRatio="xMidYMid meet" version="1.0"><defs><g/><clipPath id="bf15c0c349"><path d="M 81 7.070312 L 84 7.070312 L 84 10 L 81 10 Z M 81 7.070312 " clip-rule="nonzero"/></clipPath><clipPath id="97c15af66f"><path d="M 80.285156 7.070312 L 87.167969 7.070312 L 87.167969 14.328125 L 80.285156 14.328125 Z M 80.285156 7.070312 " clip-rule="nonzero"/></clipPath><clipPath id="92cf4d5ac8"><path d="M 83 12 L 86 12 L 86 14.328125 L 83 14.328125 Z M 83 12 " clip-rule="nonzero"/></clipPath><clipPath id="cc859f9a7d"><path d="M 76.296875 10.105469 L 81.417969 10.105469 L 81.417969 14.328125 L 76.296875 14.328125 Z M 76.296875 10.105469 " clip-rule="nonzero"/></clipPath><clipPath id="9cd4f90142"><path d="M 77.226562 10.148438 L 78.675781 10.148438 L 78.675781 11.601562 L 77.226562 11.601562 Z M 77.226562 10.148438 " clip-rule="nonzero"/></clipPath></defs><g clip-path="url(#bf15c0c349)"><path fill="#8c8164" d="M 83.128906 7.886719 C 83.023438 7.820312 82.925781 7.730469 82.855469 7.625 C 82.808594 7.550781 82.703125 7.53125 82.628906 7.582031 C 82.554688 7.628906 82.535156 7.730469 82.582031 7.808594 C 82.679688 7.953125 82.8125 8.078125 82.964844 8.167969 C 83.023438 8.203125 83.058594 8.261719 83.058594 8.332031 C 83.058594 8.523438 82.992188 8.703125 82.875 8.855469 C 82.863281 8.871094 82.84375 8.875 82.824219 8.871094 C 82.441406 8.792969 82.160156 8.445312 82.160156 8.054688 C 82.160156 8.035156 82.164062 8.019531 82.164062 8.003906 C 82.167969 7.914062 82.097656 7.835938 82.007812 7.828125 C 81.917969 7.824219 81.839844 7.894531 81.835938 7.984375 C 81.835938 8.007812 81.835938 8.03125 81.835938 8.054688 C 81.835938 8.601562 82.222656 9.078125 82.757812 9.191406 C 82.78125 9.199219 82.808594 9.199219 82.835938 9.199219 C 82.949219 9.199219 83.054688 9.148438 83.128906 9.058594 C 83.292969 8.855469 83.386719 8.59375 83.386719 8.328125 C 83.382812 8.148438 83.289062 7.976562 83.128906 7.886719 " fill-opacity="1" fill-rule="nonzero"/></g><g clip-path="url(#97c15af66f)"><path fill="#8c8164" d="M 87.054688 12.070312 C 86.964844 12.070312 86.890625 12.144531 86.890625 12.234375 C 86.890625 12.859375 86.613281 13.453125 86.148438 13.859375 C 86.226562 13.460938 86.269531 13.042969 86.269531 12.59375 C 86.269531 10.757812 85.460938 9.027344 84.050781 7.847656 C 83.597656 7.464844 83.046875 7.207031 82.464844 7.097656 L 82.445312 7.09375 C 81.882812 6.992188 81.300781 7.230469 80.96875 7.703125 C 80.832031 7.890625 80.722656 8.058594 80.636719 8.203125 C 80.53125 8.375 80.515625 8.59375 80.59375 8.777344 C 80.625 8.851562 80.65625 8.921875 80.691406 8.996094 C 80.605469 9.136719 80.507812 9.28125 80.382812 9.453125 C 80.316406 9.542969 80.296875 9.65625 80.320312 9.761719 C 80.347656 9.867188 80.417969 9.960938 80.515625 10.007812 C 80.664062 10.085938 80.820312 10.164062 80.882812 10.191406 C 81.128906 10.308594 81.421875 10.300781 81.660156 10.167969 C 81.785156 10.097656 81.914062 10.03125 82.042969 9.96875 C 82.070312 9.957031 82.09375 9.96875 82.105469 9.976562 C 82.113281 9.984375 82.132812 10.003906 82.125 10.035156 C 82.0625 10.308594 81.980469 10.578125 81.878906 10.839844 C 81.679688 11.355469 81.753906 11.925781 82.070312 12.363281 C 82.117188 12.429688 82.164062 12.496094 82.210938 12.5625 L 82.210938 14.082031 L 81.898438 14.082031 C 81.808594 14.082031 81.738281 14.152344 81.738281 14.246094 C 81.738281 14.335938 81.808594 14.410156 81.898438 14.410156 L 82.375 14.410156 C 82.464844 14.410156 82.539062 14.335938 82.539062 14.246094 L 82.539062 12.511719 C 82.539062 12.480469 82.527344 12.449219 82.511719 12.421875 C 82.457031 12.339844 82.398438 12.253906 82.335938 12.171875 C 82.082031 11.820312 82.027344 11.367188 82.183594 10.957031 C 82.292969 10.683594 82.378906 10.394531 82.445312 10.109375 C 82.476562 9.964844 82.425781 9.816406 82.308594 9.722656 C 82.195312 9.628906 82.039062 9.609375 81.90625 9.671875 C 81.769531 9.738281 81.632812 9.808594 81.5 9.882812 C 81.355469 9.964844 81.175781 9.96875 81.023438 9.894531 C 80.964844 9.867188 80.8125 9.792969 80.664062 9.71875 C 80.648438 9.710938 80.640625 9.695312 80.640625 9.6875 C 80.636719 9.675781 80.636719 9.660156 80.648438 9.648438 C 80.804688 9.433594 80.917969 9.257812 81.019531 9.085938 C 81.042969 9.039062 81.046875 8.980469 81.023438 8.929688 C 80.976562 8.839844 80.9375 8.746094 80.894531 8.652344 C 80.859375 8.5625 80.867188 8.457031 80.917969 8.371094 C 81 8.234375 81.105469 8.074219 81.234375 7.894531 C 81.496094 7.523438 81.949219 7.335938 82.386719 7.417969 L 82.40625 7.421875 C 82.933594 7.519531 83.429688 7.753906 83.839844 8.097656 C 85.175781 9.21875 85.941406 10.855469 85.941406 12.59375 C 85.941406 13.175781 85.871094 13.699219 85.726562 14.199219 C 85.707031 14.261719 85.730469 14.332031 85.785156 14.375 C 85.8125 14.398438 85.847656 14.410156 85.886719 14.410156 C 85.914062 14.410156 85.941406 14.402344 85.964844 14.386719 C 86.738281 13.945312 87.21875 13.121094 87.21875 12.234375 C 87.21875 12.144531 87.144531 12.070312 87.054688 12.070312 " fill-opacity="1" fill-rule="nonzero"/></g><g clip-path="url(#92cf4d5ac8)"><path fill="#8c8164" d="M 84.519531 12.214844 C 84.023438 12.214844 83.621094 12.617188 83.621094 13.113281 C 83.621094 13.507812 83.863281 13.851562 84.082031 14.082031 L 83.375 14.082031 C 83.285156 14.082031 83.210938 14.152344 83.210938 14.246094 C 83.210938 14.335938 83.285156 14.410156 83.375 14.410156 L 84.519531 14.410156 C 84.59375 14.410156 84.65625 14.363281 84.675781 14.292969 C 84.699219 14.222656 84.671875 14.148438 84.613281 14.109375 C 84.605469 14.105469 83.949219 13.648438 83.949219 13.113281 C 83.949219 12.796875 84.207031 12.539062 84.519531 12.539062 C 84.835938 12.539062 85.09375 12.796875 85.09375 13.113281 C 85.09375 13.203125 85.167969 13.277344 85.257812 13.277344 C 85.347656 13.277344 85.421875 13.203125 85.421875 13.113281 C 85.421875 12.617188 85.019531 12.214844 84.519531 12.214844 " fill-opacity="1" fill-rule="nonzero"/></g><g clip-path="url(#cc859f9a7d)"><path fill="#8c8164" d="M 77.765625 13.761719 C 77.898438 13.5625 78.113281 13.453125 78.351562 13.453125 C 78.507812 13.453125 78.808594 13.523438 78.808594 13.789062 C 78.808594 13.980469 78.554688 14.132812 78.375 14.171875 C 78.160156 14.214844 77.933594 14.164062 77.761719 14.03125 C 77.714844 13.996094 77.671875 13.953125 77.636719 13.910156 C 77.683594 13.867188 77.726562 13.820312 77.765625 13.761719 Z M 81.238281 14.078125 C 81.199219 14.078125 81.164062 14.078125 81.128906 14.078125 C 81.125 14.078125 81.121094 14.078125 81.121094 14.078125 C 81.269531 13.464844 81.320312 12.78125 81.265625 12.085938 C 81.261719 12.011719 81.253906 11.941406 81.242188 11.871094 C 81.316406 11.667969 81.355469 11.453125 81.355469 11.230469 L 81.355469 11.210938 C 81.351562 10.945312 81.160156 10.71875 80.898438 10.671875 C 80.855469 10.664062 80.8125 10.652344 80.769531 10.644531 C 80.59375 10.414062 80.378906 10.25 80.132812 10.160156 C 80.09375 10.144531 80.046875 10.148438 80.007812 10.164062 C 79.96875 10.183594 79.9375 10.21875 79.921875 10.257812 C 79.875 10.386719 79.84375 10.519531 79.828125 10.652344 C 79.796875 10.671875 79.761719 10.6875 79.730469 10.707031 C 79.621094 10.660156 79.507812 10.621094 79.394531 10.597656 C 79.34375 10.585938 79.292969 10.597656 79.253906 10.628906 L 79.222656 10.65625 C 79.183594 10.6875 79.160156 10.734375 79.160156 10.785156 L 79.160156 10.816406 C 79.160156 11.082031 79.242188 11.347656 79.394531 11.582031 C 79.433594 11.644531 79.46875 11.710938 79.5 11.777344 C 79.566406 11.921875 79.507812 12.089844 79.367188 12.160156 C 79.183594 12.253906 78.949219 12.308594 78.707031 12.316406 C 78.667969 12.320312 78.617188 12.316406 78.582031 12.3125 C 78.449219 12.300781 78.316406 12.308594 78.183594 12.339844 C 77.9375 12.398438 77.707031 12.515625 77.515625 12.675781 C 77.511719 12.679688 77.511719 12.679688 77.507812 12.683594 C 77.5 12.691406 77.496094 12.699219 77.488281 12.703125 C 77.257812 12.917969 77.136719 13.21875 77.15625 13.535156 C 77.160156 13.609375 77.175781 13.683594 77.195312 13.753906 C 77.167969 13.757812 77.140625 13.761719 77.113281 13.757812 C 76.972656 13.753906 76.84375 13.695312 76.753906 13.589844 C 76.65625 13.480469 76.613281 13.332031 76.628906 13.183594 C 76.652344 12.972656 76.773438 12.761719 76.949219 12.617188 C 76.988281 12.582031 77.042969 12.554688 77.09375 12.523438 C 77.25 12.433594 77.460938 12.3125 77.480469 12.015625 C 77.492188 11.871094 77.441406 11.738281 77.34375 11.632812 C 77.242188 11.523438 77.09375 11.464844 76.941406 11.46875 C 76.695312 11.472656 76.558594 11.648438 76.515625 11.796875 C 76.492188 11.882812 76.542969 11.972656 76.628906 11.996094 C 76.71875 12.023438 76.808594 11.972656 76.832031 11.886719 C 76.84375 11.84375 76.875 11.796875 76.949219 11.792969 C 77.007812 11.792969 77.066406 11.816406 77.105469 11.859375 C 77.132812 11.882812 77.160156 11.929688 77.15625 11.992188 C 77.148438 12.105469 77.085938 12.148438 76.933594 12.238281 C 76.867188 12.273438 76.804688 12.3125 76.742188 12.363281 C 76.496094 12.5625 76.335938 12.847656 76.304688 13.148438 C 76.277344 13.386719 76.351562 13.628906 76.503906 13.804688 C 76.648438 13.972656 76.851562 14.070312 77.078125 14.085938 C 77.089844 14.085938 77.097656 14.085938 77.109375 14.085938 C 77.109375 14.085938 77.113281 14.085938 77.117188 14.085938 C 77.191406 14.085938 77.269531 14.078125 77.339844 14.058594 C 77.402344 14.148438 77.476562 14.222656 77.5625 14.289062 C 77.753906 14.4375 77.984375 14.511719 78.21875 14.511719 C 78.292969 14.511719 78.367188 14.507812 78.441406 14.492188 C 78.585938 14.460938 78.734375 14.394531 78.859375 14.296875 C 79.054688 14.367188 79.273438 14.402344 79.5 14.402344 C 79.640625 14.402344 79.777344 14.390625 79.90625 14.363281 C 79.996094 14.34375 80.050781 14.257812 80.035156 14.171875 C 80.015625 14.082031 79.929688 14.023438 79.839844 14.042969 C 79.730469 14.066406 79.617188 14.078125 79.5 14.078125 C 79.355469 14.078125 79.210938 14.058594 79.082031 14.023438 C 79.117188 13.953125 79.136719 13.875 79.136719 13.789062 C 79.136719 13.351562 78.738281 13.125 78.351562 13.125 C 78 13.125 77.6875 13.289062 77.496094 13.578125 C 77.492188 13.578125 77.492188 13.582031 77.492188 13.582031 C 77.488281 13.558594 77.484375 13.539062 77.484375 13.515625 C 77.46875 13.289062 77.558594 13.074219 77.730469 12.929688 C 77.738281 12.921875 77.742188 12.914062 77.75 12.910156 C 77.898438 12.789062 78.074219 12.703125 78.257812 12.660156 C 78.355469 12.636719 78.453125 12.628906 78.550781 12.640625 C 78.597656 12.644531 78.664062 12.648438 78.71875 12.644531 C 79.007812 12.632812 79.292969 12.566406 79.515625 12.453125 C 79.8125 12.300781 79.9375 11.945312 79.796875 11.640625 C 79.761719 11.558594 79.714844 11.480469 79.667969 11.40625 C 79.582031 11.269531 79.523438 11.117188 79.5 10.96875 C 79.558594 10.988281 79.613281 11.011719 79.671875 11.039062 C 79.722656 11.0625 79.78125 11.058594 79.828125 11.027344 C 79.898438 10.984375 79.972656 10.945312 80.046875 10.914062 C 80.101562 10.890625 80.140625 10.835938 80.144531 10.777344 C 80.152344 10.699219 80.164062 10.621094 80.179688 10.542969 C 80.316406 10.625 80.433594 10.734375 80.539062 10.882812 C 80.5625 10.910156 80.589844 10.933594 80.625 10.941406 C 80.695312 10.964844 80.769531 10.980469 80.84375 10.992188 C 80.949219 11.011719 81.027344 11.105469 81.027344 11.214844 L 81.027344 11.230469 C 81.027344 11.425781 80.992188 11.617188 80.921875 11.796875 C 80.914062 11.820312 80.910156 11.851562 80.914062 11.878906 C 80.925781 11.957031 80.933594 12.035156 80.941406 12.109375 C 81 12.851562 80.933594 13.570312 80.75 14.195312 C 80.734375 14.246094 80.742188 14.300781 80.777344 14.34375 C 80.808594 14.382812 80.855469 14.40625 80.910156 14.40625 C 80.988281 14.40625 81.054688 14.40625 81.125 14.40625 C 81.164062 14.40625 81.199219 14.40625 81.238281 14.40625 C 81.332031 14.40625 81.402344 14.332031 81.402344 14.242188 C 81.402344 14.152344 81.332031 14.078125 81.238281 14.078125 " fill-opacity="1" fill-rule="nonzero"/></g><g clip-path="url(#9cd4f90142)"><path fill="#eb6363" d="M 78.527344 10.304688 C 78.46875 10.195312 78.335938 10.152344 78.222656 10.167969 C 78.082031 10.183594 77.96875 10.277344 77.875 10.375 C 77.835938 10.265625 77.734375 10.1875 77.617188 10.171875 C 77.476562 10.15625 77.351562 10.238281 77.28125 10.355469 C 77.246094 10.417969 77.226562 10.488281 77.226562 10.558594 C 77.226562 10.59375 77.230469 10.625 77.242188 10.65625 C 77.261719 10.707031 77.289062 10.738281 77.308594 10.761719 C 77.414062 10.867188 77.546875 10.898438 77.648438 10.996094 C 77.796875 11.144531 77.847656 11.25 77.886719 11.394531 C 77.898438 11.425781 77.949219 11.425781 77.960938 11.394531 C 77.992188 11.328125 78.023438 11.261719 78.0625 11.195312 C 78.101562 11.136719 78.148438 11.085938 78.199219 11.039062 C 78.253906 10.992188 78.3125 10.949219 78.363281 10.898438 C 78.417969 10.84375 78.460938 10.785156 78.492188 10.71875 C 78.554688 10.601562 78.597656 10.429688 78.527344 10.304688 " fill-opacity="1" fill-rule="nonzero"/></g><g fill="#8c8164" fill-opacity="1"><g transform="translate(75.821151, 18.744661)"><g><path d="M 0.171875 -0.15625 C 0.171875 -0.195312 0.179688 -0.226562 0.203125 -0.25 C 0.222656 -0.28125 0.257812 -0.296875 0.3125 -0.296875 L 0.375 -0.296875 C 0.40625 -0.660156 0.421875 -1.070312 0.421875 -1.53125 C 0.421875 -1.894531 0.421875 -2.1875 0.421875 -2.40625 L 0.375 -2.390625 C 0.34375 -2.390625 0.3125 -2.394531 0.28125 -2.40625 C 0.257812 -2.425781 0.25 -2.457031 0.25 -2.5 C 0.25 -2.539062 0.265625 -2.578125 0.296875 -2.609375 C 0.328125 -2.640625 0.378906 -2.664062 0.453125 -2.6875 C 0.671875 -2.789062 0.914062 -2.84375 1.1875 -2.84375 C 1.394531 -2.84375 1.578125 -2.8125 1.734375 -2.75 C 1.898438 -2.6875 2.03125 -2.597656 2.125 -2.484375 C 2.21875 -2.367188 2.265625 -2.226562 2.265625 -2.0625 C 2.265625 -1.894531 2.195312 -1.753906 2.0625 -1.640625 C 1.925781 -1.523438 1.753906 -1.453125 1.546875 -1.421875 C 1.753906 -1.378906 1.921875 -1.296875 2.046875 -1.171875 C 2.171875 -1.046875 2.234375 -0.90625 2.234375 -0.75 C 2.234375 -0.582031 2.179688 -0.4375 2.078125 -0.3125 C 1.984375 -0.195312 1.851562 -0.113281 1.6875 -0.0625 C 1.519531 -0.0078125 1.335938 0.015625 1.140625 0.015625 L 0.859375 0 L 0.65625 -0.015625 C 0.632812 0.0546875 0.585938 0.09375 0.515625 0.09375 C 0.421875 0.09375 0.363281 0.0546875 0.34375 -0.015625 L 0.296875 -0.03125 C 0.210938 -0.03125 0.171875 -0.0703125 0.171875 -0.15625 Z M 0.671875 -0.28125 C 0.867188 -0.269531 1.019531 -0.265625 1.125 -0.265625 C 1.382812 -0.265625 1.582031 -0.300781 1.71875 -0.375 C 1.851562 -0.457031 1.921875 -0.582031 1.921875 -0.75 C 1.921875 -0.9375 1.84375 -1.066406 1.6875 -1.140625 C 1.53125 -1.222656 1.3125 -1.269531 1.03125 -1.28125 C 0.976562 -1.28125 0.929688 -1.289062 0.890625 -1.3125 C 0.859375 -1.332031 0.84375 -1.367188 0.84375 -1.421875 C 0.84375 -1.484375 0.859375 -1.519531 0.890625 -1.53125 C 0.929688 -1.550781 0.976562 -1.5625 1.03125 -1.5625 C 1.207031 -1.582031 1.359375 -1.601562 1.484375 -1.625 C 1.609375 -1.644531 1.71875 -1.6875 1.8125 -1.75 C 1.90625 -1.820312 1.953125 -1.925781 1.953125 -2.0625 C 1.953125 -2.226562 1.882812 -2.351562 1.75 -2.4375 C 1.613281 -2.519531 1.425781 -2.5625 1.1875 -2.5625 C 1.125 -2.5625 1.046875 -2.554688 0.953125 -2.546875 C 0.867188 -2.535156 0.796875 -2.523438 0.734375 -2.515625 C 0.734375 -2.265625 0.734375 -1.9375 0.734375 -1.53125 C 0.734375 -1.113281 0.710938 -0.695312 0.671875 -0.28125 Z M 0.671875 -0.28125 "/></g></g></g><g fill="#8c8164" fill-opacity="1"><g transform="translate(78.310512, 18.744661)"><g><path d="M 1.84375 -0.4375 C 1.84375 -0.382812 1.847656 -0.34375 1.859375 -0.3125 C 1.867188 -0.28125 1.882812 -0.25 1.90625 -0.21875 C 1.925781 -0.1875 1.9375 -0.164062 1.9375 -0.15625 C 1.9375 -0.125 1.921875 -0.09375 1.890625 -0.0625 C 1.859375 -0.0390625 1.832031 -0.03125 1.8125 -0.03125 C 1.757812 -0.03125 1.710938 -0.0625 1.671875 -0.125 C 1.628906 -0.195312 1.609375 -0.265625 1.609375 -0.328125 L 1.609375 -0.375 C 1.546875 -0.25 1.457031 -0.15625 1.34375 -0.09375 C 1.226562 -0.03125 1.09375 0 0.9375 0 C 0.71875 0 0.550781 -0.078125 0.4375 -0.234375 C 0.320312 -0.390625 0.265625 -0.613281 0.265625 -0.90625 L 0.265625 -1.90625 C 0.265625 -1.9375 0.273438 -1.960938 0.296875 -1.984375 C 0.328125 -2.003906 0.363281 -2.015625 0.40625 -2.015625 C 0.457031 -2.015625 0.492188 -2.003906 0.515625 -1.984375 C 0.546875 -1.960938 0.5625 -1.9375 0.5625 -1.90625 L 0.5625 -0.90625 C 0.5625 -0.675781 0.59375 -0.507812 0.65625 -0.40625 C 0.726562 -0.300781 0.832031 -0.25 0.96875 -0.25 C 1.332031 -0.25 1.515625 -0.578125 1.515625 -1.234375 L 1.515625 -1.90625 C 1.515625 -1.945312 1.523438 -1.976562 1.546875 -2 C 1.578125 -2.03125 1.617188 -2.046875 1.671875 -2.046875 C 1.710938 -2.046875 1.75 -2.03125 1.78125 -2 C 1.8125 -1.976562 1.828125 -1.945312 1.828125 -1.90625 Z M 1.84375 -0.4375 "/></g></g></g><g fill="#8c8164" fill-opacity="1"><g transform="translate(80.503234, 18.744661)"><g><path d="M 1.296875 -2.03125 C 1.492188 -2.03125 1.664062 -1.988281 1.8125 -1.90625 C 1.96875 -1.820312 2.085938 -1.703125 2.171875 -1.546875 C 2.265625 -1.390625 2.3125 -1.207031 2.3125 -1 C 2.3125 -0.769531 2.257812 -0.578125 2.15625 -0.421875 C 2.0625 -0.273438 1.9375 -0.164062 1.78125 -0.09375 C 1.625 -0.0195312 1.460938 0.015625 1.296875 0.015625 C 1.179688 0.015625 1.070312 0 0.96875 -0.03125 C 0.863281 -0.0703125 0.773438 -0.117188 0.703125 -0.171875 C 0.628906 -0.222656 0.578125 -0.273438 0.546875 -0.328125 C 0.535156 -0.265625 0.503906 -0.207031 0.453125 -0.15625 C 0.410156 -0.101562 0.367188 -0.0703125 0.328125 -0.0625 C 0.304688 -0.0507812 0.285156 -0.046875 0.265625 -0.046875 C 0.222656 -0.046875 0.1875 -0.0546875 0.15625 -0.078125 C 0.132812 -0.109375 0.125 -0.140625 0.125 -0.171875 C 0.125 -0.203125 0.140625 -0.234375 0.171875 -0.265625 C 0.171875 -0.265625 0.179688 -0.269531 0.203125 -0.28125 C 0.222656 -0.300781 0.238281 -0.320312 0.25 -0.34375 C 0.269531 -0.363281 0.285156 -0.382812 0.296875 -0.40625 C 0.304688 -0.457031 0.3125 -0.535156 0.3125 -0.640625 L 0.3125 -0.953125 L 0.296875 -1.546875 L 0.296875 -2.09375 C 0.285156 -2.625 0.269531 -3.050781 0.25 -3.375 C 0.25 -3.40625 0.265625 -3.429688 0.296875 -3.453125 C 0.328125 -3.484375 0.363281 -3.5 0.40625 -3.5 C 0.445312 -3.5 0.484375 -3.488281 0.515625 -3.46875 C 0.546875 -3.445312 0.5625 -3.414062 0.5625 -3.375 C 0.570312 -3.144531 0.578125 -2.925781 0.578125 -2.71875 C 0.585938 -2.519531 0.597656 -2.3125 0.609375 -2.09375 C 0.609375 -1.945312 0.609375 -1.832031 0.609375 -1.75 C 0.671875 -1.832031 0.757812 -1.898438 0.875 -1.953125 C 1 -2.003906 1.140625 -2.03125 1.296875 -2.03125 Z M 1.296875 -0.234375 C 1.410156 -0.234375 1.519531 -0.257812 1.625 -0.3125 C 1.738281 -0.363281 1.828125 -0.445312 1.890625 -0.5625 C 1.960938 -0.675781 2 -0.820312 2 -1 C 2 -1.25 1.929688 -1.441406 1.796875 -1.578125 C 1.671875 -1.710938 1.5 -1.78125 1.28125 -1.78125 C 1.132812 -1.78125 1 -1.738281 0.875 -1.65625 C 0.757812 -1.582031 0.675781 -1.5 0.625 -1.40625 L 0.625 -1.109375 C 0.625 -0.953125 0.625 -0.820312 0.625 -0.71875 C 0.632812 -0.632812 0.671875 -0.554688 0.734375 -0.484375 C 0.796875 -0.410156 0.875 -0.347656 0.96875 -0.296875 C 1.070312 -0.253906 1.179688 -0.234375 1.296875 -0.234375 Z M 1.296875 -0.234375 "/></g></g></g><g fill="#8c8164" fill-opacity="1"><g transform="translate(83.056732, 18.744661)"><g><path d="M 1.296875 -2.03125 C 1.492188 -2.03125 1.664062 -1.988281 1.8125 -1.90625 C 1.96875 -1.820312 2.085938 -1.703125 2.171875 -1.546875 C 2.265625 -1.390625 2.3125 -1.207031 2.3125 -1 C 2.3125 -0.769531 2.257812 -0.578125 2.15625 -0.421875 C 2.0625 -0.273438 1.9375 -0.164062 1.78125 -0.09375 C 1.625 -0.0195312 1.460938 0.015625 1.296875 0.015625 C 1.179688 0.015625 1.070312 0 0.96875 -0.03125 C 0.863281 -0.0703125 0.773438 -0.117188 0.703125 -0.171875 C 0.628906 -0.222656 0.578125 -0.273438 0.546875 -0.328125 C 0.535156 -0.265625 0.503906 -0.207031 0.453125 -0.15625 C 0.410156 -0.101562 0.367188 -0.0703125 0.328125 -0.0625 C 0.304688 -0.0507812 0.285156 -0.046875 0.265625 -0.046875 C 0.222656 -0.046875 0.1875 -0.0546875 0.15625 -0.078125 C 0.132812 -0.109375 0.125 -0.140625 0.125 -0.171875 C 0.125 -0.203125 0.140625 -0.234375 0.171875 -0.265625 C 0.171875 -0.265625 0.179688 -0.269531 0.203125 -0.28125 C 0.222656 -0.300781 0.238281 -0.320312 0.25 -0.34375 C 0.269531 -0.363281 0.285156 -0.382812 0.296875 -0.40625 C 0.304688 -0.457031 0.3125 -0.535156 0.3125 -0.640625 L 0.3125 -0.953125 L 0.296875 -1.546875 L 0.296875 -2.09375 C 0.285156 -2.625 0.269531 -3.050781 0.25 -3.375 C 0.25 -3.40625 0.265625 -3.429688 0.296875 -3.453125 C 0.328125 -3.484375 0.363281 -3.5 0.40625 -3.5 C 0.445312 -3.5 0.484375 -3.488281 0.515625 -3.46875 C 0.546875 -3.445312 0.5625 -3.414062 0.5625 -3.375 C 0.570312 -3.144531 0.578125 -2.925781 0.578125 -2.71875 C 0.585938 -2.519531 0.597656 -2.3125 0.609375 -2.09375 C 0.609375 -1.945312 0.609375 -1.832031 0.609375 -1.75 C 0.671875 -1.832031 0.757812 -1.898438 0.875 -1.953125 C 1 -2.003906 1.140625 -2.03125 1.296875 -2.03125 Z M 1.296875 -0.234375 C 1.410156 -0.234375 1.519531 -0.257812 1.625 -0.3125 C 1.738281 -0.363281 1.828125 -0.445312 1.890625 -0.5625 C 1.960938 -0.675781 2 -0.820312 2 -1 C 2 -1.25 1.929688 -1.441406 1.796875 -1.578125 C 1.671875 -1.710938 1.5 -1.78125 1.28125 -1.78125 C 1.132812 -1.78125 1 -1.738281 0.875 -1.65625 C 0.757812 -1.582031 0.675781 -1.5 0.625 -1.40625 L 0.625 -1.109375 C 0.625 -0.953125 0.625 -0.820312 0.625 -0.71875 C 0.632812 -0.632812 0.671875 -0.554688 0.734375 -0.484375 C 0.796875 -0.410156 0.875 -0.347656 0.96875 -0.296875 C 1.070312 -0.253906 1.179688 -0.234375 1.296875 -0.234375 Z M 1.296875 -0.234375 "/></g></g></g><g fill="#8c8164" fill-opacity="1"><g transform="translate(85.610231, 18.744661)"><g><path d="M 0.84375 1.046875 C 0.800781 1.046875 0.765625 1.03125 0.734375 1 C 0.703125 0.96875 0.6875 0.929688 0.6875 0.890625 C 0.6875 0.878906 0.691406 0.863281 0.703125 0.84375 C 0.847656 0.476562 0.972656 0.144531 1.078125 -0.15625 C 0.972656 -0.21875 0.859375 -0.34375 0.734375 -0.53125 C 0.609375 -0.726562 0.492188 -0.945312 0.390625 -1.1875 C 0.296875 -1.4375 0.222656 -1.664062 0.171875 -1.875 C 0.160156 -1.882812 0.15625 -1.898438 0.15625 -1.921875 C 0.15625 -1.953125 0.164062 -1.976562 0.1875 -2 C 0.21875 -2.03125 0.257812 -2.046875 0.3125 -2.046875 C 0.351562 -2.046875 0.378906 -2.035156 0.390625 -2.015625 C 0.410156 -1.992188 0.425781 -1.96875 0.4375 -1.9375 C 0.707031 -1.09375 0.957031 -0.597656 1.1875 -0.453125 C 1.34375 -1.023438 1.476562 -1.523438 1.59375 -1.953125 C 1.601562 -1.984375 1.613281 -2.003906 1.625 -2.015625 C 1.644531 -2.035156 1.675781 -2.046875 1.71875 -2.046875 C 1.820312 -2.046875 1.878906 -2.007812 1.890625 -1.9375 C 1.898438 -1.925781 1.898438 -1.910156 1.890625 -1.890625 C 1.796875 -1.515625 1.71875 -1.222656 1.65625 -1.015625 C 1.601562 -0.804688 1.535156 -0.578125 1.453125 -0.328125 C 1.390625 -0.148438 1.3125 0.0625 1.21875 0.3125 C 1.125 0.570312 1.046875 0.78125 0.984375 0.9375 C 0.972656 0.96875 0.957031 0.992188 0.9375 1.015625 C 0.914062 1.035156 0.882812 1.046875 0.84375 1.046875 Z M 0.84375 1.046875 "/></g></g></g><g fill="#8c8164" fill-opacity="1"><g transform="translate(78.74086, 21.660016)"><g><path d="M 0.40625 -0.953125 C 0.476562 -0.953125 0.539062 -0.9375 0.59375 -0.90625 C 0.65625 -0.882812 0.703125 -0.847656 0.734375 -0.796875 C 0.773438 -0.753906 0.796875 -0.703125 0.796875 -0.640625 C 0.796875 -0.585938 0.78125 -0.535156 0.75 -0.484375 C 0.71875 -0.441406 0.671875 -0.410156 0.609375 -0.390625 C 0.554688 -0.367188 0.5 -0.359375 0.4375 -0.359375 C 0.351562 -0.359375 0.285156 -0.367188 0.234375 -0.390625 L 0.234375 -0.046875 C 0.234375 -0.0234375 0.226562 -0.0078125 0.21875 0 C 0.207031 0.0078125 0.191406 0.015625 0.171875 0.015625 C 0.160156 0.015625 0.148438 0.0078125 0.140625 0 C 0.128906 -0.0078125 0.125 -0.0234375 0.125 -0.046875 C 0.125 -0.0859375 0.125 -0.144531 0.125 -0.21875 C 0.125 -0.3125 0.125 -0.382812 0.125 -0.4375 C 0.125 -0.53125 0.125 -0.628906 0.125 -0.734375 C 0.125 -0.742188 0.125 -0.753906 0.125 -0.765625 C 0.113281 -0.753906 0.101562 -0.75 0.09375 -0.75 C 0.0820312 -0.75 0.0703125 -0.753906 0.0625 -0.765625 C 0.0507812 -0.785156 0.046875 -0.800781 0.046875 -0.8125 C 0.046875 -0.820312 0.0507812 -0.832031 0.0625 -0.84375 C 0.0703125 -0.851562 0.0820312 -0.859375 0.09375 -0.859375 L 0.125 -0.875 L 0.125 -0.90625 C 0.125 -0.925781 0.125 -0.9375 0.125 -0.9375 C 0.132812 -0.945312 0.148438 -0.953125 0.171875 -0.953125 C 0.191406 -0.953125 0.207031 -0.945312 0.21875 -0.9375 C 0.226562 -0.9375 0.234375 -0.9375 0.234375 -0.9375 L 0.234375 -0.921875 C 0.285156 -0.941406 0.34375 -0.953125 0.40625 -0.953125 Z M 0.40625 -0.453125 C 0.457031 -0.453125 0.503906 -0.457031 0.546875 -0.46875 C 0.585938 -0.488281 0.617188 -0.515625 0.640625 -0.546875 C 0.660156 -0.578125 0.671875 -0.613281 0.671875 -0.65625 C 0.671875 -0.695312 0.65625 -0.734375 0.625 -0.765625 C 0.601562 -0.796875 0.570312 -0.816406 0.53125 -0.828125 C 0.5 -0.847656 0.457031 -0.859375 0.40625 -0.859375 C 0.351562 -0.859375 0.296875 -0.84375 0.234375 -0.8125 C 0.234375 -0.75 0.234375 -0.707031 0.234375 -0.6875 C 0.234375 -0.664062 0.234375 -0.632812 0.234375 -0.59375 C 0.234375 -0.539062 0.234375 -0.503906 0.234375 -0.484375 C 0.285156 -0.460938 0.34375 -0.453125 0.40625 -0.453125 Z M 0.40625 -0.453125 "/></g></g></g><g fill="#8c8164" fill-opacity="1"><g transform="translate(79.570678, 21.660016)"><g><path d="M 0.4375 0 C 0.363281 0 0.296875 -0.015625 0.234375 -0.046875 C 0.179688 -0.078125 0.140625 -0.117188 0.109375 -0.171875 C 0.0859375 -0.222656 0.078125 -0.28125 0.078125 -0.34375 C 0.078125 -0.40625 0.09375 -0.460938 0.125 -0.515625 C 0.15625 -0.578125 0.195312 -0.625 0.25 -0.65625 C 0.300781 -0.6875 0.363281 -0.703125 0.4375 -0.703125 C 0.488281 -0.703125 0.539062 -0.6875 0.59375 -0.65625 C 0.644531 -0.632812 0.679688 -0.597656 0.703125 -0.546875 C 0.734375 -0.503906 0.75 -0.457031 0.75 -0.40625 C 0.75 -0.375 0.742188 -0.351562 0.734375 -0.34375 C 0.734375 -0.332031 0.71875 -0.328125 0.6875 -0.328125 L 0.171875 -0.3125 C 0.171875 -0.28125 0.179688 -0.242188 0.203125 -0.203125 C 0.222656 -0.171875 0.253906 -0.140625 0.296875 -0.109375 C 0.335938 -0.0859375 0.382812 -0.078125 0.4375 -0.078125 C 0.46875 -0.078125 0.492188 -0.0820312 0.515625 -0.09375 C 0.546875 -0.101562 0.566406 -0.113281 0.578125 -0.125 C 0.597656 -0.144531 0.625 -0.171875 0.65625 -0.203125 C 0.65625 -0.210938 0.660156 -0.21875 0.671875 -0.21875 C 0.691406 -0.21875 0.707031 -0.210938 0.71875 -0.203125 C 0.726562 -0.191406 0.734375 -0.179688 0.734375 -0.171875 C 0.734375 -0.160156 0.726562 -0.148438 0.71875 -0.140625 C 0.6875 -0.0976562 0.648438 -0.0625 0.609375 -0.03125 C 0.566406 -0.0078125 0.507812 0 0.4375 0 Z M 0.65625 -0.40625 C 0.65625 -0.40625 0.65625 -0.410156 0.65625 -0.421875 C 0.65625 -0.484375 0.632812 -0.53125 0.59375 -0.5625 C 0.550781 -0.59375 0.5 -0.609375 0.4375 -0.609375 C 0.382812 -0.609375 0.335938 -0.59375 0.296875 -0.5625 C 0.253906 -0.539062 0.222656 -0.515625 0.203125 -0.484375 C 0.179688 -0.453125 0.171875 -0.421875 0.171875 -0.390625 Z M 0.65625 -0.40625 "/></g></g></g><g fill="#8c8164" fill-opacity="1"><g transform="translate(80.411361, 21.660016)"><g><path d="M 0.484375 -0.21875 C 0.503906 -0.21875 0.515625 -0.210938 0.515625 -0.203125 C 0.523438 -0.203125 0.53125 -0.191406 0.53125 -0.171875 C 0.53125 -0.117188 0.515625 -0.078125 0.484375 -0.046875 C 0.453125 -0.015625 0.410156 0 0.359375 0 C 0.296875 0 0.25 -0.0234375 0.21875 -0.078125 C 0.1875 -0.140625 0.171875 -0.238281 0.171875 -0.375 C 0.171875 -0.414062 0.171875 -0.46875 0.171875 -0.53125 C 0.160156 -0.53125 0.132812 -0.53125 0.09375 -0.53125 C 0.0625 -0.539062 0.046875 -0.554688 0.046875 -0.578125 C 0.046875 -0.609375 0.0625 -0.625 0.09375 -0.625 C 0.101562 -0.625 0.117188 -0.625 0.140625 -0.625 C 0.160156 -0.625 0.175781 -0.625 0.1875 -0.625 C 0.1875 -0.6875 0.195312 -0.769531 0.21875 -0.875 C 0.21875 -0.882812 0.222656 -0.890625 0.234375 -0.890625 C 0.242188 -0.898438 0.253906 -0.90625 0.265625 -0.90625 C 0.285156 -0.90625 0.300781 -0.898438 0.3125 -0.890625 C 0.320312 -0.890625 0.328125 -0.878906 0.328125 -0.859375 L 0.3125 -0.8125 C 0.300781 -0.707031 0.296875 -0.640625 0.296875 -0.609375 L 0.390625 -0.609375 C 0.410156 -0.609375 0.421875 -0.601562 0.421875 -0.59375 C 0.429688 -0.59375 0.4375 -0.585938 0.4375 -0.578125 C 0.4375 -0.554688 0.429688 -0.539062 0.421875 -0.53125 C 0.421875 -0.53125 0.410156 -0.53125 0.390625 -0.53125 C 0.359375 -0.53125 0.320312 -0.53125 0.28125 -0.53125 C 0.28125 -0.46875 0.28125 -0.414062 0.28125 -0.375 C 0.28125 -0.28125 0.285156 -0.207031 0.296875 -0.15625 C 0.304688 -0.113281 0.332031 -0.09375 0.375 -0.09375 C 0.394531 -0.09375 0.410156 -0.0976562 0.421875 -0.109375 C 0.429688 -0.128906 0.4375 -0.148438 0.4375 -0.171875 C 0.4375 -0.191406 0.4375 -0.203125 0.4375 -0.203125 C 0.445312 -0.210938 0.460938 -0.21875 0.484375 -0.21875 Z M 0.484375 -0.21875 "/></g></g></g><g fill="#8c8164" fill-opacity="1"><g transform="translate(81.008938, 21.660016)"><g/></g></g><g fill="#8c8164" fill-opacity="1"><g transform="translate(81.44354, 21.660016)"><g><path d="M 0.875 -0.390625 C 0.90625 -0.390625 0.921875 -0.367188 0.921875 -0.328125 C 0.921875 -0.265625 0.90625 -0.207031 0.875 -0.15625 C 0.84375 -0.113281 0.796875 -0.078125 0.734375 -0.046875 C 0.671875 -0.015625 0.597656 0 0.515625 0 C 0.441406 0 0.367188 -0.015625 0.296875 -0.046875 C 0.222656 -0.078125 0.164062 -0.125 0.125 -0.1875 C 0.0820312 -0.257812 0.0625 -0.347656 0.0625 -0.453125 C 0.0625 -0.554688 0.0820312 -0.644531 0.125 -0.71875 C 0.164062 -0.800781 0.21875 -0.863281 0.28125 -0.90625 C 0.351562 -0.945312 0.429688 -0.96875 0.515625 -0.96875 C 0.566406 -0.96875 0.613281 -0.957031 0.65625 -0.9375 C 0.707031 -0.914062 0.75 -0.882812 0.78125 -0.84375 L 0.78125 -0.921875 C 0.78125 -0.929688 0.78125 -0.941406 0.78125 -0.953125 C 0.789062 -0.960938 0.804688 -0.96875 0.828125 -0.96875 C 0.859375 -0.96875 0.875 -0.945312 0.875 -0.90625 L 0.875 -0.765625 C 0.875 -0.722656 0.859375 -0.703125 0.828125 -0.703125 C 0.816406 -0.703125 0.804688 -0.703125 0.796875 -0.703125 C 0.785156 -0.710938 0.773438 -0.722656 0.765625 -0.734375 C 0.703125 -0.828125 0.617188 -0.875 0.515625 -0.875 C 0.453125 -0.875 0.394531 -0.851562 0.34375 -0.8125 C 0.289062 -0.78125 0.25 -0.734375 0.21875 -0.671875 C 0.1875 -0.609375 0.171875 -0.535156 0.171875 -0.453125 C 0.171875 -0.367188 0.1875 -0.300781 0.21875 -0.25 C 0.257812 -0.195312 0.304688 -0.15625 0.359375 -0.125 C 0.410156 -0.101562 0.46875 -0.09375 0.53125 -0.09375 C 0.570312 -0.09375 0.613281 -0.0976562 0.65625 -0.109375 C 0.707031 -0.128906 0.742188 -0.15625 0.765625 -0.1875 C 0.796875 -0.226562 0.8125 -0.273438 0.8125 -0.328125 C 0.8125 -0.347656 0.816406 -0.363281 0.828125 -0.375 C 0.835938 -0.382812 0.851562 -0.390625 0.875 -0.390625 Z M 0.875 -0.390625 "/></g></g></g><g fill="#8c8164" fill-opacity="1"><g transform="translate(82.413246, 21.660016)"><g><path d="M 0.734375 -0.09375 C 0.742188 -0.0820312 0.75 -0.0703125 0.75 -0.0625 C 0.757812 -0.0625 0.765625 -0.0546875 0.765625 -0.046875 C 0.765625 -0.0351562 0.757812 -0.0234375 0.75 -0.015625 C 0.75 -0.00390625 0.742188 0 0.734375 0 C 0.691406 0 0.660156 -0.00390625 0.640625 -0.015625 C 0.628906 -0.0234375 0.613281 -0.0507812 0.59375 -0.09375 C 0.5625 -0.0195312 0.492188 0.015625 0.390625 0.015625 C 0.304688 0.015625 0.242188 0 0.203125 -0.03125 C 0.160156 -0.0625 0.128906 -0.101562 0.109375 -0.15625 C 0.0859375 -0.207031 0.078125 -0.265625 0.078125 -0.328125 C 0.078125 -0.378906 0.0859375 -0.429688 0.109375 -0.484375 C 0.140625 -0.546875 0.175781 -0.59375 0.21875 -0.625 C 0.269531 -0.65625 0.328125 -0.671875 0.390625 -0.671875 C 0.441406 -0.671875 0.484375 -0.660156 0.515625 -0.640625 C 0.546875 -0.617188 0.570312 -0.59375 0.59375 -0.5625 L 0.59375 -0.609375 C 0.59375 -0.640625 0.609375 -0.65625 0.640625 -0.65625 C 0.660156 -0.65625 0.675781 -0.648438 0.6875 -0.640625 C 0.695312 -0.640625 0.703125 -0.632812 0.703125 -0.625 L 0.6875 -0.578125 C 0.6875 -0.546875 0.679688 -0.507812 0.671875 -0.46875 C 0.671875 -0.4375 0.671875 -0.390625 0.671875 -0.328125 L 0.671875 -0.234375 C 0.671875 -0.191406 0.671875 -0.160156 0.671875 -0.140625 C 0.679688 -0.128906 0.6875 -0.117188 0.6875 -0.109375 C 0.695312 -0.0976562 0.710938 -0.09375 0.734375 -0.09375 Z M 0.578125 -0.234375 C 0.578125 -0.273438 0.578125 -0.332031 0.578125 -0.40625 C 0.578125 -0.445312 0.566406 -0.476562 0.546875 -0.5 C 0.523438 -0.53125 0.5 -0.550781 0.46875 -0.5625 C 0.445312 -0.570312 0.421875 -0.578125 0.390625 -0.578125 C 0.347656 -0.578125 0.3125 -0.5625 0.28125 -0.53125 C 0.25 -0.507812 0.222656 -0.476562 0.203125 -0.4375 C 0.191406 -0.394531 0.1875 -0.359375 0.1875 -0.328125 C 0.1875 -0.253906 0.203125 -0.191406 0.234375 -0.140625 C 0.265625 -0.0976562 0.316406 -0.078125 0.390625 -0.078125 C 0.441406 -0.078125 0.484375 -0.0859375 0.515625 -0.109375 C 0.546875 -0.140625 0.566406 -0.179688 0.578125 -0.234375 Z M 0.578125 -0.234375 "/></g></g></g><g fill="#8c8164" fill-opacity="1"><g transform="translate(83.259361, 21.660016)"><g><path d="M 0.421875 -0.703125 C 0.472656 -0.703125 0.515625 -0.679688 0.546875 -0.640625 C 0.578125 -0.609375 0.59375 -0.566406 0.59375 -0.515625 C 0.59375 -0.460938 0.578125 -0.421875 0.546875 -0.390625 C 0.523438 -0.359375 0.488281 -0.34375 0.4375 -0.34375 C 0.414062 -0.34375 0.398438 -0.34375 0.390625 -0.34375 C 0.390625 -0.351562 0.390625 -0.367188 0.390625 -0.390625 C 0.390625 -0.410156 0.398438 -0.421875 0.421875 -0.421875 C 0.484375 -0.429688 0.515625 -0.460938 0.515625 -0.515625 C 0.515625 -0.535156 0.503906 -0.554688 0.484375 -0.578125 C 0.472656 -0.597656 0.453125 -0.609375 0.421875 -0.609375 C 0.378906 -0.609375 0.34375 -0.59375 0.3125 -0.5625 C 0.289062 -0.53125 0.269531 -0.492188 0.25 -0.453125 C 0.238281 -0.410156 0.234375 -0.363281 0.234375 -0.3125 C 0.222656 -0.226562 0.21875 -0.148438 0.21875 -0.078125 C 0.21875 -0.046875 0.210938 -0.0195312 0.203125 0 C 0.203125 0.0078125 0.191406 0.015625 0.171875 0.015625 C 0.148438 0.015625 0.132812 0.0078125 0.125 0 C 0.125 -0.0078125 0.125 -0.0234375 0.125 -0.046875 L 0.109375 -0.3125 C 0.109375 -0.375 0.109375 -0.453125 0.109375 -0.546875 C 0.0976562 -0.609375 0.09375 -0.648438 0.09375 -0.671875 C 0.09375 -0.679688 0.0976562 -0.691406 0.109375 -0.703125 C 0.117188 -0.710938 0.128906 -0.71875 0.140625 -0.71875 C 0.171875 -0.71875 0.1875 -0.703125 0.1875 -0.671875 C 0.195312 -0.617188 0.203125 -0.566406 0.203125 -0.515625 C 0.210938 -0.566406 0.234375 -0.609375 0.265625 -0.640625 C 0.304688 -0.679688 0.359375 -0.703125 0.421875 -0.703125 Z M 0.421875 -0.703125 "/></g></g></g><g fill="#8c8164" fill-opacity="1"><g transform="translate(83.941143, 21.660016)"><g><path d="M 0.4375 0 C 0.363281 0 0.296875 -0.015625 0.234375 -0.046875 C 0.179688 -0.078125 0.140625 -0.117188 0.109375 -0.171875 C 0.0859375 -0.222656 0.078125 -0.28125 0.078125 -0.34375 C 0.078125 -0.40625 0.09375 -0.460938 0.125 -0.515625 C 0.15625 -0.578125 0.195312 -0.625 0.25 -0.65625 C 0.300781 -0.6875 0.363281 -0.703125 0.4375 -0.703125 C 0.488281 -0.703125 0.539062 -0.6875 0.59375 -0.65625 C 0.644531 -0.632812 0.679688 -0.597656 0.703125 -0.546875 C 0.734375 -0.503906 0.75 -0.457031 0.75 -0.40625 C 0.75 -0.375 0.742188 -0.351562 0.734375 -0.34375 C 0.734375 -0.332031 0.71875 -0.328125 0.6875 -0.328125 L 0.171875 -0.3125 C 0.171875 -0.28125 0.179688 -0.242188 0.203125 -0.203125 C 0.222656 -0.171875 0.253906 -0.140625 0.296875 -0.109375 C 0.335938 -0.0859375 0.382812 -0.078125 0.4375 -0.078125 C 0.46875 -0.078125 0.492188 -0.0820312 0.515625 -0.09375 C 0.546875 -0.101562 0.566406 -0.113281 0.578125 -0.125 C 0.597656 -0.144531 0.625 -0.171875 0.65625 -0.203125 C 0.65625 -0.210938 0.660156 -0.21875 0.671875 -0.21875 C 0.691406 -0.21875 0.707031 -0.210938 0.71875 -0.203125 C 0.726562 -0.191406 0.734375 -0.179688 0.734375 -0.171875 C 0.734375 -0.160156 0.726562 -0.148438 0.71875 -0.140625 C 0.6875 -0.0976562 0.648438 -0.0625 0.609375 -0.03125 C 0.566406 -0.0078125 0.507812 0 0.4375 0 Z M 0.65625 -0.40625 C 0.65625 -0.40625 0.65625 -0.410156 0.65625 -0.421875 C 0.65625 -0.484375 0.632812 -0.53125 0.59375 -0.5625 C 0.550781 -0.59375 0.5 -0.609375 0.4375 -0.609375 C 0.382812 -0.609375 0.335938 -0.59375 0.296875 -0.5625 C 0.253906 -0.539062 0.222656 -0.515625 0.203125 -0.484375 C 0.179688 -0.453125 0.171875 -0.421875 0.171875 -0.390625 Z M 0.65625 -0.40625 "/></g></g></g></svg>