<svg xmlns="http://www.w3.org/2000/svg" xmlns:xlink="http://www.w3.org/1999/xlink" width="100" zoomAndPan="magnify" viewBox="0 0 75 37.5" height="50" preserveAspectRatio="xMidYMid meet" version="1.0"><defs><g/><clipPath id="544d0452a2"><path d="M 14.746094 6.554688 L 23.613281 6.554688 L 23.613281 13.164062 L 14.746094 13.164062 Z M 14.746094 6.554688 " clip-rule="nonzero"/></clipPath><clipPath id="1ea3285a70"><path d="M 11.386719 5 L 15 5 L 15 9 L 11.386719 9 Z M 11.386719 5 " clip-rule="nonzero"/></clipPath><clipPath id="75b868464b"><path d="M 14 1.320312 L 18 1.320312 L 18 7 L 14 7 Z M 14 1.320312 " clip-rule="nonzero"/></clipPath><clipPath id="c96671ba26"><path d="M 19 1.320312 L 23 1.320312 L 23 6 L 19 6 Z M 19 1.320312 " clip-rule="nonzero"/></clipPath><clipPath id="70a6fd9b18"><path d="M 22 5 L 26.1875 5 L 26.1875 9 L 22 9 Z M 22 5 " clip-rule="nonzero"/></clipPath></defs><g clip-path="url(#544d0452a2)"><path fill="#5e17eb" d="M 16.699219 8.882812 C 15.992188 9.59375 14.464844 9.96875 14.8125 11.820312 C 15.167969 13.707031 17.78125 13.222656 19.148438 13.179688 C 19.871094 13.15625 22.855469 13.714844 23.441406 12.214844 C 23.957031 10.90625 23.109375 10.027344 21.820312 8.996094 C 20.671875 8.074219 20.347656 6.542969 19.015625 6.554688 C 17.769531 6.566406 17.132812 8.445312 16.699219 8.882812 " fill-opacity="1" fill-rule="nonzero"/></g><g clip-path="url(#1ea3285a70)"><path fill="#5e17eb" d="M 14.28125 6.070312 C 15.011719 6.894531 15.152344 7.9375 14.589844 8.402344 C 14.03125 8.863281 12.988281 8.574219 12.257812 7.75 C 11.527344 6.925781 11.386719 5.882812 11.945312 5.417969 C 12.507812 4.957031 13.550781 5.246094 14.28125 6.070312 " fill-opacity="1" fill-rule="nonzero"/></g><g clip-path="url(#75b868464b)"><path fill="#5e17eb" d="M 17.84375 3.476562 C 18.191406 4.660156 17.863281 5.789062 17.109375 6 C 16.351562 6.210938 15.453125 5.417969 15.105469 4.234375 C 14.753906 3.050781 15.082031 1.917969 15.839844 1.710938 C 16.59375 1.5 17.492188 2.292969 17.84375 3.476562 " fill-opacity="1" fill-rule="nonzero"/></g><g clip-path="url(#c96671ba26)"><path fill="#5e17eb" d="M 22.417969 3.988281 C 22.066406 5.148438 21.1875 5.925781 20.453125 5.722656 C 19.71875 5.519531 19.40625 4.417969 19.757812 3.257812 C 20.109375 2.097656 20.988281 1.320312 21.722656 1.519531 C 22.457031 1.722656 22.769531 2.828125 22.417969 3.988281 " fill-opacity="1" fill-rule="nonzero"/></g><g clip-path="url(#70a6fd9b18)"><path fill="#5e17eb" d="M 25.589844 7.710938 C 24.824219 8.597656 23.71875 8.925781 23.121094 8.445312 C 22.527344 7.960938 22.667969 6.851562 23.433594 5.964844 C 24.203125 5.078125 25.308594 4.75 25.902344 5.230469 C 26.496094 5.714844 26.359375 6.820312 25.589844 7.710938 " fill-opacity="1" fill-rule="nonzero"/></g><g fill="#5e17eb" fill-opacity="1"><g transform="translate(28.798947, 12.166035)"><g><path d="M 1.945312 -4.644531 C 1.878906 -4.644531 0.09375 -4.738281 0.09375 -3.195312 C 0.09375 -2.226562 0.792969 -1.671875 1.734375 -1.671875 L 2.066406 -1.671875 C 2.25 -1.671875 2.402344 -1.5625 2.402344 -1.378906 C 2.402344 -1.199219 2.25 -1.074219 2.09375 -1.074219 C 2.007812 -1.074219 1.855469 -1.101562 1.800781 -1.324219 C 1.785156 -1.367188 1.761719 -1.394531 1.679688 -1.378906 L 0.1875 -1.199219 C 0.105469 -1.183594 0.0898438 -1.128906 0.132812 -1.042969 C 0.359375 -0.410156 0.765625 0.199219 2.15625 0.199219 C 2.855469 0.199219 3.738281 -0.183594 3.738281 -1.40625 C 3.738281 -2.910156 2.410156 -2.800781 1.945312 -2.800781 C 1.800781 -2.800781 1.523438 -2.832031 1.523438 -3.101562 C 1.523438 -3.316406 1.707031 -3.410156 1.828125 -3.410156 C 1.917969 -3.410156 2.066406 -3.34375 2.121094 -3.195312 C 2.144531 -3.128906 2.195312 -3.101562 2.25 -3.101562 L 3.613281 -3.289062 C 3.671875 -3.296875 3.71875 -3.355469 3.699219 -3.441406 C 3.640625 -3.738281 3.371094 -4.644531 1.945312 -4.644531 Z M 1.945312 -4.644531 "/></g></g></g><g fill="#5e17eb" fill-opacity="1"><g transform="translate(32.632776, 12.166035)"><g><path d="M 1.90625 -4.511719 C 0.996094 -4.511719 0.09375 -3.777344 0.09375 -2.863281 L 0.09375 -1.59375 C 0.09375 -0.644531 0.996094 0.09375 1.90625 0.09375 C 2.839844 0.09375 3.71875 -0.644531 3.71875 -1.59375 L 3.71875 -2.863281 C 3.71875 -3.777344 2.839844 -4.511719 1.90625 -4.511719 Z M 2.277344 -1.648438 C 2.277344 -1.460938 2.105469 -1.292969 1.90625 -1.292969 C 1.699219 -1.292969 1.539062 -1.460938 1.539062 -1.648438 L 1.539062 -2.761719 C 1.539062 -2.960938 1.699219 -3.128906 1.90625 -3.128906 C 2.105469 -3.128906 2.277344 -2.960938 2.277344 -2.761719 Z M 2.277344 -1.648438 "/></g></g></g><g fill="#5e17eb" fill-opacity="1"><g transform="translate(36.44438, 12.166035)"><g><path d="M 2.757812 -1.5 L 1.671875 -1.5 L 1.671875 -3.996094 C 1.671875 -4.234375 1.460938 -4.445312 1.234375 -4.445312 L 0.589844 -4.445312 C 0.351562 -4.445312 0.183594 -4.234375 0.183594 -3.996094 L 0.183594 -0.367188 C 0.183594 -0.167969 0.3125 0 0.550781 0 L 2.757812 0 C 2.960938 0 3.128906 -0.167969 3.128906 -0.367188 L 3.128906 -1.113281 C 3.128906 -1.316406 2.960938 -1.5 2.757812 -1.5 Z M 2.757812 -1.5 "/></g></g></g><g fill="#5e17eb" fill-opacity="1"><g transform="translate(39.755919, 12.166035)"><g><path d="M 0.578125 0.00390625 L 1.265625 0.00390625 C 1.5 0.00390625 1.667969 -0.183594 1.667969 -0.394531 L 1.667969 -4.046875 C 1.667969 -4.277344 1.5 -4.445312 1.265625 -4.445312 L 0.578125 -4.445312 C 0.359375 -4.445312 0.183594 -4.277344 0.183594 -4.046875 L 0.183594 -0.394531 C 0.183594 -0.183594 0.359375 0.00390625 0.578125 0.00390625 Z M 0.578125 0.00390625 "/></g></g></g><g fill="#5e17eb" fill-opacity="1"><g transform="translate(41.606158, 12.166035)"><g><path d="M 2.078125 -4.441406 L 0.582031 -4.441406 C 0.351562 -4.441406 0.183594 -4.246094 0.183594 -4.039062 L 0.183594 -0.421875 C 0.183594 -0.222656 0.351562 -0.015625 0.582031 -0.015625 L 2.078125 -0.015625 C 2.949219 -0.015625 3.617188 -0.722656 3.617188 -1.5625 L 3.617188 -2.902344 C 3.617188 -3.738281 2.949219 -4.441406 2.078125 -4.441406 Z M 2.261719 -2.09375 C 2.261719 -1.863281 2.089844 -1.699219 1.863281 -1.699219 L 1.59375 -1.699219 C 1.554688 -1.699219 1.515625 -1.726562 1.515625 -1.792969 L 1.515625 -2.660156 C 1.515625 -2.734375 1.554688 -2.765625 1.59375 -2.765625 L 1.863281 -2.765625 C 2.089844 -2.765625 2.261719 -2.601562 2.261719 -2.363281 Z M 2.261719 -2.09375 "/></g></g></g><g fill="#5e17eb" fill-opacity="1"><g transform="translate(45.362199, 12.166035)"><g><path d="M 2.074219 -5.980469 C 2.089844 -6.007812 2.121094 -6.027344 2.152344 -6.027344 L 3.007812 -6.027344 C 3.089844 -6.027344 3.128906 -5.929688 3.074219 -5.867188 L 2.160156 -4.902344 C 2.144531 -4.882812 2.117188 -4.875 2.089844 -4.875 L 1.5625 -4.875 C 1.488281 -4.875 1.445312 -4.949219 1.484375 -5.011719 Z M 4.238281 -0.464844 L 3.296875 -4.0625 C 3.277344 -4.128906 3.261719 -4.230469 3.183594 -4.316406 C 3.101562 -4.402344 2.996094 -4.421875 2.917969 -4.421875 L 1.460938 -4.421875 C 1.378906 -4.421875 1.300781 -4.394531 1.246094 -4.351562 C 1.1875 -4.3125 1.128906 -4.246094 1.105469 -4.144531 L 0.105469 -0.472656 C 0.0625 -0.292969 0.144531 -0.105469 0.3125 -0.0351562 C 0.355469 -0.0117188 0.398438 -0.00390625 0.457031 -0.00390625 L 1.210938 -0.00390625 C 1.417969 -0.00390625 1.5 -0.132812 1.582031 -0.34375 L 1.746094 -0.777344 L 2.59375 -0.777344 L 2.761719 -0.34375 C 2.84375 -0.132812 2.929688 0 3.132812 0 L 3.890625 0 C 3.949219 0 4.011719 -0.015625 4.054688 -0.0429688 C 4.207031 -0.121094 4.277344 -0.300781 4.238281 -0.464844 Z M 2.433594 -2.0625 L 1.917969 -2.0625 C 1.863281 -2.0625 1.816406 -2.113281 1.84375 -2.167969 L 1.988281 -2.546875 L 2.101562 -2.832031 C 2.121094 -2.90625 2.222656 -2.90625 2.246094 -2.832031 L 2.363281 -2.546875 L 2.507812 -2.167969 C 2.523438 -2.113281 2.484375 -2.0625 2.433594 -2.0625 Z M 2.433594 -2.0625 "/></g></g></g><g fill="#5e17eb" fill-opacity="1"><g transform="translate(49.707204, 12.166035)"><g><path d="M 3.640625 -0.472656 L 3.296875 -1.824219 C 3.285156 -1.867188 3.273438 -1.902344 3.257812 -1.929688 C 3.5 -2.21875 3.65625 -2.574219 3.65625 -3.054688 C 3.65625 -3.90625 3.167969 -4.441406 2.5625 -4.441406 L 0.554688 -4.433594 C 0.339844 -4.433594 0.167969 -4.257812 0.167969 -3.941406 L 0.167969 -0.398438 C 0.167969 -0.195312 0.339844 -0.015625 0.554688 -0.015625 L 1.265625 -0.015625 C 1.378906 -0.015625 1.488281 -0.0625 1.5625 -0.148438 C 1.660156 -0.261719 1.65625 -0.324219 1.65625 -0.410156 L 1.65625 -1.339844 C 1.65625 -1.351562 1.660156 -1.371094 1.683594 -1.371094 C 1.707031 -1.371094 1.71875 -1.355469 1.71875 -1.34375 L 1.761719 -1.117188 L 1.90625 -0.4375 C 1.960938 -0.1875 2.207031 -0.015625 2.394531 -0.015625 L 3.296875 -0.015625 C 3.511719 -0.015625 3.695312 -0.210938 3.640625 -0.472656 Z M 2.160156 -2.910156 L 2.160156 -2.832031 C 2.160156 -2.65625 2.011719 -2.507812 1.832031 -2.507812 L 1.726562 -2.507812 C 1.683594 -2.507812 1.65625 -2.539062 1.65625 -2.578125 L 1.65625 -3.171875 C 1.65625 -3.210938 1.683594 -3.246094 1.726562 -3.246094 L 1.832031 -3.246094 C 2.011719 -3.246094 2.160156 -3.09375 2.160156 -2.910156 Z M 2.160156 -2.910156 "/></g></g></g><g fill="#5e17eb" fill-opacity="1"><g transform="translate(53.54659, 12.166035)"><g><path d="M 0.578125 0.00390625 L 1.265625 0.00390625 C 1.5 0.00390625 1.667969 -0.183594 1.667969 -0.394531 L 1.667969 -4.046875 C 1.667969 -4.277344 1.5 -4.445312 1.265625 -4.445312 L 0.578125 -4.445312 C 0.359375 -4.445312 0.183594 -4.277344 0.183594 -4.046875 L 0.183594 -0.394531 C 0.183594 -0.183594 0.359375 0.00390625 0.578125 0.00390625 Z M 0.578125 0.00390625 "/></g></g></g><g fill="#5e17eb" fill-opacity="1"><g transform="translate(55.396829, 12.166035)"><g><path d="M 4.238281 -0.464844 L 3.296875 -4.0625 C 3.277344 -4.128906 3.261719 -4.230469 3.183594 -4.316406 C 3.101562 -4.402344 2.996094 -4.421875 2.917969 -4.421875 L 1.460938 -4.421875 C 1.378906 -4.421875 1.300781 -4.394531 1.246094 -4.351562 C 1.1875 -4.3125 1.128906 -4.246094 1.105469 -4.144531 L 0.105469 -0.472656 C 0.0625 -0.292969 0.144531 -0.105469 0.3125 -0.0351562 C 0.355469 -0.0117188 0.398438 -0.00390625 0.457031 -0.00390625 L 1.210938 -0.00390625 C 1.417969 -0.00390625 1.5 -0.132812 1.582031 -0.34375 L 1.746094 -0.777344 L 2.59375 -0.777344 L 2.761719 -0.34375 C 2.84375 -0.132812 2.929688 0 3.132812 0 L 3.890625 0 C 3.949219 0 4.011719 -0.015625 4.054688 -0.0429688 C 4.207031 -0.121094 4.277344 -0.300781 4.238281 -0.464844 Z M 2.433594 -2.0625 L 1.917969 -2.0625 C 1.863281 -2.0625 1.816406 -2.113281 1.84375 -2.167969 L 1.988281 -2.546875 L 2.101562 -2.832031 C 2.121094 -2.90625 2.222656 -2.90625 2.246094 -2.832031 L 2.363281 -2.546875 L 2.507812 -2.167969 C 2.523438 -2.113281 2.484375 -2.0625 2.433594 -2.0625 Z M 2.433594 -2.0625 "/></g></g></g><g fill="#5e17eb" fill-opacity="1"><g transform="translate(59.741837, 12.166035)"><g><path d="M 1.945312 -4.644531 C 1.878906 -4.644531 0.09375 -4.738281 0.09375 -3.195312 C 0.09375 -2.226562 0.792969 -1.671875 1.734375 -1.671875 L 2.066406 -1.671875 C 2.25 -1.671875 2.402344 -1.5625 2.402344 -1.378906 C 2.402344 -1.199219 2.25 -1.074219 2.09375 -1.074219 C 2.007812 -1.074219 1.855469 -1.101562 1.800781 -1.324219 C 1.785156 -1.367188 1.761719 -1.394531 1.679688 -1.378906 L 0.1875 -1.199219 C 0.105469 -1.183594 0.0898438 -1.128906 0.132812 -1.042969 C 0.359375 -0.410156 0.765625 0.199219 2.15625 0.199219 C 2.855469 0.199219 3.738281 -0.183594 3.738281 -1.40625 C 3.738281 -2.910156 2.410156 -2.800781 1.945312 -2.800781 C 1.800781 -2.800781 1.523438 -2.832031 1.523438 -3.101562 C 1.523438 -3.316406 1.707031 -3.410156 1.828125 -3.410156 C 1.917969 -3.410156 2.066406 -3.34375 2.121094 -3.195312 C 2.144531 -3.128906 2.195312 -3.101562 2.25 -3.101562 L 3.613281 -3.289062 C 3.671875 -3.296875 3.71875 -3.355469 3.699219 -3.441406 C 3.640625 -3.738281 3.371094 -4.644531 1.945312 -4.644531 Z M 1.945312 -4.644531 "/></g></g></g><path stroke-linecap="butt" transform="matrix(0.0289955, 0, 0, 0.0289955, 26.501831, 7.590901)" fill="none" stroke-linejoin="miter" d="M 152.842889 -7.176568 C 150.552667 -7.176568 89.120807 -10.409824 89.120807 42.804177 C 89.120807 76.214486 113.235507 95.344583 145.568064 95.344583 L 157.153897 95.344583 C 163.48569 95.344583 168.605011 99.116714 168.605011 105.448507 C 168.605011 111.64558 163.48569 115.956588 158.09693 115.956588 C 154.998393 115.956588 149.879072 115.013555 147.858287 107.334573 C 147.319411 105.852664 146.511097 104.909631 143.681998 105.448507 L 92.354063 111.64558 C 89.524964 112.184456 88.851369 114.070522 90.333278 117.03434 C 98.281699 138.858816 112.292474 159.874979 160.117715 159.874979 C 184.232414 159.874979 214.813625 146.672518 214.813625 104.505474 C 214.813625 52.638663 169.009168 56.410795 152.842889 56.410795 C 147.858287 56.410795 138.293239 55.198324 138.293239 46.037432 C 138.293239 38.627888 144.625031 35.394632 148.936039 35.394632 C 151.899857 35.394632 157.153897 37.684855 159.039963 42.804177 C 159.848277 45.0944 161.464905 46.037432 163.48569 46.037432 L 210.367898 39.570921 C 212.523402 39.301483 214.005311 37.280698 213.466435 34.451599 C 211.310931 23.943518 202.15004 -7.176568 152.842889 -7.176568 Z M 283.789747 -2.596123 C 252.265504 -2.596123 221.280136 22.731047 221.280136 54.39001 L 221.280136 98.038962 C 221.280136 130.775677 252.265504 156.237566 283.789747 156.237566 C 315.987586 156.237566 346.16464 130.775677 346.16464 98.038962 L 346.16464 54.39001 C 346.16464 22.731047 315.987586 -2.596123 283.789747 -2.596123 Z M 296.588051 96.018178 C 296.588051 102.619408 290.660416 108.412325 283.789747 108.412325 C 276.649641 108.412325 271.126162 102.619408 271.126162 96.018178 L 271.126162 57.757985 C 271.126162 50.887316 276.649641 45.0944 283.789747 45.0944 C 290.660416 45.0944 296.588051 50.887316 296.588051 57.757985 Z M 444.509502 101.272218 L 407.192342 101.272218 L 407.192342 15.186784 C 407.192342 6.968925 399.917517 -0.3059 391.969096 -0.3059 L 369.740463 -0.3059 C 361.522605 -0.3059 355.864407 6.968925 355.864407 15.186784 L 355.864407 140.340725 C 355.864407 147.211394 360.175415 153.00431 368.527992 153.00431 L 444.509502 153.00431 C 451.649609 153.00431 457.442525 147.211394 457.442525 140.340725 L 457.442525 114.744117 C 457.442525 107.604011 451.649609 101.272218 444.509502 101.272218 Z M 483.578009 153.139029 L 507.42327 153.139029 C 515.50641 153.139029 521.164607 146.672518 521.164607 139.397692 L 521.164607 13.435437 C 521.164607 5.487017 515.50641 -0.3059 507.42327 -0.3059 L 483.578009 -0.3059 C 476.168465 -0.3059 469.971391 5.487017 469.971391 13.435437 L 469.971391 139.397692 C 469.971391 146.672518 476.168465 153.139029 483.578009 153.139029 Z M 599.166902 -0.171181 L 547.569529 -0.171181 C 539.621109 -0.171181 533.828192 6.564768 533.828192 13.704875 L 533.828192 138.454659 C 533.828192 145.325328 539.621109 152.465434 547.569529 152.465434 L 599.166902 152.465434 C 629.209237 152.465434 652.246184 128.081297 652.246184 99.116714 L 652.246184 52.908101 C 652.246184 23.943518 629.209237 -0.171181 599.166902 -0.171181 Z M 605.498695 80.794932 C 605.498695 88.743352 599.571059 94.40155 591.757358 94.40155 L 582.596467 94.40155 C 581.114558 94.40155 579.767368 93.458517 579.767368 91.033575 L 579.767368 61.260678 C 579.767368 58.701017 581.114558 57.488547 582.596467 57.488547 L 591.757358 57.488547 C 599.571059 57.488547 605.498695 63.281463 605.498695 71.499321 Z M 728.497132 -53.250463 C 729.036008 -54.193496 730.248479 -54.867091 731.191512 -54.867091 L 760.694971 -54.867091 C 763.52407 -54.867091 764.87126 -51.499116 762.985194 -49.343612 L 731.595669 -16.068022 C 731.056793 -15.394427 730.11376 -15.124989 729.036008 -15.124989 L 710.848945 -15.124989 C 708.424003 -15.124989 706.942094 -17.819369 708.289284 -19.840154 Z M 803.266172 136.838031 L 770.664176 12.896561 C 770.1253 10.606338 769.586424 7.103644 766.892044 4.139827 C 764.062946 1.176009 760.290814 0.502414 757.596434 0.502414 L 707.48097 0.502414 C 704.517152 0.502414 701.822772 1.445447 699.936707 2.927356 C 698.050641 4.274546 695.895137 6.564768 695.221542 10.067462 L 660.733481 136.703313 C 659.116853 142.900386 661.945952 149.366898 667.738868 151.791839 C 669.355496 152.600153 670.837405 152.869591 672.723471 152.869591 L 698.858955 152.869591 C 705.864342 152.869591 708.82816 148.423865 711.657259 141.149039 L 717.180737 126.195231 L 746.549477 126.195231 L 752.342394 141.149039 C 755.171492 148.423865 758.000591 153.00431 765.140698 153.00431 L 791.141463 153.00431 C 793.296966 153.00431 795.45247 152.465434 796.934379 151.522401 C 802.18842 148.828022 804.613362 142.630948 803.266172 136.838031 Z M 741.025998 81.872684 L 723.108373 81.872684 C 721.222307 81.872684 719.740398 80.256056 720.683431 78.235271 L 725.668034 65.167529 L 729.440165 55.198324 C 730.248479 52.773382 733.751173 52.773382 734.424768 55.198324 L 738.466338 65.167529 L 743.45094 78.235271 C 744.124535 80.256056 742.777345 81.872684 741.025998 81.872684 Z M 932.461683 136.703313 L 920.606412 90.225261 C 920.202255 88.608633 919.798098 87.396162 919.124503 86.453129 C 927.611799 76.483924 933.000559 64.224496 933.000559 47.65406 C 933.000559 18.285321 916.160685 -0.171181 895.279242 -0.171181 L 826.033681 0.098257 C 818.624137 0.098257 812.696501 6.160611 812.696501 17.07285 L 812.696501 139.262973 C 812.696501 146.268361 818.624137 152.465434 826.033681 152.465434 L 850.552537 152.465434 C 854.459388 152.465434 858.23152 150.848806 860.79118 147.75027 C 864.159155 143.978138 864.024436 141.822634 864.024436 138.858816 L 864.024436 106.795697 C 864.024436 106.39154 864.159155 105.717945 864.967469 105.717945 C 865.775783 105.717945 866.17994 106.256821 866.17994 106.660978 L 867.661849 114.474679 L 872.646451 137.781064 C 874.532517 146.537799 883.019814 152.465434 889.486325 152.465434 L 920.606412 152.465434 C 928.015956 152.465434 934.347749 145.729485 932.461683 136.703313 Z M 881.403186 52.638663 L 881.403186 55.198324 C 881.403186 61.395397 876.283864 66.649438 870.086791 66.649438 L 866.449378 66.649438 C 864.967469 66.649438 864.024436 65.436967 864.024436 64.089777 L 864.024436 43.612491 C 864.024436 42.265301 864.967469 41.05283 866.449378 41.05283 L 870.086791 41.05283 C 876.283864 41.05283 881.403186 46.30687 881.403186 52.638663 Z M 959.270762 153.139029 L 982.981304 153.139029 C 991.064443 153.139029 996.85736 146.672518 996.85736 139.397692 L 996.85736 13.435437 C 996.85736 5.487017 991.064443 -0.3059 982.981304 -0.3059 L 959.270762 -0.3059 C 951.726498 -0.3059 945.664144 5.487017 945.664144 13.435437 L 945.664144 139.397692 C 945.664144 146.672518 951.726498 153.139029 959.270762 153.139029 Z M 1149.359256 136.838031 L 1116.757261 12.896561 C 1116.218385 10.606338 1115.54479 7.103644 1112.985129 4.139827 C 1110.021311 1.176009 1106.383899 0.502414 1103.689519 0.502414 L 1053.574055 0.502414 C 1050.610237 0.502414 1047.915857 1.445447 1046.029791 2.927356 C 1044.143725 4.274546 1041.988221 6.564768 1041.314626 10.067462 L 1006.826565 136.703313 C 1005.209937 142.900386 1008.039036 149.366898 1013.831953 151.791839 C 1015.313861 152.600153 1016.930489 152.869591 1018.816555 152.869591 L 1044.952039 152.869591 C 1051.957427 152.869591 1054.921244 148.423865 1057.750343 141.149039 L 1063.273822 126.195231 L 1092.642562 126.195231 L 1098.435478 141.149039 C 1101.264577 148.423865 1104.093676 153.00431 1111.233782 153.00431 L 1137.234547 153.00431 C 1139.390051 153.00431 1141.410836 152.465434 1143.027464 151.522401 C 1148.146785 148.828022 1150.706446 142.630948 1149.359256 136.838031 Z M 1087.119083 81.872684 L 1069.201457 81.872684 C 1067.315392 81.872684 1065.833483 80.256056 1066.776516 78.235271 L 1071.761118 65.167529 L 1075.53325 55.198324 C 1076.341564 52.773382 1079.709539 52.773382 1080.517852 55.198324 L 1084.559422 65.167529 L 1089.544025 78.235271 C 1090.082901 80.256056 1088.735711 81.872684 1087.119083 81.872684 Z M 1220.086726 -7.176568 C 1217.661784 -7.176568 1156.229925 -10.409824 1156.229925 42.804177 C 1156.229925 76.214486 1180.344624 95.344583 1212.8119 95.344583 L 1224.263014 95.344583 C 1230.594807 95.344583 1235.714129 99.116714 1235.714129 105.448507 C 1235.714129 111.64558 1230.594807 115.956588 1225.206047 115.956588 C 1222.107511 115.956588 1216.988189 115.013555 1215.102123 107.334573 C 1214.563247 105.852664 1213.754933 104.909631 1210.791116 105.448507 L 1159.46318 111.64558 C 1156.634082 112.184456 1156.095206 114.070522 1157.577115 117.03434 C 1165.390816 138.858816 1179.401591 159.874979 1227.361551 159.874979 C 1251.47625 159.874979 1281.922742 146.672518 1281.922742 104.505474 C 1281.922742 52.638663 1236.118286 56.410795 1220.086726 56.410795 C 1215.102123 56.410795 1205.402356 55.198324 1205.402356 46.037432 C 1205.402356 38.627888 1211.734148 35.394632 1216.045156 35.394632 C 1219.143693 35.394632 1224.263014 37.684855 1226.14908 42.804177 C 1226.957394 45.0944 1228.708741 46.037432 1230.594807 46.037432 L 1277.477015 39.570921 C 1279.632519 39.301483 1281.114428 37.280698 1280.575552 34.451599 C 1278.554767 23.943518 1269.259157 -7.176568 1220.086726 -7.176568 Z M 1220.086726 -7.176568 " stroke="#5e17eb" stroke-width="3.114264" stroke-opacity="1" stroke-miterlimit="4"/><g fill="#5ce1e6" fill-opacity="1"><g transform="translate(36.04149, 6.729544)"><g><path d="M 3.285156 -3.761719 C 3.160156 -4.160156 2.796875 -4.433594 2.378906 -4.433594 L 0.617188 -4.433594 C 0.378906 -4.433594 0.183594 -4.234375 0.183594 -3.996094 L 0.183594 -0.449219 C 0.183594 -0.207031 0.378906 -0.0117188 0.617188 -0.0117188 L 1.195312 -0.0117188 C 1.433594 -0.0117188 1.628906 -0.207031 1.628906 -0.449219 L 1.628906 -1.46875 L 2.402344 -1.46875 C 2.632812 -1.46875 2.855469 -1.566406 3.007812 -1.746094 C 3.191406 -1.96875 3.378906 -2.351562 3.378906 -2.988281 C 3.378906 -3.3125 3.339844 -3.574219 3.285156 -3.761719 Z M 2.132812 -3 L 2.132812 -2.921875 C 2.132812 -2.734375 1.988281 -2.589844 1.804688 -2.589844 L 1.699219 -2.589844 C 1.65625 -2.589844 1.628906 -2.617188 1.628906 -2.65625 L 1.628906 -3.257812 C 1.628906 -3.296875 1.65625 -3.335938 1.699219 -3.335938 L 1.804688 -3.335938 C 1.988281 -3.335938 2.132812 -3.179688 2.132812 -3 Z M 2.132812 -3 "/></g></g></g><g fill="#5ce1e6" fill-opacity="1"><g transform="translate(39.514161, 6.729544)"><g><path d="M 4.238281 -0.464844 L 3.296875 -4.0625 C 3.277344 -4.128906 3.261719 -4.230469 3.183594 -4.316406 C 3.101562 -4.402344 2.996094 -4.421875 2.917969 -4.421875 L 1.460938 -4.421875 C 1.378906 -4.421875 1.300781 -4.394531 1.246094 -4.351562 C 1.1875 -4.3125 1.128906 -4.246094 1.105469 -4.144531 L 0.105469 -0.472656 C 0.0625 -0.292969 0.144531 -0.105469 0.3125 -0.0351562 C 0.355469 -0.0117188 0.398438 -0.00390625 0.457031 -0.00390625 L 1.210938 -0.00390625 C 1.417969 -0.00390625 1.5 -0.132812 1.582031 -0.34375 L 1.746094 -0.777344 L 2.59375 -0.777344 L 2.761719 -0.34375 C 2.84375 -0.132812 2.929688 0 3.132812 0 L 3.890625 0 C 3.949219 0 4.011719 -0.015625 4.054688 -0.0429688 C 4.207031 -0.121094 4.277344 -0.300781 4.238281 -0.464844 Z M 2.433594 -2.0625 L 1.917969 -2.0625 C 1.863281 -2.0625 1.816406 -2.113281 1.84375 -2.167969 L 1.988281 -2.546875 L 2.101562 -2.832031 C 2.121094 -2.90625 2.222656 -2.90625 2.246094 -2.832031 L 2.363281 -2.546875 L 2.507812 -2.167969 C 2.523438 -2.113281 2.484375 -2.0625 2.433594 -2.0625 Z M 2.433594 -2.0625 "/></g></g></g><g fill="#5ce1e6" fill-opacity="1"><g transform="translate(43.859167, 6.729544)"><g><path d="M 3.722656 -4.445312 L 0.574219 -4.445312 C 0.359375 -4.445312 0.183594 -4.273438 0.183594 -4.054688 L 0.183594 -3.296875 C 0.183594 -3.082031 0.359375 -2.90625 0.574219 -2.90625 L 1.339844 -2.90625 C 1.363281 -2.90625 1.378906 -2.882812 1.378906 -2.867188 L 1.378906 -0.378906 C 1.378906 -0.167969 1.550781 0.0117188 1.773438 0.0117188 L 2.527344 0.0117188 C 2.738281 0.0117188 2.917969 -0.167969 2.917969 -0.378906 L 2.917969 -2.867188 C 2.917969 -2.882812 2.941406 -2.90625 2.960938 -2.90625 L 3.722656 -2.90625 C 3.933594 -2.90625 4.113281 -3.082031 4.113281 -3.296875 L 4.113281 -4.054688 C 4.113281 -4.273438 3.933594 -4.445312 3.722656 -4.445312 Z M 3.722656 -4.445312 "/></g></g></g><g fill="#5ce1e6" fill-opacity="1"><g transform="translate(48.154167, 6.729544)"><g><path d="M 4.238281 -0.464844 L 3.296875 -4.0625 C 3.277344 -4.128906 3.261719 -4.230469 3.183594 -4.316406 C 3.101562 -4.402344 2.996094 -4.421875 2.917969 -4.421875 L 1.460938 -4.421875 C 1.378906 -4.421875 1.300781 -4.394531 1.246094 -4.351562 C 1.1875 -4.3125 1.128906 -4.246094 1.105469 -4.144531 L 0.105469 -0.472656 C 0.0625 -0.292969 0.144531 -0.105469 0.3125 -0.0351562 C 0.355469 -0.0117188 0.398438 -0.00390625 0.457031 -0.00390625 L 1.210938 -0.00390625 C 1.417969 -0.00390625 1.5 -0.132812 1.582031 -0.34375 L 1.746094 -0.777344 L 2.59375 -0.777344 L 2.761719 -0.34375 C 2.84375 -0.132812 2.929688 0 3.132812 0 L 3.890625 0 C 3.949219 0 4.011719 -0.015625 4.054688 -0.0429688 C 4.207031 -0.121094 4.277344 -0.300781 4.238281 -0.464844 Z M 2.433594 -2.0625 L 1.917969 -2.0625 C 1.863281 -2.0625 1.816406 -2.113281 1.84375 -2.167969 L 1.988281 -2.546875 L 2.101562 -2.832031 C 2.121094 -2.90625 2.222656 -2.90625 2.246094 -2.832031 L 2.363281 -2.546875 L 2.507812 -2.167969 C 2.523438 -2.113281 2.484375 -2.0625 2.433594 -2.0625 Z M 2.433594 -2.0625 "/></g></g></g><g fill="#5ce1e6" fill-opacity="1"><g transform="translate(52.499174, 6.729544)"><g><path d="M 1.945312 -4.644531 C 1.878906 -4.644531 0.09375 -4.738281 0.09375 -3.195312 C 0.09375 -2.226562 0.792969 -1.671875 1.734375 -1.671875 L 2.066406 -1.671875 C 2.25 -1.671875 2.402344 -1.5625 2.402344 -1.378906 C 2.402344 -1.199219 2.25 -1.074219 2.09375 -1.074219 C 2.007812 -1.074219 1.855469 -1.101562 1.800781 -1.324219 C 1.785156 -1.367188 1.761719 -1.394531 1.679688 -1.378906 L 0.1875 -1.199219 C 0.105469 -1.183594 0.0898438 -1.128906 0.132812 -1.042969 C 0.359375 -0.410156 0.765625 0.199219 2.15625 0.199219 C 2.855469 0.199219 3.738281 -0.183594 3.738281 -1.40625 C 3.738281 -2.910156 2.410156 -2.800781 1.945312 -2.800781 C 1.800781 -2.800781 1.523438 -2.832031 1.523438 -3.101562 C 1.523438 -3.316406 1.707031 -3.410156 1.828125 -3.410156 C 1.917969 -3.410156 2.066406 -3.34375 2.121094 -3.195312 C 2.144531 -3.128906 2.195312 -3.101562 2.25 -3.101562 L 3.613281 -3.289062 C 3.671875 -3.296875 3.71875 -3.355469 3.699219 -3.441406 C 3.640625 -3.738281 3.371094 -4.644531 1.945312 -4.644531 Z M 1.945312 -4.644531 "/></g></g></g><path stroke-linecap="butt" transform="matrix(0.0289955, 0, 0, 0.0289955, 26.501831, 2.15441)" fill="none" stroke-linejoin="miter" d="M 448.82051 23.235127 C 444.644221 9.49379 431.980636 0.0634612 417.565704 0.0634612 L 356.942159 0.0634612 C 348.589582 0.0634612 341.853632 6.93413 341.853632 15.151988 L 341.853632 137.476831 C 341.853632 145.829408 348.589582 152.565358 356.942159 152.565358 L 376.74585 152.565358 C 385.098428 152.565358 391.699658 145.829408 391.699658 137.476831 L 391.699658 102.449893 L 418.374018 102.449893 C 426.457158 102.449893 434.13614 98.9472 439.255462 92.884845 C 445.587254 85.205863 452.053766 71.868683 452.053766 49.909487 C 452.053766 38.727811 450.841295 29.701639 448.82051 23.235127 Z M 409.213127 49.50533 L 409.213127 52.19971 C 409.213127 58.666222 404.228524 63.650824 397.896732 63.650824 L 394.259319 63.650824 C 392.77741 63.650824 391.699658 62.707791 391.699658 61.360602 L 391.699658 40.748596 C 391.699658 39.401406 392.77741 38.054216 394.259319 38.054216 L 397.896732 38.054216 C 404.228524 38.054216 409.213127 43.442976 409.213127 49.50533 Z M 601.591844 136.937955 L 568.989849 12.861765 C 568.450973 10.571542 567.777378 7.203568 565.217717 4.105031 C 562.253899 1.275932 558.616486 0.467618 555.922107 0.467618 L 505.806642 0.467618 C 502.842825 0.467618 500.148445 1.410651 498.262379 2.89256 C 496.376313 4.374469 494.220809 6.664692 493.547214 10.032666 L 459.059153 136.668517 C 457.442525 142.86559 460.271624 149.332102 466.064541 151.891763 C 467.681168 152.565358 469.163077 152.834796 471.049143 152.834796 L 497.184627 152.834796 C 504.190015 152.834796 507.153832 148.389069 509.982931 141.114243 L 515.50641 126.160436 L 544.875149 126.160436 L 550.668066 141.114243 C 553.497165 148.389069 556.326264 152.969515 563.46637 152.969515 L 589.467135 152.969515 C 591.622639 152.969515 593.643424 152.430639 595.260052 151.487606 C 600.379373 148.793226 602.939034 142.596152 601.591844 136.937955 Z M 539.351671 81.837888 L 521.434045 81.837888 C 519.547979 81.837888 518.066071 80.22126 519.009103 78.335194 L 523.993706 65.267452 L 527.765838 55.298247 C 528.574152 52.738586 531.942126 52.738586 532.75044 55.298247 L 536.79201 65.267452 L 541.776613 78.335194 C 542.450208 80.22126 540.968299 81.837888 539.351671 81.837888 Z M 733.616454 -0.340696 L 624.898229 -0.340696 C 617.623404 -0.340696 611.561049 5.58694 611.561049 13.131203 L 611.561049 39.401406 C 611.561049 46.676232 617.623404 52.738586 624.898229 52.738586 L 651.43787 52.738586 C 652.246184 52.738586 652.78506 53.5469 652.78506 54.085776 L 652.78506 139.901773 C 652.78506 147.311317 658.712696 153.373671 666.391678 153.373671 L 692.392443 153.373671 C 699.667269 153.373671 705.864342 147.311317 705.864342 139.901773 L 705.864342 54.085776 C 705.864342 53.5469 706.537937 52.738586 707.346251 52.738586 L 733.616454 52.738586 C 740.891279 52.738586 747.088353 46.676232 747.088353 39.401406 L 747.088353 13.131203 C 747.088353 5.58694 740.891279 -0.340696 733.616454 -0.340696 Z M 899.590249 136.937955 L 866.988254 12.861765 C 866.449378 10.571542 865.775783 7.203568 863.081403 4.105031 C 860.252304 1.275932 856.614892 0.467618 853.920512 0.467618 L 803.670329 0.467618 C 800.84123 0.467618 798.14685 1.410651 796.260784 2.89256 C 794.374718 4.374469 792.219215 6.664692 791.410901 10.032666 L 756.922839 136.668517 C 755.44093 142.86559 758.270029 149.332102 764.062946 151.891763 C 765.544855 152.565358 767.161482 152.834796 769.047548 152.834796 L 795.183032 152.834796 C 802.18842 152.834796 805.017519 148.389069 807.981336 141.114243 L 813.504815 126.160436 L 842.873555 126.160436 L 848.531752 141.114243 C 851.49557 148.389069 854.324669 152.969515 861.464775 152.969515 L 887.46554 152.969515 C 889.621044 152.969515 891.641829 152.430639 893.258457 151.487606 C 898.377778 148.793226 900.937439 142.596152 899.590249 136.937955 Z M 837.215357 81.837888 L 819.43245 81.837888 C 817.546385 81.837888 815.929757 80.22126 817.007509 78.335194 L 821.992111 65.267452 L 825.764243 55.298247 C 826.572557 52.738586 829.940532 52.738586 830.748846 55.298247 L 834.790415 65.267452 L 839.775018 78.335194 C 840.313894 80.22126 838.966704 81.837888 837.215357 81.837888 Z M 970.317719 -7.211364 C 967.892777 -7.211364 906.460918 -10.44462 906.460918 42.769381 C 906.460918 76.17969 930.575617 95.309787 963.042893 95.309787 L 974.494008 95.309787 C 980.8258 95.309787 985.945122 99.081919 985.945122 105.413711 C 985.945122 111.610785 980.8258 116.056511 975.437041 116.056511 C 972.338504 116.056511 967.219182 115.113478 965.333116 107.434496 C 964.659521 105.817868 963.851207 104.874835 961.022109 105.413711 L 909.694174 111.610785 C 906.865075 112.149661 906.326199 114.170445 907.808108 116.999544 C 915.621809 138.824021 929.632584 159.840183 977.592544 159.840183 C 1001.707244 159.840183 1032.153735 146.637722 1032.153735 104.470678 C 1032.153735 52.603867 986.349279 56.375999 970.317719 56.375999 C 965.333116 56.375999 955.633349 55.298247 955.633349 46.002637 C 955.633349 38.593092 961.965142 35.359837 966.276149 35.359837 C 969.239967 35.359837 974.494008 37.650059 976.380073 42.769381 C 977.188387 45.059604 978.939734 46.002637 980.8258 46.002637 L 1027.708009 39.536125 C 1029.863512 39.401406 1031.345421 37.245902 1030.806545 34.416804 C 1028.651041 24.043441 1019.49015 -7.211364 970.317719 -7.211364 Z M 970.317719 -7.211364 " stroke="#b2edef" stroke-width="3.114264" stroke-opacity="1" stroke-miterlimit="4"/></svg>