<svg xmlns="http://www.w3.org/2000/svg" xmlns:xlink="http://www.w3.org/1999/xlink" width="300" zoomAndPan="magnify" viewBox="0 0 224.87999 449.999984" height="600" preserveAspectRatio="xMidYMid meet" version="1.0"><path fill="#f97e2b" d="M 56.027344 176.703125 C 53.589844 185.820312 51.757812 195.101562 50.582031 204.464844 C 49.375 203.816406 48.027344 203.027344 46.65625 202.132812 C 27.796875 189.886719 36.3125 178.695312 56.027344 176.703125 Z M 56.027344 176.703125 " fill-opacity="1" fill-rule="nonzero"/><path fill="#4f2020" d="M 56.027344 176.703125 C 53.589844 185.820312 51.757812 195.101562 50.582031 204.464844 C 49.375 203.816406 48.027344 203.027344 46.65625 202.132812 C 42.058594 199.085938 36.96875 194.894531 36.152344 189.625 C 42.597656 195.375 49.601562 181.578125 52.855469 177.210938 C 53.960938 177.007812 55.03125 176.84375 56.027344 176.703125 Z M 56.027344 176.703125 " fill-opacity="0.212" fill-rule="nonzero"/><path fill="#4f2020" d="M 111.777344 264.492188 C 110.589844 264.492188 109.269531 264.320312 107.808594 263.976562 C 104.796875 263.273438 101.601562 261.960938 98.777344 260.804688 C 97.832031 260.417969 96.933594 260.046875 96.089844 259.71875 C 95.683594 259.566406 95.40625 259.183594 95.386719 258.75 C 95.285156 257.082031 95.949219 255.398438 97.203125 254.140625 C 98.496094 252.851562 100.226562 252.164062 101.96875 252.257812 C 102.578125 252.292969 103.050781 252.8125 103.015625 253.425781 C 102.980469 254.035156 102.457031 254.507812 101.84375 254.472656 C 100.742188 254.414062 99.621094 254.859375 98.777344 255.707031 C 98.148438 256.34375 97.746094 257.128906 97.628906 257.945312 C 98.269531 258.199219 98.933594 258.46875 99.628906 258.75 C 104.972656 260.941406 111.628906 263.671875 115.050781 261.453125 C 116.648438 260.417969 117.507812 258.230469 117.59375 254.960938 C 117.613281 254.363281 118.105469 253.886719 118.703125 253.886719 C 118.714844 253.886719 118.726562 253.886719 118.738281 253.886719 C 119.347656 253.902344 119.828125 254.414062 119.8125 255.027344 C 119.753906 257.070312 119.417969 258.808594 118.820312 260.179688 C 118.226562 261.535156 117.367188 262.59375 116.253906 263.3125 C 115.042969 264.101562 113.5625 264.492188 111.777344 264.492188 Z M 111.777344 264.492188 " fill-opacity="1" fill-rule="nonzero"/><path fill="#ffffff" d="M 56.027344 176.703125 C 55.734375 177.800781 55.453125 178.890625 55.175781 179.992188 C 47.660156 181.085938 39.058594 183.207031 36.472656 191.078125 C 33.402344 181.175781 47.726562 177.8125 56.027344 176.703125 Z M 56.027344 176.703125 " fill-opacity="0.6" fill-rule="nonzero"/><path fill="#4f2020" d="M 50.597656 205.570312 C 50.421875 205.570312 50.25 205.527344 50.089844 205.445312 C 44.863281 202.730469 40.921875 199.738281 38.355469 196.542969 C 35.808594 193.375 34.773438 190.109375 35.347656 187.101562 C 35.917969 184.125 38.058594 181.511719 41.539062 179.546875 C 45.097656 177.535156 49.9375 176.207031 55.933594 175.601562 C 56.292969 175.5625 56.65625 175.707031 56.886719 175.984375 C 57.125 176.261719 57.210938 176.636719 57.113281 176.984375 C 54.691406 186.023438 52.867188 195.316406 51.695312 204.597656 C 51.652344 204.957031 51.429688 205.273438 51.109375 205.4375 C 50.953125 205.527344 50.777344 205.570312 50.597656 205.570312 Z M 54.558594 177.988281 C 49.613281 178.617188 45.601562 179.792969 42.628906 181.472656 C 39.734375 183.113281 37.972656 185.203125 37.527344 187.523438 C 37.078125 189.875 37.960938 192.515625 40.085938 195.167969 C 42.191406 197.796875 45.503906 200.390625 49.707031 202.730469 C 50.820312 194.414062 52.449219 186.105469 54.558594 177.988281 Z M 54.558594 177.988281 " fill-opacity="1" fill-rule="nonzero"/><path fill="#4f2020" d="M 189.175781 211.964844 C 179.933594 242.175781 149.34375 258.675781 120.195312 266.097656 C 117.957031 266.277344 115.703125 266 113.570312 265.269531 C 94.957031 258.988281 76.195312 251.390625 63.132812 236.785156 C 63.132812 236.785156 63.132812 236.78125 63.125 236.78125 C 55.183594 228.195312 49.164062 217.707031 47.171875 206.148438 C 46.9375 204.820312 46.765625 203.472656 46.644531 202.132812 C 45.890625 193.792969 47.167969 185.199219 50.796875 177.621094 C 63.449219 151.117188 102.671875 146.910156 118.855469 174.5625 C 118.855469 174.554688 118.859375 174.550781 118.859375 174.550781 C 131.410156 152.671875 160.765625 149.902344 178.375 166.023438 C 190.820312 177.378906 193.890625 196.269531 189.175781 211.964844 Z M 189.175781 211.964844 " fill-opacity="1" fill-rule="nonzero"/><path fill="#4f2020" d="M 117.539062 267.203125 C 117.445312 267.203125 117.351562 267.191406 117.257812 267.164062 C 106.148438 264.242188 96.144531 260.523438 87.527344 256.117188 C 82.648438 253.621094 78.105469 250.847656 74.035156 247.882812 C 69.664062 244.695312 65.710938 241.195312 62.285156 237.472656 C 54.695312 229.617188 49.179688 219.535156 46.75 209.074219 C 45.480469 203.625 45.070312 198.1875 45.519531 192.925781 C 45.996094 187.351562 47.445312 182.042969 49.816406 177.152344 C 51.480469 173.5 53.664062 170.191406 56.316406 167.304688 C 58.828125 164.570312 61.761719 162.21875 65.027344 160.316406 C 71.226562 156.703125 78.453125 154.792969 85.929688 154.792969 C 91.097656 154.792969 96.289062 155.746094 100.945312 157.542969 C 105.855469 159.441406 110.113281 162.203125 113.597656 165.75 C 119.96875 172.238281 123.296875 180.964844 123.230469 191.015625 C 126.535156 193.433594 128.753906 196.871094 129.660156 200.984375 C 130.464844 204.621094 130.25 208.671875 129.03125 212.742188 C 135.804688 216.839844 142.671875 221.355469 149.441406 226.164062 C 156.09375 230.886719 162.867188 236.050781 169.578125 241.5 C 169.828125 241.707031 169.976562 242.011719 169.988281 242.332031 C 169.996094 242.652344 169.863281 242.960938 169.625 243.183594 C 163.9375 248.292969 155.070312 253.875 145.289062 258.503906 C 134.898438 263.417969 125.074219 266.503906 117.640625 267.191406 C 117.613281 267.195312 117.574219 267.203125 117.539062 267.203125 Z M 85.929688 157.007812 C 70.808594 157.007812 57.742188 165.082031 51.835938 178.078125 C 51.828125 178.085938 51.828125 178.09375 51.824219 178.105469 C 43.195312 195.875 48.160156 219.660156 63.890625 235.945312 C 63.898438 235.949219 63.902344 235.957031 63.910156 235.964844 C 75.863281 248.957031 93.9375 258.714844 117.628906 264.976562 C 132.882812 263.496094 155.832031 252.066406 167.15625 242.402344 C 153.800781 231.621094 140.34375 222.136719 127.132812 214.199219 C 126.691406 213.933594 126.488281 213.390625 126.652344 212.90625 C 128.863281 206.253906 128.667969 197.398438 121.480469 192.503906 C 121.171875 192.292969 120.988281 191.941406 121 191.570312 C 121.1875 181.878906 118.082031 173.488281 112.011719 167.3125 C 105.582031 160.757812 96.078125 157.007812 85.929688 157.007812 Z M 85.929688 157.007812 " fill-opacity="1" fill-rule="nonzero"/><path fill="#ffffff" d="M 168.863281 242.363281 C 157.535156 252.542969 133.148438 264.644531 117.539062 266.097656 C 97.464844 260.828125 77.144531 251.960938 63.136719 236.78125 C 63.132812 236.78125 63.132812 236.773438 63.132812 236.773438 L 63.132812 236.769531 C 61.113281 233.699219 60.371094 229.492188 60.121094 225.554688 C 52.507812 221.921875 48.191406 214.234375 47.175781 206.136719 C 47.109375 205.769531 47.039062 205.3125 46.988281 204.945312 C 45.636719 195.730469 46.773438 186.050781 50.804688 177.617188 C 66.957031 143.191406 122.90625 150.863281 122.097656 191.585938 C 129.210938 196.429688 130.359375 205.238281 127.691406 213.246094 C 142.113281 221.910156 155.804688 231.753906 168.863281 242.363281 Z M 168.863281 242.363281 " fill-opacity="1" fill-rule="nonzero"/><path fill="#8c8c8c" d="M 99.894531 181.53125 C 96.214844 185.28125 90.484375 186.757812 85.320312 186.039062 C 82.925781 181.597656 75.421875 170.648438 80.832031 166.824219 C 86.019531 163.757812 92.472656 163.023438 97.898438 163.757812 C 103.707031 168.027344 105.285156 176.207031 99.894531 181.53125 Z M 99.894531 181.53125 " fill-opacity="1" fill-rule="nonzero"/><path fill="#f97e2b" d="M 155.449219 231.914062 C 151.316406 241.804688 138.429688 252.277344 127.949219 244.988281 C 123.210938 241.390625 123.484375 235.8125 126.105469 231.039062 C 128.175781 225.976562 124.421875 223.375 119.574219 223.25 C 122.90625 220.4375 125.792969 217.136719 128.125 213.492188 C 137.515625 219.164062 146.597656 225.328125 155.449219 231.914062 Z M 155.449219 231.914062 " fill-opacity="1" fill-rule="nonzero"/><path fill="#f97e2b" d="M 118.683594 255 C 118.277344 269.105469 104.640625 261.851562 96.472656 258.691406 C 96.304688 255.761719 98.984375 253.207031 101.882812 253.371094 C 104.0625 253.464844 105.914062 254.882812 107.921875 255.730469 C 111.355469 257.183594 115.4375 256.863281 118.683594 255 Z M 118.683594 255 " fill-opacity="1" fill-rule="nonzero"/><path fill="#4f2020" d="M 131.027344 210.589844 C 131.027344 210.589844 131.003906 210.65625 130.964844 210.773438 C 130.921875 210.894531 130.859375 211.074219 130.777344 211.292969 C 130.753906 211.347656 130.730469 211.410156 130.710938 211.472656 C 130.699219 211.503906 130.6875 211.53125 130.675781 211.566406 C 130.671875 211.582031 130.664062 211.597656 130.660156 211.613281 C 130.65625 211.632812 130.644531 211.648438 130.636719 211.664062 C 130.578125 211.804688 130.515625 211.953125 130.445312 212.113281 C 130.371094 212.273438 130.300781 212.445312 130.214844 212.621094 C 130.132812 212.800781 130.042969 212.976562 129.949219 213.171875 C 129.902344 213.265625 129.855469 213.363281 129.804688 213.457031 C 129.757812 213.558594 129.707031 213.65625 129.652344 213.757812 C 129.539062 213.957031 129.421875 214.160156 129.308594 214.371094 C 129.246094 214.476562 129.183594 214.582031 129.125 214.691406 C 129.058594 214.796875 128.992188 214.902344 128.925781 215.011719 C 128.859375 215.117188 128.785156 215.230469 128.71875 215.339844 C 128.648438 215.449219 128.582031 215.5625 128.507812 215.671875 C 128.210938 216.109375 127.902344 216.5625 127.554688 216.996094 C 127.226562 217.441406 126.851562 217.867188 126.488281 218.300781 C 126.300781 218.511719 126.105469 218.714844 125.917969 218.921875 C 125.730469 219.128906 125.53125 219.324219 125.335938 219.519531 C 124.949219 219.917969 124.542969 220.277344 124.148438 220.628906 C 123.949219 220.800781 123.75 220.96875 123.554688 221.128906 C 123.457031 221.210938 123.363281 221.289062 123.269531 221.367188 C 123.171875 221.445312 123.074219 221.515625 122.972656 221.589844 C 122.78125 221.730469 122.597656 221.875 122.414062 222.007812 C 122.324219 222.074219 122.230469 222.136719 122.140625 222.203125 C 122.054688 222.261719 121.964844 222.324219 121.875 222.386719 C 121.699219 222.5 121.539062 222.617188 121.375 222.71875 C 121.214844 222.816406 121.0625 222.910156 120.910156 223 C 120.765625 223.085938 120.628906 223.171875 120.5 223.242188 C 120.375 223.316406 120.25 223.375 120.144531 223.4375 C 119.929688 223.550781 119.757812 223.636719 119.648438 223.695312 C 119.53125 223.757812 119.46875 223.785156 119.46875 223.785156 C 119.257812 223.890625 118.996094 223.808594 118.890625 223.597656 C 118.804688 223.425781 118.84375 223.21875 118.976562 223.09375 L 118.988281 223.082031 C 118.988281 223.082031 119.035156 223.03125 119.125 222.949219 C 119.21875 222.859375 119.351562 222.734375 119.523438 222.574219 C 119.609375 222.488281 119.707031 222.40625 119.808594 222.308594 C 119.90625 222.207031 120.019531 222.101562 120.132812 221.988281 C 120.25 221.871094 120.378906 221.753906 120.507812 221.625 C 120.632812 221.5 120.765625 221.359375 120.910156 221.21875 C 121.050781 221.074219 121.199219 220.933594 121.347656 220.773438 C 121.492188 220.613281 121.648438 220.457031 121.804688 220.292969 C 121.882812 220.210938 121.960938 220.125 122.042969 220.042969 C 122.121094 219.957031 122.199219 219.867188 122.273438 219.777344 C 122.429688 219.601562 122.597656 219.425781 122.757812 219.234375 C 122.917969 219.046875 123.078125 218.855469 123.246094 218.664062 C 123.414062 218.476562 123.566406 218.273438 123.734375 218.074219 C 123.894531 217.875 124.0625 217.675781 124.214844 217.464844 C 124.378906 217.261719 124.53125 217.050781 124.691406 216.84375 C 125 216.417969 125.308594 216.003906 125.589844 215.578125 C 125.664062 215.472656 125.734375 215.367188 125.808594 215.261719 C 125.878906 215.15625 125.953125 215.050781 126.019531 214.945312 C 126.15625 214.734375 126.289062 214.527344 126.421875 214.328125 C 126.554688 214.121094 126.671875 213.910156 126.800781 213.71875 C 126.863281 213.617188 126.921875 213.519531 126.984375 213.425781 C 127.042969 213.324219 127.09375 213.226562 127.15625 213.132812 C 127.265625 212.9375 127.378906 212.75 127.484375 212.574219 C 127.589844 212.390625 127.683594 212.210938 127.777344 212.042969 C 127.871094 211.871094 127.960938 211.707031 128.046875 211.554688 C 128.132812 211.398438 128.203125 211.253906 128.277344 211.117188 C 128.347656 210.976562 128.414062 210.851562 128.480469 210.734375 C 128.488281 210.71875 128.496094 210.707031 128.503906 210.691406 C 128.507812 210.675781 128.519531 210.65625 128.523438 210.644531 C 128.542969 210.613281 128.554688 210.585938 128.570312 210.558594 C 128.597656 210.496094 128.625 210.441406 128.652344 210.390625 C 128.757812 210.179688 128.847656 210.015625 128.902344 209.898438 C 128.964844 209.789062 128.992188 209.726562 128.992188 209.726562 C 129.28125 209.183594 129.949219 208.980469 130.492188 209.261719 C 130.980469 209.507812 131.203125 210.082031 131.027344 210.589844 Z M 131.027344 210.589844 " fill-opacity="1" fill-rule="nonzero"/><path fill="#ffa86e" d="M 98.972656 178.902344 C 95.078125 176.234375 91.015625 173.808594 86.8125 171.660156 C 85.742188 170.898438 84.289062 171.324219 84.03125 172.6875 C 84.445312 181.761719 91.957031 184.910156 98.972656 178.902344 Z M 98.972656 178.902344 " fill-opacity="1" fill-rule="nonzero"/><path fill="#4f2020" d="M 165.242188 239.453125 C 153.589844 230.203125 141.453125 221.570312 128.734375 213.871094 C 128.480469 213.339844 128.21875 212.816406 127.96875 212.285156 C 130.355469 204.453125 128.878906 196.234375 122.101562 191.582031 C 122.109375 188.34375 121.730469 185.054688 120.996094 181.828125 C 121.109375 189.171875 122.171875 196.511719 124.0625 203.605469 C 120.269531 195.300781 120.066406 186.257812 119.703125 177.308594 C 118.109375 171.691406 113.191406 166.832031 109.394531 163.609375 C 112.359375 167.390625 114.859375 171.5625 116.839844 176.015625 C 109.949219 192.140625 130.214844 205.9375 115.96875 222.707031 C 113.347656 226.136719 108.417969 228.660156 104.484375 230.464844 C 91.980469 236.1875 61.652344 244.257812 62.433594 223.714844 C 54.558594 221.0625 49.683594 211.421875 46.988281 204.941406 C 47.039062 205.304688 47.117188 205.765625 47.175781 206.128906 C 48.90625 217.679688 55.351562 228.175781 63.132812 236.761719 L 63.132812 236.769531 C 63.132812 236.773438 63.132812 236.773438 63.136719 236.773438 C 77.140625 251.957031 97.46875 260.828125 117.539062 266.089844 C 133.09375 264.664062 157.546875 252.542969 168.863281 242.363281 C 167.660156 241.382812 166.453125 240.417969 165.242188 239.453125 Z M 147.296875 249.199219 C 140.996094 253.222656 132.003906 257.679688 124.542969 254.886719 C 118.789062 251.445312 121.089844 243.011719 117.285156 238.207031 C 117.972656 245.863281 115.214844 256.234375 105.535156 254.550781 C 101.15625 253.539062 96.066406 252.070312 92.175781 249.386719 C 89.296875 247.402344 89.945312 242.960938 93.273438 241.894531 C 100.402344 239.625 106.984375 235.625 112.238281 230.300781 C 111.355469 230.535156 110.492188 230.792969 109.613281 231.058594 C 117.007812 227.59375 123.40625 221.988281 127.949219 215.179688 C 133.015625 225.207031 135.902344 237.675781 146.8125 243.035156 C 149.253906 244.269531 149.53125 247.632812 147.296875 249.199219 Z M 147.296875 249.199219 " fill-opacity="0.2" fill-rule="nonzero"/><path fill="#ffffff" d="M 191.59375 200.019531 C 190.457031 213.003906 184.589844 225.421875 175.910156 235.097656 C 173.355469 238.167969 169.285156 239.050781 165.148438 239.382812 C 153.578125 240.339844 140.992188 234.589844 137.003906 223.292969 C 134.875 220.515625 132.242188 217.90625 130.28125 214.800781 C 122.304688 202.910156 116.8125 187.453125 119.734375 173.234375 C 128.832031 160.179688 143.054688 153.050781 158.238281 156.109375 L 158.242188 156.109375 C 178.730469 158.960938 193.269531 179.679688 191.59375 200.019531 Z M 191.59375 200.019531 " fill-opacity="1" fill-rule="nonzero"/><path fill="#4f2020" d="M 191.59375 200.019531 C 189.160156 220.625 176.496094 247.4375 152.042969 237.703125 C 145.261719 235.429688 139.15625 229.730469 136.894531 222.972656 C 125.972656 211.96875 113.675781 186.324219 120.988281 171.519531 C 118.15625 184.566406 127.6875 194.695312 137.863281 182.277344 C 142.292969 176.386719 144.472656 168.628906 150.402344 164.246094 C 153.445312 162.039062 158 160.316406 158.503906 156.109375 C 161.875 157.929688 161.082031 164.191406 159.292969 166.851562 C 153.164062 176.539062 151.695312 181.578125 148.046875 194.710938 C 145.628906 203.425781 136.183594 205.75 131.914062 199.183594 C 122.109375 200.65625 131.191406 219.925781 144.695312 209.289062 C 133.789062 227.320312 175.71875 244.210938 176.621094 221.882812 C 190.40625 220.011719 193.507812 185.933594 185.050781 174.101562 C 189.792969 181.464844 192.265625 190.9375 191.59375 200.019531 Z M 191.59375 200.019531 " fill-opacity="0.2" fill-rule="nonzero"/><path fill="#b55040" d="M 160.484375 160.355469 C 158.769531 165.996094 152.527344 164.605469 148.945312 177.152344 C 147.703125 181.507812 146.476562 185.859375 144.933594 190.117188 C 139.566406 204.941406 122.464844 198.851562 120.050781 191.148438 C 118.9375 185.734375 118.613281 180.246094 119.28125 174.9375 C 127.847656 158.429688 145.4375 153.492188 158.234375 156.109375 C 159.621094 157.160156 160.679688 158.605469 160.484375 160.355469 Z M 160.484375 160.355469 " fill-opacity="1" fill-rule="nonzero"/><path fill="#4f2020" d="M 117.539062 267.195312 C 117.445312 267.195312 117.351562 267.1875 117.257812 267.160156 C 106.148438 264.230469 96.144531 260.515625 87.53125 256.113281 C 82.652344 253.617188 78.109375 250.84375 74.039062 247.875 C 69.671875 244.6875 65.714844 241.191406 62.289062 237.464844 C 54.703125 229.613281 49.183594 219.527344 46.753906 209.070312 C 45.484375 203.617188 45.074219 198.183594 45.523438 192.917969 C 46 187.339844 47.449219 182.035156 49.824219 177.136719 C 53.144531 170.179688 58.421875 164.390625 65.101562 160.398438 C 71.46875 156.597656 78.769531 154.582031 86.21875 154.582031 C 92.839844 154.582031 99.316406 156.222656 104.957031 159.316406 C 107.929688 160.945312 110.679688 162.984375 113.128906 165.375 C 115.269531 167.460938 117.195312 169.824219 118.871094 172.425781 C 120.472656 169.894531 122.347656 167.582031 124.449219 165.53125 C 126.882812 163.148438 129.632812 161.109375 132.628906 159.464844 C 138.394531 156.289062 145.011719 154.609375 151.753906 154.609375 C 161.578125 154.609375 171.03125 158.125 178.363281 164.5 C 184.679688 169.945312 189.105469 177.527344 191.152344 186.425781 C 192.105469 190.566406 192.515625 194.882812 192.375 199.25 C 192.238281 203.574219 191.5625 207.828125 190.371094 211.902344 C 190.371094 211.90625 190.371094 211.914062 190.363281 211.914062 C 188.074219 219.402344 184.339844 226.480469 179.265625 232.957031 C 174.5625 238.960938 168.71875 244.445312 161.894531 249.25 C 155.5 253.75 148.339844 257.601562 140.609375 260.6875 C 133.222656 263.644531 125.523438 265.824219 117.726562 267.179688 C 117.667969 267.191406 117.605469 267.195312 117.539062 267.195312 Z M 86.21875 156.796875 C 71.5 156.796875 58.003906 165.160156 51.824219 178.09375 C 51.824219 178.09375 51.824219 178.097656 51.820312 178.097656 C 43.195312 195.871094 48.160156 219.65625 63.890625 235.9375 C 63.898438 235.945312 63.902344 235.949219 63.910156 235.960938 C 75.851562 248.9375 93.914062 258.695312 117.582031 264.960938 C 144.074219 260.300781 178.375 243.476562 188.234375 211.277344 C 193.175781 194.390625 188.621094 176.265625 176.90625 166.171875 C 169.96875 160.140625 161.039062 156.824219 151.75 156.824219 C 138.3125 156.824219 126.382812 163.660156 119.835938 175.109375 C 119.640625 175.453125 119.273438 175.667969 118.875 175.667969 C 118.875 175.667969 118.871094 175.667969 118.871094 175.667969 C 118.476562 175.667969 118.109375 175.457031 117.910156 175.121094 C 111.105469 163.472656 99.554688 156.796875 86.21875 156.796875 Z M 86.21875 156.796875 " fill-opacity="1" fill-rule="nonzero"/><path fill="#f97e2b" d="M 99.910156 181.53125 C 96.234375 185.28125 90.5 186.757812 85.335938 186.039062 C 83.039062 181.957031 75.410156 170.277344 80.851562 166.824219 C 86.0625 163.765625 92.351562 163.023438 97.90625 163.757812 C 103.757812 168.125 105.304688 176.117188 99.910156 181.53125 Z M 99.910156 181.53125 " fill-opacity="1" fill-rule="nonzero"/><path fill="#ffffff" d="M 88.546875 165.679688 C 88.695312 166.105469 87.675781 166.859375 86.269531 167.355469 C 85.015625 167.804688 83.871094 167.902344 83.527344 167.621094 C 81.78125 168.738281 80.578125 170.207031 80.507812 172.191406 C 80.71875 174.40625 81 176.613281 81.367188 178.808594 C 80.101562 175.238281 76.757812 169.601562 80.855469 166.824219 C 85.753906 163.925781 91.785156 163.117188 97.003906 163.648438 C 94.917969 164.152344 91.585938 164.644531 88.457031 165.550781 C 88.503906 165.589844 88.53125 165.636719 88.546875 165.679688 Z M 88.546875 165.679688 " fill-opacity="0.6" fill-rule="nonzero"/><path fill="#4f2020" d="M 99.910156 181.53125 C 96.234375 185.28125 90.5 186.757812 85.335938 186.039062 C 82.667969 181.722656 80.199219 177.242188 79.140625 172.269531 C 84.464844 180.628906 97.453125 181.058594 103.28125 173.027344 C 103.402344 176.121094 102.089844 179.28125 99.910156 181.53125 Z M 99.910156 181.53125 " fill-opacity="0.2" fill-rule="nonzero"/><path fill="#b55040" d="M 146.4375 202.605469 C 146.703125 187.230469 169.617188 187.230469 169.878906 202.605469 C 169.617188 217.984375 146.699219 217.980469 146.4375 202.605469 Z M 146.4375 202.605469 " fill-opacity="1" fill-rule="nonzero"/><path fill="#4f2020" d="M 85.4375 187.234375 L 85.046875 186.660156 L 84.652344 186.085938 L 83.867188 184.929688 C 83.605469 184.539062 83.34375 184.148438 83.089844 183.753906 C 82.835938 183.363281 82.582031 182.964844 82.332031 182.566406 C 82.082031 182.167969 81.835938 181.761719 81.597656 181.351562 C 81.355469 180.941406 81.121094 180.535156 80.894531 180.117188 C 80.660156 179.703125 80.441406 179.28125 80.222656 178.855469 C 80.007812 178.429688 79.796875 178 79.597656 177.5625 C 79.398438 177.125 79.207031 176.679688 79.027344 176.226562 C 78.847656 175.773438 78.679688 175.320312 78.53125 174.851562 C 78.382812 174.378906 78.25 173.902344 78.132812 173.417969 C 78.023438 172.929688 77.925781 172.425781 77.878906 171.910156 C 77.820312 171.394531 77.804688 170.871094 77.839844 170.328125 C 77.84375 170.195312 77.859375 170.058594 77.878906 169.917969 C 77.894531 169.78125 77.917969 169.648438 77.9375 169.507812 C 77.992188 169.230469 78.054688 168.960938 78.148438 168.683594 C 78.171875 168.617188 78.195312 168.546875 78.222656 168.480469 L 78.304688 168.273438 L 78.34375 168.175781 L 78.386719 168.074219 L 78.480469 167.875 C 78.515625 167.808594 78.554688 167.75 78.585938 167.683594 C 78.625 167.621094 78.660156 167.554688 78.699219 167.496094 C 78.78125 167.371094 78.859375 167.246094 78.949219 167.128906 C 79.300781 166.652344 79.742188 166.25 80.210938 165.921875 L 80.234375 165.90625 C 80.25 165.894531 80.269531 165.882812 80.285156 165.871094 L 80.800781 165.585938 L 81.320312 165.308594 C 81.5 165.21875 81.671875 165.136719 81.847656 165.046875 C 82.027344 164.964844 82.203125 164.886719 82.378906 164.804688 C 82.558594 164.726562 82.742188 164.648438 82.917969 164.570312 C 83.101562 164.496094 83.277344 164.429688 83.460938 164.355469 C 83.644531 164.285156 83.828125 164.222656 84.011719 164.15625 C 84.195312 164.089844 84.382812 164.03125 84.566406 163.96875 C 84.9375 163.847656 85.308594 163.738281 85.6875 163.632812 C 86.0625 163.527344 86.441406 163.4375 86.816406 163.347656 C 87.195312 163.265625 87.578125 163.1875 87.953125 163.121094 C 88.335938 163.054688 88.71875 162.996094 89.101562 162.945312 C 89.484375 162.894531 89.867188 162.851562 90.25 162.816406 C 90.445312 162.800781 90.632812 162.785156 90.828125 162.773438 C 91.019531 162.757812 91.210938 162.75 91.402344 162.742188 C 91.597656 162.730469 91.785156 162.722656 91.980469 162.71875 C 92.175781 162.710938 92.363281 162.710938 92.554688 162.707031 C 92.75 162.703125 92.9375 162.707031 93.132812 162.710938 C 93.328125 162.710938 93.515625 162.722656 93.710938 162.730469 C 94.09375 162.742188 94.476562 162.769531 94.859375 162.796875 C 95.242188 162.824219 95.617188 162.867188 96 162.910156 C 96.378906 162.960938 96.761719 163.011719 97.136719 163.074219 C 97.324219 163.105469 97.515625 163.140625 97.703125 163.171875 C 97.890625 163.207031 98.074219 163.25 98.261719 163.289062 C 98.535156 163.34375 98.707031 163.609375 98.652344 163.878906 C 98.601562 164.128906 98.375 164.296875 98.128906 164.277344 L 98.117188 164.277344 L 97.570312 164.246094 C 97.386719 164.234375 97.203125 164.222656 97.019531 164.21875 L 96.472656 164.203125 C 96.289062 164.195312 96.105469 164.191406 95.921875 164.191406 C 95.558594 164.183594 95.191406 164.191406 94.824219 164.195312 C 94.457031 164.203125 94.09375 164.21875 93.730469 164.234375 C 93.367188 164.25 93.003906 164.277344 92.640625 164.3125 C 92.457031 164.328125 92.28125 164.34375 92.097656 164.363281 C 91.914062 164.382812 91.734375 164.402344 91.554688 164.421875 C 91.191406 164.46875 90.832031 164.515625 90.476562 164.570312 C 90.300781 164.601562 90.117188 164.628906 89.9375 164.660156 C 89.761719 164.695312 89.585938 164.722656 89.40625 164.761719 C 89.050781 164.828125 88.695312 164.902344 88.347656 164.988281 C 88 165.070312 87.648438 165.160156 87.300781 165.253906 C 86.949219 165.347656 86.605469 165.453125 86.269531 165.5625 C 85.925781 165.671875 85.585938 165.789062 85.253906 165.910156 C 85.085938 165.976562 84.921875 166.035156 84.753906 166.105469 C 84.585938 166.171875 84.421875 166.238281 84.261719 166.304688 C 84.09375 166.375 83.933594 166.441406 83.765625 166.515625 C 83.605469 166.59375 83.445312 166.664062 83.285156 166.734375 C 83.125 166.8125 82.960938 166.890625 82.808594 166.96875 L 82.335938 167.210938 L 81.871094 167.464844 L 81.410156 167.730469 L 81.480469 167.6875 C 81.1875 167.898438 80.945312 168.140625 80.738281 168.417969 C 80.683594 168.484375 80.644531 168.5625 80.59375 168.628906 C 80.574219 168.664062 80.550781 168.707031 80.535156 168.738281 C 80.511719 168.777344 80.488281 168.8125 80.472656 168.851562 L 80.417969 168.964844 L 80.390625 169.027344 L 80.367188 169.089844 L 80.316406 169.210938 C 80.300781 169.25 80.289062 169.292969 80.273438 169.335938 C 80.21875 169.507812 80.179688 169.6875 80.140625 169.867188 C 80.125 169.960938 80.113281 170.058594 80.097656 170.152344 C 80.089844 170.246094 80.074219 170.34375 80.066406 170.4375 C 80.039062 170.824219 80.050781 171.234375 80.097656 171.652344 C 80.132812 172.066406 80.199219 172.488281 80.296875 172.90625 C 80.382812 173.328125 80.496094 173.753906 80.617188 174.175781 C 80.738281 174.59375 80.882812 175.019531 81.03125 175.441406 C 81.183594 175.863281 81.34375 176.28125 81.515625 176.703125 C 81.6875 177.125 81.863281 177.539062 82.046875 177.953125 C 82.234375 178.371094 82.425781 178.785156 82.617188 179.199219 C 82.8125 179.613281 83.019531 180.023438 83.222656 180.4375 C 83.429688 180.855469 83.640625 181.265625 83.851562 181.671875 C 84.273438 182.5 84.703125 183.316406 85.136719 184.140625 C 85.351562 184.558594 85.570312 184.972656 85.78125 185.386719 C 85.886719 185.597656 85.992188 185.808594 86.097656 186.019531 C 86.203125 186.226562 86.308594 186.449219 86.402344 186.660156 C 86.527344 186.9375 86.402344 187.261719 86.125 187.390625 C 85.875 187.539062 85.585938 187.457031 85.4375 187.234375 Z M 85.4375 187.234375 " fill-opacity="1" fill-rule="nonzero"/><path fill="#f08484" d="M 98.988281 178.90625 C 86.871094 188.933594 81.226562 171.757812 85.46875 171.269531 C 90.3125 172.890625 94.660156 176.183594 98.988281 178.90625 Z M 98.988281 178.90625 " fill-opacity="1" fill-rule="nonzero"/><path fill="#4f2020" d="M 91.773438 183.089844 C 89.367188 183.089844 87.175781 182.089844 85.609375 180.269531 C 84.003906 178.417969 83.089844 175.8125 82.953125 172.730469 C 82.945312 172.648438 82.953125 172.558594 82.96875 172.476562 C 83.222656 171.097656 84.320312 170.171875 85.695312 170.171875 C 86.300781 170.171875 86.890625 170.355469 87.40625 170.703125 C 91.613281 172.863281 95.722656 175.308594 99.621094 177.980469 C 99.90625 178.175781 100.082031 178.492188 100.097656 178.835938 C 100.113281 179.175781 99.976562 179.507812 99.714844 179.730469 C 97.152344 181.933594 94.410156 183.089844 91.773438 183.089844 Z M 85.167969 172.785156 C 85.4375 177.707031 88.019531 180.875 91.773438 180.875 C 93.5 180.875 95.316406 180.21875 97.109375 178.96875 C 93.644531 176.664062 90.027344 174.539062 86.328125 172.648438 C 86.277344 172.625 86.234375 172.597656 86.191406 172.5625 C 85.992188 172.425781 85.8125 172.390625 85.695312 172.390625 C 85.507812 172.390625 85.269531 172.464844 85.167969 172.785156 Z M 85.167969 172.785156 " fill-opacity="1" fill-rule="nonzero"/><path fill="#4f2020" d="M 162.164062 240.59375 C 162.03125 240.59375 161.898438 240.570312 161.765625 240.515625 C 161.195312 240.292969 160.910156 239.652344 161.132812 239.082031 C 161.492188 238.15625 161.832031 237.285156 162.308594 235.84375 C 162.503906 235.261719 163.128906 234.953125 163.710938 235.148438 C 164.292969 235.339844 164.605469 235.964844 164.410156 236.546875 C 163.949219 237.929688 163.628906 238.765625 163.195312 239.878906 C 163.03125 240.328125 162.609375 240.59375 162.164062 240.59375 Z M 162.164062 240.59375 " fill-opacity="1" fill-rule="nonzero"/><path fill="#4f2020" d="M 78.304688 235.015625 C 77.964844 235.015625 77.621094 234.980469 77.289062 234.914062 C 76.101562 234.671875 75.070312 234 74.390625 233.027344 C 74.039062 232.523438 74.160156 231.835938 74.667969 231.488281 C 75.171875 231.140625 75.859375 231.261719 76.207031 231.765625 C 77 232.90625 78.519531 233.011719 79.546875 232.53125 C 80.007812 232.3125 81.027344 231.660156 80.628906 230.214844 C 80.484375 229.695312 80.734375 229.148438 81.222656 228.921875 C 81.710938 228.6875 82.292969 228.84375 82.601562 229.285156 C 83.894531 231.117188 86 231.34375 87.542969 230.945312 C 89.085938 230.546875 90.820312 229.324219 91.046875 227.09375 C 91.109375 226.484375 91.660156 226.042969 92.261719 226.109375 C 92.871094 226.171875 93.316406 226.71875 93.25 227.320312 C 93.101562 228.761719 92.5 230.066406 91.507812 231.113281 C 90.605469 232.066406 89.421875 232.75 88.097656 233.09375 C 86.773438 233.4375 85.410156 233.414062 84.15625 233.023438 C 83.617188 232.855469 83.113281 232.625 82.648438 232.335938 C 82.269531 233.269531 81.527344 234.050781 80.484375 234.539062 C 79.808594 234.847656 79.058594 235.015625 78.304688 235.015625 Z M 78.304688 235.015625 " fill-opacity="1" fill-rule="nonzero"/><path fill="#4f2020" d="M 112.398438 229.972656 C 111.871094 230.355469 111.316406 230.738281 110.761719 231.097656 C 110.207031 231.457031 109.640625 231.804688 109.078125 232.140625 C 107.941406 232.816406 106.777344 233.449219 105.59375 234.039062 C 104.414062 234.636719 103.214844 235.195312 102 235.722656 C 101.695312 235.855469 101.390625 235.984375 101.085938 236.109375 C 100.78125 236.238281 100.476562 236.363281 100.171875 236.488281 C 99.554688 236.730469 98.941406 236.96875 98.320312 237.199219 C 97.078125 237.660156 95.828125 238.089844 94.5625 238.496094 C 93.300781 238.898438 92.03125 239.269531 90.75 239.613281 C 89.46875 239.953125 88.171875 240.261719 86.867188 240.527344 C 85.5625 240.796875 84.25 241.019531 82.925781 241.203125 C 81.597656 241.382812 80.261719 241.507812 78.914062 241.578125 L 78.410156 241.601562 C 78.242188 241.605469 78.070312 241.613281 77.90625 241.617188 L 77.402344 241.628906 L 76.636719 241.628906 L 76.378906 241.621094 L 75.871094 241.613281 C 75.53125 241.59375 75.195312 241.589844 74.851562 241.5625 C 74.167969 241.523438 73.492188 241.449219 72.808594 241.355469 L 72.296875 241.285156 L 71.789062 241.195312 C 71.617188 241.167969 71.449219 241.128906 71.277344 241.097656 C 71.105469 241.0625 70.941406 241.03125 70.769531 240.984375 C 70.089844 240.835938 69.421875 240.644531 68.753906 240.417969 L 68.503906 240.328125 L 68.382812 240.285156 L 68.261719 240.234375 L 67.769531 240.039062 L 67.28125 239.828125 C 67.195312 239.796875 67.117188 239.757812 67.035156 239.71875 L 66.796875 239.601562 L 66.675781 239.542969 L 66.613281 239.515625 L 66.535156 239.476562 L 66.320312 239.359375 L 66.214844 239.304688 L 66.160156 239.277344 L 66.097656 239.242188 L 65.855469 239.105469 C 65.6875 239.011719 65.542969 238.917969 65.390625 238.820312 L 65.273438 238.75 L 65.160156 238.679688 L 64.941406 238.527344 C 64.347656 238.125 63.78125 237.671875 63.257812 237.167969 C 62.21875 236.160156 61.351562 234.960938 60.726562 233.675781 C 60.648438 233.515625 60.570312 233.355469 60.496094 233.1875 L 60.390625 232.945312 C 60.359375 232.863281 60.320312 232.777344 60.292969 232.699219 C 60.160156 232.367188 60.042969 232.035156 59.9375 231.703125 C 59.722656 231.035156 59.554688 230.355469 59.421875 229.671875 C 59.289062 228.992188 59.195312 228.3125 59.132812 227.632812 C 59.066406 226.949219 59.035156 226.269531 59.023438 225.59375 L 59.632812 226.542969 L 58.921875 226.171875 C 58.691406 226.042969 58.457031 225.910156 58.222656 225.777344 C 57.992188 225.644531 57.765625 225.5 57.535156 225.363281 C 57.308594 225.21875 57.085938 225.070312 56.859375 224.925781 C 56.636719 224.777344 56.421875 224.621094 56.199219 224.464844 C 55.984375 224.3125 55.773438 224.144531 55.554688 223.984375 C 55.347656 223.816406 55.140625 223.648438 54.929688 223.480469 C 54.726562 223.308594 54.523438 223.132812 54.320312 222.953125 C 54.121094 222.777344 53.925781 222.589844 53.726562 222.40625 C 53.53125 222.21875 53.34375 222.03125 53.15625 221.84375 L 52.601562 221.257812 C 52.421875 221.054688 52.246094 220.851562 52.070312 220.652344 C 51.898438 220.441406 51.722656 220.238281 51.558594 220.027344 C 51.398438 219.8125 51.226562 219.601562 51.070312 219.386719 L 50.835938 219.058594 C 50.757812 218.949219 50.683594 218.84375 50.605469 218.726562 L 50.382812 218.394531 L 50.273438 218.230469 C 50.234375 218.171875 50.199219 218.117188 50.167969 218.058594 C 49.878906 217.601562 49.605469 217.144531 49.351562 216.671875 C 49.222656 216.433594 49.097656 216.203125 48.972656 215.964844 C 48.851562 215.726562 48.730469 215.488281 48.625 215.246094 C 48.515625 215 48.398438 214.765625 48.296875 214.515625 L 48.140625 214.148438 C 48.085938 214.027344 48.042969 213.902344 47.992188 213.777344 L 47.847656 213.40625 C 47.796875 213.285156 47.753906 213.160156 47.710938 213.03125 L 47.570312 212.65625 C 47.527344 212.527344 47.488281 212.402344 47.445312 212.277344 L 47.316406 211.902344 C 47.277344 211.773438 47.238281 211.648438 47.199219 211.519531 L 47.082031 211.140625 C 47.042969 211.011719 47.011719 210.882812 46.976562 210.757812 L 46.871094 210.375 C 46.839844 210.246094 46.804688 210.121094 46.777344 209.988281 L 46.683594 209.601562 C 46.652344 209.472656 46.628906 209.339844 46.59375 209.214844 C 46.539062 208.953125 46.476562 208.699219 46.433594 208.4375 C 46.382812 208.179688 46.328125 207.917969 46.289062 207.65625 C 46.246094 207.398438 46.203125 207.136719 46.164062 206.878906 L 46.105469 206.484375 L 46.078125 206.289062 C 46.085938 206.3125 46.074219 206.242188 46.085938 206.335938 L 46.085938 206.328125 L 46.078125 206.296875 L 46.074219 206.257812 L 46.066406 206.222656 C 46.0625 206.179688 46.0625 206.148438 46.058594 206.121094 L 46.050781 206.007812 L 46.050781 206.003906 C 46.023438 205.394531 46.5 204.875 47.117188 204.851562 C 47.726562 204.824219 48.246094 205.300781 48.269531 205.914062 L 48.269531 205.921875 L 48.273438 206.003906 C 48.273438 206.003906 48.273438 206.003906 48.273438 205.992188 L 48.269531 205.964844 L 48.269531 205.953125 C 48.269531 205.949219 48.269531 205.953125 48.269531 205.953125 L 48.28125 206.015625 L 48.308594 206.195312 L 48.363281 206.5625 C 48.398438 206.804688 48.441406 207.050781 48.480469 207.292969 C 48.519531 207.535156 48.570312 207.78125 48.613281 208.023438 C 48.65625 208.265625 48.714844 208.503906 48.761719 208.746094 C 48.789062 208.871094 48.8125 208.992188 48.847656 209.109375 L 48.933594 209.46875 C 48.964844 209.589844 48.992188 209.707031 49.023438 209.828125 L 49.125 210.179688 C 49.15625 210.296875 49.183594 210.417969 49.222656 210.535156 L 49.328125 210.890625 C 49.367188 211.007812 49.402344 211.128906 49.433594 211.242188 L 49.550781 211.59375 C 49.589844 211.707031 49.628906 211.824219 49.667969 211.941406 L 49.792969 212.285156 C 49.839844 212.402344 49.878906 212.515625 49.921875 212.628906 L 50.054688 212.972656 C 50.101562 213.085938 50.144531 213.199219 50.195312 213.3125 L 50.339844 213.652344 C 50.433594 213.878906 50.539062 214.101562 50.636719 214.320312 C 50.738281 214.542969 50.847656 214.757812 50.960938 214.980469 C 51.066406 215.203125 51.1875 215.410156 51.304688 215.628906 C 51.535156 216.054688 51.785156 216.472656 52.046875 216.882812 C 52.078125 216.933594 52.105469 216.988281 52.144531 217.039062 L 52.246094 217.1875 L 52.449219 217.492188 C 52.519531 217.59375 52.589844 217.691406 52.660156 217.792969 L 52.871094 218.089844 C 53.015625 218.289062 53.167969 218.476562 53.316406 218.671875 C 53.464844 218.859375 53.625 219.046875 53.777344 219.234375 C 53.9375 219.417969 54.097656 219.601562 54.257812 219.785156 L 54.757812 220.316406 L 55.273438 220.828125 C 55.453125 220.996094 55.628906 221.160156 55.8125 221.320312 C 55.996094 221.484375 56.175781 221.644531 56.367188 221.796875 C 56.554688 221.949219 56.742188 222.109375 56.9375 222.257812 C 57.132812 222.402344 57.324219 222.550781 57.519531 222.695312 C 57.71875 222.832031 57.917969 222.976562 58.117188 223.117188 C 58.324219 223.25 58.523438 223.386719 58.734375 223.515625 C 58.945312 223.640625 59.148438 223.769531 59.359375 223.894531 L 60 224.253906 L 60.648438 224.597656 C 61.011719 224.792969 61.234375 225.15625 61.25 225.546875 C 61.324219 226.796875 61.46875 228.035156 61.734375 229.226562 C 61.867188 229.824219 62.027344 230.402344 62.226562 230.972656 C 62.328125 231.257812 62.433594 231.535156 62.550781 231.808594 C 62.578125 231.875 62.605469 231.949219 62.636719 232.015625 L 62.734375 232.214844 C 62.792969 232.347656 62.867188 232.480469 62.925781 232.613281 C 63.464844 233.660156 64.167969 234.59375 65.015625 235.386719 L 65.09375 235.457031 L 65.179688 235.527344 L 65.339844 235.671875 C 65.449219 235.765625 65.5625 235.855469 65.675781 235.949219 C 65.792969 236.039062 65.910156 236.125 66.027344 236.214844 C 66.148438 236.296875 66.265625 236.386719 66.386719 236.464844 L 66.570312 236.585938 L 66.664062 236.648438 L 66.757812 236.703125 C 66.886719 236.78125 67.015625 236.855469 67.136719 236.921875 L 67.320312 237.027344 L 67.363281 237.058594 L 67.417969 237.085938 L 67.53125 237.140625 L 67.746094 237.25 L 67.929688 237.339844 L 68.128906 237.433594 C 68.195312 237.464844 68.261719 237.492188 68.332031 237.527344 L 68.742188 237.699219 L 69.164062 237.859375 L 69.269531 237.898438 L 69.375 237.929688 L 69.59375 238.003906 C 70.164062 238.191406 70.75 238.355469 71.351562 238.484375 C 72.542969 238.75 73.78125 238.90625 75.023438 238.984375 C 75.332031 239.003906 75.648438 239.011719 75.957031 239.027344 L 76.429688 239.039062 L 76.664062 239.042969 L 76.902344 239.042969 C 77.527344 239.050781 78.160156 239.027344 78.792969 239 C 80.058594 238.933594 81.320312 238.820312 82.582031 238.652344 C 83.84375 238.484375 85.101562 238.273438 86.355469 238.023438 C 87.609375 237.769531 88.863281 237.492188 90.105469 237.171875 C 91.347656 236.855469 92.585938 236.503906 93.816406 236.132812 C 95.046875 235.757812 96.265625 235.351562 97.480469 234.925781 L 98.390625 234.605469 L 99.300781 234.273438 C 99.90625 234.046875 100.507812 233.824219 101.109375 233.585938 C 101.40625 233.46875 101.707031 233.355469 102.011719 233.238281 L 102.910156 232.878906 C 103.210938 232.757812 103.507812 232.640625 103.808594 232.511719 L 104.257812 232.332031 L 104.703125 232.140625 C 105.894531 231.644531 107.074219 231.128906 108.25 230.597656 C 108.839844 230.332031 109.425781 230.0625 110.007812 229.785156 C 110.597656 229.507812 111.167969 229.230469 111.761719 228.941406 C 112.070312 228.792969 112.441406 228.921875 112.59375 229.230469 C 112.730469 229.472656 112.644531 229.796875 112.398438 229.972656 Z M 112.398438 229.972656 " fill-opacity="1" fill-rule="nonzero"/><path fill="#4f2020" d="M 117.417969 237.316406 L 117.523438 237.792969 L 117.632812 238.269531 L 117.859375 239.226562 C 118.015625 239.863281 118.167969 240.503906 118.316406 241.148438 C 118.464844 241.789062 118.609375 242.4375 118.742188 243.082031 C 118.875 243.730469 119.007812 244.382812 119.132812 245.039062 C 119.191406 245.363281 119.246094 245.691406 119.308594 246.023438 C 119.363281 246.347656 119.414062 246.679688 119.46875 247.007812 C 119.574219 247.667969 119.65625 248.332031 119.734375 248.996094 C 119.8125 249.660156 119.875 250.328125 119.917969 251.003906 C 119.96875 251.679688 119.992188 252.355469 119.996094 253.035156 C 120 253.714844 119.984375 254.402344 119.941406 255.085938 C 119.894531 255.773438 119.820312 256.472656 119.695312 257.164062 C 119.574219 257.855469 119.414062 258.550781 119.179688 259.25 C 118.949219 259.941406 118.660156 260.632812 118.253906 261.285156 C 117.855469 261.941406 117.34375 262.566406 116.722656 263.078125 C 116.109375 263.601562 115.375 263.992188 114.621094 264.246094 C 113.867188 264.5 113.09375 264.625 112.335938 264.652344 C 111.582031 264.679688 110.847656 264.625 110.128906 264.519531 C 110.097656 264.511719 110.0625 264.507812 110.03125 264.496094 L 110.019531 264.496094 L 108.640625 264.140625 L 107.261719 263.769531 C 106.808594 263.644531 106.347656 263.515625 105.894531 263.382812 C 105.4375 263.246094 104.984375 263.113281 104.53125 262.972656 C 104.074219 262.832031 103.621094 262.691406 103.171875 262.546875 C 102.722656 262.398438 102.265625 262.253906 101.816406 262.101562 C 101.367188 261.945312 100.917969 261.789062 100.46875 261.636719 L 99.128906 261.148438 C 98.683594 260.980469 98.234375 260.808594 97.792969 260.640625 L 96.464844 260.109375 L 95.144531 259.554688 L 93.835938 258.980469 C 93.40625 258.78125 92.972656 258.574219 92.539062 258.375 C 92.105469 258.171875 91.679688 257.953125 91.253906 257.75 C 91.039062 257.644531 90.828125 257.535156 90.617188 257.421875 L 89.976562 257.097656 C 89.765625 256.992188 89.554688 256.875 89.347656 256.757812 L 88.714844 256.417969 C 87.875 255.953125 87.050781 255.46875 86.234375 254.964844 C 85.417969 254.460938 84.609375 253.941406 83.824219 253.394531 L 83.523438 253.191406 C 83.421875 253.125 83.328125 253.050781 83.230469 252.980469 L 82.640625 252.558594 C 82.246094 252.28125 81.871094 251.984375 81.488281 251.691406 L 81.199219 251.46875 C 81.105469 251.394531 81.011719 251.320312 80.917969 251.242188 L 80.355469 250.78125 L 80.078125 250.554688 C 79.984375 250.476562 79.894531 250.394531 79.808594 250.316406 L 79.265625 249.839844 L 78.992188 249.601562 C 78.902344 249.527344 78.816406 249.4375 78.726562 249.355469 L 78.199219 248.855469 L 77.933594 248.605469 C 77.84375 248.523438 77.761719 248.433594 77.679688 248.351562 L 77.167969 247.835938 L 76.914062 247.578125 L 76.667969 247.3125 L 76.175781 246.773438 C 76.09375 246.6875 76.007812 246.597656 75.929688 246.503906 L 75.691406 246.226562 L 75.222656 245.671875 C 75.058594 245.492188 74.917969 245.296875 74.765625 245.105469 L 74.316406 244.527344 L 74.207031 244.382812 C 74.167969 244.335938 74.132812 244.285156 74.101562 244.234375 L 73.890625 243.9375 L 73.46875 243.339844 C 73.398438 243.238281 73.332031 243.140625 73.261719 243.035156 L 73.0625 242.730469 L 72.671875 242.113281 C 72.421875 241.699219 72.183594 241.273438 71.9375 240.851562 C 71.632812 240.320312 71.8125 239.648438 72.34375 239.34375 C 72.863281 239.042969 73.523438 239.210938 73.839844 239.714844 L 73.875 239.769531 C 74.113281 240.152344 74.34375 240.539062 74.582031 240.917969 L 75.15625 241.761719 C 75.214844 241.855469 75.28125 241.949219 75.347656 242.039062 L 75.753906 242.578125 L 75.953125 242.851562 C 75.988281 242.894531 76.019531 242.941406 76.054688 242.984375 L 76.160156 243.117188 L 76.585938 243.644531 C 76.730469 243.820312 76.867188 243.996094 77.019531 244.164062 L 77.46875 244.671875 L 77.6875 244.925781 C 77.765625 245.007812 77.84375 245.09375 77.921875 245.175781 L 78.394531 245.667969 L 78.625 245.910156 L 78.871094 246.148438 L 79.359375 246.625 C 79.441406 246.703125 79.519531 246.785156 79.601562 246.863281 L 79.851562 247.097656 L 80.355469 247.554688 C 80.441406 247.632812 80.523438 247.710938 80.613281 247.78125 L 80.871094 248.003906 L 81.394531 248.445312 C 81.480469 248.519531 81.566406 248.597656 81.652344 248.667969 L 81.921875 248.882812 L 82.453125 249.308594 C 82.542969 249.382812 82.628906 249.453125 82.71875 249.519531 L 82.992188 249.726562 L 83.539062 250.132812 C 83.632812 250.199219 83.722656 250.273438 83.816406 250.339844 L 84.09375 250.539062 L 84.652344 250.9375 C 84.75 251.003906 84.835938 251.070312 84.9375 251.136719 L 85.226562 251.328125 C 85.984375 251.84375 86.757812 252.335938 87.542969 252.8125 C 88.332031 253.289062 89.128906 253.75 89.933594 254.1875 L 90.542969 254.511719 C 90.75 254.621094 90.949219 254.734375 91.152344 254.839844 L 91.769531 255.152344 C 91.972656 255.257812 92.179688 255.371094 92.382812 255.464844 C 92.800781 255.664062 93.210938 255.875 93.625 256.066406 C 94.046875 256.261719 94.464844 256.460938 94.886719 256.648438 L 96.15625 257.207031 L 97.4375 257.746094 L 98.722656 258.257812 L 100.019531 258.757812 L 101.324219 259.238281 C 101.761719 259.394531 102.199219 259.542969 102.632812 259.699219 C 103.070312 259.847656 103.507812 259.992188 103.953125 260.140625 C 104.390625 260.285156 104.835938 260.421875 105.277344 260.5625 C 105.722656 260.699219 106.164062 260.832031 106.609375 260.964844 C 107.050781 261.097656 107.5 261.226562 107.945312 261.351562 L 109.289062 261.722656 L 110.636719 262.078125 L 110.523438 262.054688 C 111.113281 262.148438 111.695312 262.199219 112.253906 262.183594 C 112.816406 262.167969 113.359375 262.082031 113.851562 261.921875 C 113.914062 261.902344 113.980469 261.882812 114.035156 261.863281 L 114.210938 261.789062 C 114.335938 261.746094 114.4375 261.679688 114.554688 261.625 C 114.617188 261.597656 114.667969 261.5625 114.722656 261.53125 L 114.882812 261.429688 C 114.933594 261.390625 114.984375 261.351562 115.039062 261.320312 L 115.15625 261.238281 L 115.195312 261.203125 C 115.585938 260.882812 115.929688 260.476562 116.226562 260.019531 C 116.519531 259.558594 116.75 259.035156 116.945312 258.480469 C 117.140625 257.925781 117.285156 257.339844 117.394531 256.742188 C 117.507812 256.144531 117.582031 255.523438 117.640625 254.90625 C 117.695312 254.28125 117.722656 253.648438 117.734375 253.019531 C 117.75 252.382812 117.738281 251.746094 117.722656 251.101562 C 117.707031 250.460938 117.667969 249.820312 117.628906 249.175781 C 117.589844 248.535156 117.535156 247.886719 117.472656 247.238281 C 117.445312 246.917969 117.410156 246.59375 117.378906 246.273438 C 117.34375 245.949219 117.3125 245.625 117.273438 245.304688 C 117.199219 244.65625 117.125 244.007812 117.046875 243.359375 L 116.800781 241.40625 C 116.71875 240.753906 116.636719 240.101562 116.558594 239.441406 C 116.519531 239.117188 116.484375 238.785156 116.453125 238.453125 C 116.4375 238.285156 116.417969 238.121094 116.40625 237.953125 C 116.402344 237.871094 116.390625 237.78125 116.386719 237.699219 L 116.371094 237.449219 C 116.351562 237.15625 116.574219 236.90625 116.867188 236.890625 C 117.132812 236.886719 117.363281 237.066406 117.417969 237.316406 Z M 117.417969 237.316406 " fill-opacity="1" fill-rule="nonzero"/><path fill="#ffffff" d="M 191.59375 200.019531 C 191.273438 206.910156 188.460938 214.8125 185.527344 220.917969 C 198.703125 189.140625 177.25 159.648438 151.65625 158.75 C 151.667969 158.78125 151.671875 158.820312 151.679688 158.847656 C 151.785156 159.933594 149.785156 161.007812 147.226562 161.257812 C 144.65625 161.507812 142.496094 160.832031 142.382812 159.75 C 142.382812 159.730469 142.382812 159.707031 142.382812 159.691406 C 134.453125 161.59375 126.46875 166.425781 119.292969 174.910156 C 126.421875 160.566406 143.171875 153.089844 158.234375 156.109375 L 158.238281 156.109375 C 178.730469 158.960938 193.269531 179.679688 191.59375 200.019531 Z M 191.59375 200.019531 " fill-opacity="0.6" fill-rule="nonzero"/><path fill="#4f2020" d="M 105.992188 233.734375 C 105.992188 233.734375 105.847656 233.957031 105.601562 234.339844 C 105.539062 234.433594 105.464844 234.542969 105.394531 234.65625 C 105.324219 234.765625 105.25 234.894531 105.167969 235.019531 C 105.085938 235.152344 105 235.292969 104.90625 235.433594 C 104.816406 235.585938 104.722656 235.746094 104.628906 235.910156 C 104.535156 236.078125 104.429688 236.25 104.328125 236.425781 C 104.230469 236.609375 104.125 236.796875 104.019531 236.984375 C 103.964844 237.078125 103.914062 237.179688 103.859375 237.277344 C 103.808594 237.378906 103.753906 237.476562 103.699219 237.582031 C 103.59375 237.789062 103.480469 237.996094 103.371094 238.207031 C 103.160156 238.640625 102.9375 239.082031 102.734375 239.542969 C 102.515625 239.996094 102.324219 240.472656 102.117188 240.941406 C 101.929688 241.417969 101.730469 241.894531 101.558594 242.371094 C 101.375 242.839844 101.21875 243.316406 101.058594 243.769531 C 100.980469 243.996094 100.914062 244.222656 100.839844 244.445312 C 100.808594 244.554688 100.769531 244.667969 100.734375 244.773438 C 100.703125 244.882812 100.675781 244.988281 100.640625 245.09375 C 100.582031 245.304688 100.519531 245.511719 100.460938 245.710938 C 100.402344 245.910156 100.355469 246.105469 100.304688 246.292969 C 100.253906 246.480469 100.210938 246.660156 100.164062 246.832031 C 100.125 247.003906 100.085938 247.164062 100.046875 247.316406 C 100.011719 247.472656 99.976562 247.609375 99.949219 247.742188 C 99.914062 247.875 99.894531 248 99.871094 248.109375 C 99.777344 248.550781 99.722656 248.800781 99.722656 248.800781 L 99.714844 248.816406 C 99.636719 249.175781 99.285156 249.410156 98.917969 249.332031 C 98.566406 249.261719 98.339844 248.921875 98.394531 248.566406 C 98.394531 248.566406 98.441406 248.308594 98.511719 247.84375 C 98.527344 247.726562 98.550781 247.601562 98.574219 247.460938 C 98.601562 247.324219 98.628906 247.171875 98.65625 247.011719 C 98.683594 246.851562 98.71875 246.679688 98.75 246.503906 C 98.789062 246.328125 98.828125 246.140625 98.867188 245.945312 C 98.910156 245.75 98.949219 245.546875 99 245.335938 C 99.050781 245.125 99.101562 244.910156 99.15625 244.6875 C 99.183594 244.578125 99.207031 244.460938 99.238281 244.351562 C 99.265625 244.234375 99.300781 244.125 99.328125 244.007812 C 99.390625 243.777344 99.449219 243.539062 99.515625 243.292969 C 99.65625 242.8125 99.792969 242.3125 99.953125 241.816406 C 100.109375 241.3125 100.289062 240.808594 100.460938 240.304688 C 100.648438 239.800781 100.824219 239.296875 101.023438 238.8125 C 101.214844 238.320312 101.425781 237.84375 101.617188 237.382812 C 101.71875 237.152344 101.824219 236.929688 101.921875 236.707031 C 101.972656 236.597656 102.023438 236.488281 102.074219 236.382812 C 102.121094 236.277344 102.171875 236.171875 102.222656 236.066406 C 102.324219 235.859375 102.421875 235.65625 102.515625 235.460938 C 102.609375 235.269531 102.710938 235.082031 102.804688 234.902344 C 102.898438 234.726562 102.980469 234.554688 103.070312 234.390625 C 103.160156 234.230469 103.242188 234.074219 103.324219 233.925781 C 103.402344 233.78125 103.480469 233.640625 103.546875 233.515625 C 103.613281 233.394531 103.679688 233.28125 103.738281 233.183594 C 103.96875 232.785156 104.097656 232.558594 104.097656 232.558594 C 104.402344 232.027344 105.085938 231.847656 105.609375 232.152344 C 106.144531 232.457031 106.320312 233.136719 106.015625 233.664062 C 106.011719 233.703125 106 233.726562 105.992188 233.734375 Z M 105.992188 233.734375 " fill-opacity="1" fill-rule="nonzero"/><path fill="#4f2020" d="M 78.023438 226.558594 C 76.703125 227.984375 79.957031 229.585938 81.003906 229.984375 C 82.636719 230.53125 83.566406 227.476562 84.027344 226.332031 C 84 224.074219 79.1875 225.511719 78.023438 226.558594 Z M 78.023438 226.558594 " fill-opacity="1" fill-rule="nonzero"/><path fill="#4f2020" d="M 162.714844 240.664062 C 157 240.664062 151.257812 239.09375 146.53125 236.242188 C 141.445312 233.171875 137.804688 228.828125 135.976562 223.667969 L 135.734375 223.386719 C 133.554688 220.902344 131.304688 218.328125 129.390625 215.4375 C 125.148438 209.230469 121.886719 202.3125 119.96875 195.4375 C 117.855469 187.871094 117.324219 180.46875 118.394531 173.433594 C 118.421875 173.265625 118.480469 173.105469 118.582031 172.96875 C 122.722656 167.035156 127.59375 162.417969 133.0625 159.242188 C 138.679688 155.976562 144.773438 154.324219 151.183594 154.324219 C 153.570312 154.324219 156.015625 154.554688 158.453125 155.019531 C 163.382812 155.933594 168.132812 157.851562 172.558594 160.714844 C 176.828125 163.476562 180.605469 166.980469 183.777344 171.128906 C 186.957031 175.296875 189.355469 179.878906 190.902344 184.757812 C 192.515625 189.835938 193.121094 195 192.703125 200.097656 C 192.527344 203.351562 191.6875 207.519531 190.351562 211.824219 C 188.917969 216.445312 186.988281 221 184.773438 224.996094 C 182.234375 229.589844 179.4375 233.253906 176.476562 235.894531 C 172.996094 238.992188 169.367188 240.566406 165.707031 240.566406 C 165.5625 240.566406 165.417969 240.566406 165.277344 240.558594 C 164.425781 240.632812 163.566406 240.664062 162.714844 240.664062 Z M 120.550781 174.019531 C 118.675781 186.882812 122.558594 201.507812 131.230469 214.199219 C 131.238281 214.203125 131.238281 214.210938 131.242188 214.210938 C 133.074219 216.972656 135.273438 219.492188 137.410156 221.925781 L 137.796875 222.367188 C 137.890625 222.480469 137.964844 222.601562 138.011719 222.738281 C 141.175781 231.988281 151.335938 238.445312 162.71875 238.445312 C 163.535156 238.445312 164.355469 238.414062 165.152344 238.339844 C 165.199219 238.335938 165.246094 238.335938 165.292969 238.335938 C 165.429688 238.339844 165.570312 238.339844 165.707031 238.339844 C 173.667969 238.339844 179.855469 229.304688 182.839844 223.917969 C 186.992188 216.417969 190.136719 206.5625 190.496094 199.949219 C 190.496094 199.9375 190.496094 199.925781 190.496094 199.914062 C 192.105469 180.316406 177.25 160.746094 158.050781 157.179688 C 155.742188 156.742188 153.4375 156.519531 151.191406 156.519531 C 139.378906 156.535156 128.507812 162.742188 120.550781 174.019531 Z M 120.550781 174.019531 " fill-opacity="1" fill-rule="nonzero"/><path fill="#4f2020" d="M 136.050781 224.011719 C 136.050781 224.011719 136.023438 223.941406 135.976562 223.800781 C 135.957031 223.734375 135.929688 223.648438 135.894531 223.546875 C 135.882812 223.523438 135.878906 223.496094 135.867188 223.46875 C 135.855469 223.441406 135.851562 223.417969 135.839844 223.382812 C 135.824219 223.316406 135.804688 223.242188 135.785156 223.164062 C 135.769531 223.085938 135.746094 223.003906 135.722656 222.921875 C 135.710938 222.878906 135.699219 222.832031 135.691406 222.789062 C 135.679688 222.746094 135.667969 222.699219 135.664062 222.65625 C 135.628906 222.480469 135.597656 222.285156 135.5625 222.074219 C 135.535156 221.863281 135.511719 221.644531 135.492188 221.410156 C 135.480469 221.292969 135.480469 221.171875 135.46875 221.050781 C 135.460938 220.929688 135.457031 220.800781 135.453125 220.667969 C 135.453125 220.542969 135.457031 220.410156 135.457031 220.277344 C 135.457031 220.210938 135.460938 220.144531 135.460938 220.070312 C 135.460938 220.039062 135.460938 220.003906 135.46875 219.964844 C 135.46875 219.933594 135.472656 219.898438 135.472656 219.859375 C 135.496094 219.585938 135.511719 219.296875 135.5625 219.007812 C 135.585938 218.863281 135.601562 218.714844 135.628906 218.566406 C 135.664062 218.417969 135.691406 218.265625 135.722656 218.117188 C 135.75 217.96875 135.789062 217.8125 135.835938 217.664062 C 135.855469 217.585938 135.871094 217.515625 135.894531 217.4375 C 135.917969 217.359375 135.933594 217.28125 135.960938 217.210938 C 136.011719 217.0625 136.0625 216.90625 136.113281 216.75 L 136.148438 216.632812 L 136.195312 216.519531 C 136.222656 216.441406 136.253906 216.367188 136.285156 216.292969 C 136.3125 216.214844 136.34375 216.136719 136.371094 216.066406 C 136.398438 215.988281 136.4375 215.914062 136.472656 215.835938 C 136.539062 215.6875 136.609375 215.535156 136.683594 215.382812 C 136.839844 215.089844 136.988281 214.785156 137.164062 214.5 C 137.332031 214.203125 137.53125 213.929688 137.71875 213.644531 C 137.925781 213.375 138.125 213.105469 138.347656 212.847656 C 138.558594 212.589844 138.796875 212.34375 139.023438 212.109375 C 139.265625 211.878906 139.496094 211.640625 139.75 211.4375 C 139.808594 211.386719 139.871094 211.332031 139.9375 211.28125 L 140.125 211.132812 C 140.253906 211.035156 140.382812 210.941406 140.507812 210.84375 C 140.570312 210.796875 140.636719 210.757812 140.703125 210.710938 C 140.769531 210.667969 140.832031 210.625 140.898438 210.585938 C 140.964844 210.542969 141.023438 210.503906 141.089844 210.457031 C 141.15625 210.414062 141.222656 210.378906 141.289062 210.34375 C 141.425781 210.265625 141.550781 210.191406 141.679688 210.113281 C 141.8125 210.046875 141.941406 209.980469 142.074219 209.914062 C 142.140625 209.882812 142.199219 209.855469 142.265625 209.820312 C 142.328125 209.789062 142.394531 209.765625 142.460938 209.738281 C 142.589844 209.683594 142.714844 209.628906 142.84375 209.578125 C 142.90625 209.550781 142.972656 209.527344 143.03125 209.507812 C 143.09375 209.484375 143.160156 209.460938 143.222656 209.441406 C 143.34375 209.394531 143.464844 209.351562 143.582031 209.316406 C 143.703125 209.285156 143.820312 209.25 143.9375 209.21875 C 143.992188 209.203125 144.050781 209.183594 144.109375 209.175781 C 144.136719 209.167969 144.164062 209.15625 144.191406 209.152344 C 144.21875 209.148438 144.246094 209.140625 144.273438 209.136719 C 144.386719 209.113281 144.496094 209.089844 144.601562 209.070312 C 144.652344 209.058594 144.707031 209.046875 144.757812 209.035156 C 144.785156 209.03125 144.808594 209.023438 144.835938 209.019531 C 144.863281 209.015625 144.882812 209.015625 144.914062 209.007812 C 145.113281 208.980469 145.300781 208.957031 145.472656 208.9375 C 145.644531 208.925781 145.804688 208.917969 145.949219 208.910156 C 146.019531 208.902344 146.089844 208.902344 146.15625 208.898438 C 146.222656 208.898438 146.277344 208.898438 146.332031 208.898438 C 146.441406 208.902344 146.539062 208.902344 146.613281 208.902344 C 146.769531 208.910156 146.847656 208.914062 146.847656 208.914062 C 147.097656 208.925781 147.292969 209.128906 147.28125 209.378906 C 147.273438 209.582031 147.125 209.753906 146.9375 209.800781 L 146.902344 209.8125 C 146.902344 209.8125 146.832031 209.828125 146.691406 209.859375 C 146.625 209.878906 146.542969 209.894531 146.441406 209.914062 C 146.394531 209.925781 146.34375 209.9375 146.289062 209.953125 C 146.230469 209.972656 146.171875 209.988281 146.109375 210.003906 C 145.988281 210.042969 145.847656 210.078125 145.707031 210.121094 C 145.5625 210.175781 145.40625 210.226562 145.238281 210.285156 C 145.195312 210.296875 145.15625 210.3125 145.113281 210.335938 C 145.066406 210.351562 145.027344 210.371094 144.984375 210.390625 C 144.894531 210.425781 144.808594 210.464844 144.71875 210.503906 C 144.695312 210.511719 144.671875 210.519531 144.652344 210.53125 C 144.628906 210.542969 144.605469 210.550781 144.585938 210.5625 C 144.539062 210.585938 144.496094 210.609375 144.445312 210.628906 C 144.351562 210.675781 144.257812 210.71875 144.164062 210.769531 C 144.070312 210.816406 143.976562 210.875 143.875 210.921875 C 143.824219 210.949219 143.777344 210.976562 143.726562 211.007812 C 143.675781 211.035156 143.625 211.0625 143.574219 211.089844 C 143.476562 211.148438 143.375 211.210938 143.277344 211.273438 C 143.226562 211.304688 143.175781 211.332031 143.125 211.367188 C 143.078125 211.398438 143.027344 211.4375 142.976562 211.472656 C 142.878906 211.542969 142.773438 211.609375 142.671875 211.679688 C 142.570312 211.757812 142.472656 211.835938 142.371094 211.914062 C 142.324219 211.953125 142.273438 211.992188 142.222656 212.03125 C 142.171875 212.074219 142.121094 212.113281 142.074219 212.15625 C 142.023438 212.203125 141.972656 212.242188 141.921875 212.285156 C 141.875 212.328125 141.824219 212.367188 141.773438 212.417969 C 141.378906 212.773438 141.007812 213.171875 140.648438 213.589844 C 140.480469 213.8125 140.296875 214.023438 140.144531 214.25 C 139.972656 214.46875 139.832031 214.714844 139.675781 214.941406 C 139.539062 215.183594 139.390625 215.417969 139.265625 215.667969 C 139.132812 215.910156 139.023438 216.164062 138.902344 216.40625 C 138.683594 216.910156 138.5 217.414062 138.351562 217.914062 C 138.21875 218.410156 138.097656 218.898438 138.035156 219.363281 C 137.992188 219.59375 137.980469 219.824219 137.953125 220.042969 C 137.945312 220.070312 137.945312 220.097656 137.941406 220.125 C 137.941406 220.15625 137.941406 220.183594 137.9375 220.210938 C 137.929688 220.265625 137.929688 220.316406 137.925781 220.371094 C 137.917969 220.476562 137.914062 220.582031 137.910156 220.6875 C 137.910156 220.890625 137.902344 221.085938 137.910156 221.273438 C 137.917969 221.460938 137.925781 221.636719 137.9375 221.796875 C 137.953125 221.964844 137.96875 222.121094 137.980469 222.261719 C 137.980469 222.300781 137.984375 222.328125 137.992188 222.363281 C 137.996094 222.394531 138.003906 222.421875 138.007812 222.457031 C 138.019531 222.519531 138.023438 222.578125 138.035156 222.628906 C 138.042969 222.683594 138.050781 222.734375 138.058594 222.785156 C 138.058594 222.804688 138.070312 222.839844 138.074219 222.867188 C 138.082031 222.894531 138.085938 222.921875 138.089844 222.945312 C 138.113281 223.050781 138.128906 223.132812 138.148438 223.203125 C 138.175781 223.347656 138.191406 223.417969 138.191406 223.417969 C 138.3125 224.023438 137.925781 224.605469 137.320312 224.726562 C 136.769531 224.847656 136.226562 224.527344 136.050781 224.011719 Z M 136.050781 224.011719 " fill-opacity="1" fill-rule="nonzero"/><path fill="#4f2020" d="M 152.992188 201.582031 C 152.992188 201.582031 153.019531 201.628906 153.070312 201.726562 C 153.097656 201.769531 153.125 201.828125 153.164062 201.894531 C 153.179688 201.929688 153.203125 201.96875 153.21875 202 C 153.242188 202.035156 153.265625 202.066406 153.285156 202.105469 C 153.332031 202.179688 153.378906 202.257812 153.429688 202.34375 C 153.492188 202.433594 153.550781 202.53125 153.617188 202.632812 C 153.683594 202.730469 153.761719 202.835938 153.847656 202.949219 C 153.925781 203.058594 154.019531 203.167969 154.105469 203.285156 C 154.152344 203.339844 154.207031 203.402344 154.25 203.457031 C 154.300781 203.511719 154.351562 203.578125 154.40625 203.632812 C 154.460938 203.691406 154.515625 203.75 154.574219 203.8125 C 154.601562 203.839844 154.628906 203.871094 154.65625 203.898438 C 154.683594 203.925781 154.71875 203.960938 154.746094 203.988281 C 154.804688 204.050781 154.859375 204.109375 154.925781 204.171875 C 154.992188 204.226562 155.054688 204.289062 155.121094 204.347656 C 155.15625 204.375 155.1875 204.410156 155.222656 204.4375 C 155.253906 204.464844 155.289062 204.492188 155.328125 204.523438 C 155.398438 204.582031 155.464844 204.640625 155.539062 204.695312 C 155.824219 204.921875 156.136719 205.140625 156.457031 205.351562 C 156.625 205.445312 156.785156 205.550781 156.957031 205.636719 C 157.125 205.738281 157.308594 205.816406 157.480469 205.902344 C 157.65625 205.980469 157.832031 206.0625 158.015625 206.128906 C 158.195312 206.207031 158.382812 206.261719 158.558594 206.328125 C 158.742188 206.378906 158.925781 206.445312 159.109375 206.488281 C 159.292969 206.539062 159.476562 206.574219 159.652344 206.617188 C 160.011719 206.683594 160.367188 206.746094 160.699219 206.761719 C 160.871094 206.785156 161.035156 206.777344 161.195312 206.789062 C 161.355469 206.792969 161.511719 206.789062 161.660156 206.789062 C 161.808594 206.785156 161.953125 206.777344 162.09375 206.765625 C 162.230469 206.753906 162.359375 206.746094 162.480469 206.734375 C 162.601562 206.71875 162.71875 206.699219 162.824219 206.6875 C 162.929688 206.671875 163.03125 206.65625 163.117188 206.640625 C 163.296875 206.613281 163.433594 206.578125 163.535156 206.5625 C 163.632812 206.546875 163.683594 206.535156 163.683594 206.535156 L 163.734375 206.523438 C 164.0625 206.460938 164.371094 206.679688 164.433594 207 C 164.476562 207.242188 164.367188 207.480469 164.171875 207.609375 C 164.171875 207.609375 164.121094 207.640625 164.023438 207.703125 C 163.972656 207.734375 163.910156 207.769531 163.84375 207.8125 C 163.8125 207.835938 163.773438 207.855469 163.726562 207.882812 C 163.683594 207.90625 163.640625 207.929688 163.59375 207.957031 C 163.5 208.007812 163.394531 208.0625 163.273438 208.117188 C 163.15625 208.167969 163.023438 208.222656 162.886719 208.28125 C 162.8125 208.316406 162.742188 208.339844 162.664062 208.359375 C 162.585938 208.386719 162.507812 208.410156 162.425781 208.4375 C 162.34375 208.464844 162.257812 208.488281 162.175781 208.511719 C 162.085938 208.53125 162 208.554688 161.910156 208.582031 C 161.820312 208.605469 161.726562 208.621094 161.625 208.636719 C 161.53125 208.652344 161.433594 208.675781 161.332031 208.691406 C 161.234375 208.710938 161.132812 208.71875 161.027344 208.730469 C 160.976562 208.738281 160.921875 208.742188 160.871094 208.746094 C 160.816406 208.753906 160.765625 208.753906 160.710938 208.757812 C 160.605469 208.765625 160.496094 208.777344 160.382812 208.78125 C 160.273438 208.78125 160.164062 208.78125 160.046875 208.78125 C 159.992188 208.78125 159.929688 208.78125 159.875 208.78125 C 159.820312 208.78125 159.757812 208.777344 159.703125 208.769531 C 159.585938 208.765625 159.46875 208.757812 159.351562 208.746094 C 159.238281 208.738281 159.121094 208.71875 158.996094 208.710938 C 158.875 208.699219 158.757812 208.671875 158.644531 208.648438 C 158.40625 208.609375 158.167969 208.546875 157.921875 208.492188 C 157.683594 208.421875 157.445312 208.359375 157.207031 208.265625 C 156.96875 208.183594 156.742188 208.082031 156.507812 207.984375 C 156.28125 207.875 156.054688 207.761719 155.835938 207.640625 C 155.613281 207.523438 155.410156 207.382812 155.199219 207.25 C 155 207.105469 154.792969 206.964844 154.613281 206.804688 C 154.421875 206.65625 154.246094 206.488281 154.074219 206.328125 C 153.734375 205.996094 153.429688 205.660156 153.175781 205.3125 C 153.140625 205.265625 153.109375 205.222656 153.082031 205.183594 C 153.046875 205.140625 153.019531 205.09375 152.992188 205.050781 C 152.9375 204.960938 152.875 204.878906 152.820312 204.789062 C 152.765625 204.707031 152.71875 204.621094 152.671875 204.53125 C 152.621094 204.449219 152.570312 204.363281 152.53125 204.28125 C 152.492188 204.199219 152.449219 204.117188 152.410156 204.03125 C 152.371094 203.949219 152.332031 203.878906 152.300781 203.792969 C 152.265625 203.71875 152.238281 203.640625 152.203125 203.5625 C 152.175781 203.484375 152.144531 203.417969 152.121094 203.339844 C 152.078125 203.195312 152.03125 203.0625 151.992188 202.9375 C 151.960938 202.808594 151.925781 202.683594 151.90625 202.578125 C 151.894531 202.523438 151.882812 202.472656 151.871094 202.421875 C 151.859375 202.371094 151.859375 202.339844 151.855469 202.300781 C 151.84375 202.222656 151.832031 202.160156 151.828125 202.105469 C 151.816406 202 151.8125 201.945312 151.8125 201.945312 C 151.773438 201.59375 152.023438 201.277344 152.375 201.230469 C 152.621094 201.226562 152.871094 201.359375 152.992188 201.582031 Z M 152.992188 201.582031 " fill-opacity="1" fill-rule="nonzero"/><path fill="#4f2020" d="M 133.101562 200.292969 C 130.09375 200.292969 126.96875 199.371094 124.300781 197.707031 C 121.621094 196.03125 119.746094 193.820312 119.015625 191.480469 C 119.003906 191.449219 118.992188 191.410156 118.988281 191.375 C 117.699219 185.144531 117.5 179.109375 118.386719 173.433594 C 118.414062 173.265625 118.476562 173.105469 118.578125 172.96875 C 122.964844 166.691406 128.140625 161.90625 133.980469 158.734375 C 139.378906 155.800781 145.191406 154.3125 151.246094 154.3125 C 153.640625 154.3125 156.0625 154.550781 158.460938 155.019531 C 158.625 155.054688 158.78125 155.121094 158.914062 155.222656 C 160.871094 156.703125 161.828125 158.566406 161.605469 160.480469 C 161.597656 160.546875 161.582031 160.609375 161.566406 160.675781 C 160.785156 163.253906 159.160156 164.566406 157.441406 165.949219 C 154.933594 167.96875 152.089844 170.261719 150.03125 177.457031 L 149.832031 178.148438 C 148.671875 182.222656 147.472656 186.425781 146 190.496094 C 144.796875 193.820312 142.953125 196.363281 140.535156 198.042969 C 138.414062 199.515625 135.84375 200.292969 133.101562 200.292969 Z M 121.148438 190.871094 C 121.726562 192.664062 123.300781 194.46875 125.480469 195.832031 C 127.796875 197.28125 130.503906 198.078125 133.101562 198.078125 C 136.011719 198.078125 141.285156 196.992188 143.910156 189.742188 C 145.355469 185.746094 146.542969 181.574219 147.695312 177.539062 L 147.894531 176.847656 C 148.886719 173.367188 150.175781 170.597656 151.828125 168.390625 C 153.273438 166.460938 154.746094 165.269531 156.046875 164.222656 C 157.652344 162.933594 158.820312 161.992188 159.414062 160.132812 C 159.519531 158.8125 158.515625 157.742188 157.777344 157.144531 C 155.609375 156.734375 153.414062 156.523438 151.25 156.523438 C 139.417969 156.523438 128.519531 162.742188 120.550781 174.023438 C 119.746094 179.347656 119.953125 185.011719 121.148438 190.871094 Z M 121.148438 190.871094 " fill-opacity="1" fill-rule="nonzero"/><path fill="#4f2020" d="M 182.367188 224.609375 C 181.722656 224.609375 181.207031 224.410156 180.847656 224.210938 C 178.757812 223.054688 177.910156 219.644531 178.429688 217.183594 C 178.558594 216.585938 179.144531 216.203125 179.742188 216.332031 C 180.34375 216.457031 180.726562 217.042969 180.597656 217.640625 C 180.226562 219.40625 180.878906 221.703125 181.917969 222.273438 C 182.421875 222.554688 183.082031 222.3125 183.871094 221.554688 C 184.308594 221.128906 185.011719 221.144531 185.4375 221.582031 C 185.867188 222.023438 185.851562 222.722656 185.410156 223.148438 C 184.246094 224.273438 183.203125 224.609375 182.367188 224.609375 Z M 182.367188 224.609375 " fill-opacity="1" fill-rule="nonzero"/><path fill="#4f2020" d="M 175.703125 236.375 C 175.496094 236.375 175.289062 236.320312 175.109375 236.203125 C 174.59375 235.878906 174.4375 235.191406 174.765625 234.675781 C 176.40625 232.082031 176.316406 230.554688 176.1875 228.433594 C 176.039062 225.90625 175.851562 222.753906 178.375 216.972656 C 178.617188 216.414062 179.273438 216.152344 179.832031 216.398438 C 180.394531 216.640625 180.652344 217.292969 180.410156 217.851562 C 178.101562 223.152344 178.261719 225.886719 178.40625 228.300781 C 178.539062 230.542969 178.667969 232.65625 176.636719 235.855469 C 176.429688 236.191406 176.066406 236.375 175.703125 236.375 Z M 175.703125 236.375 " fill-opacity="1" fill-rule="nonzero"/><path fill="#4f2020" d="M 162.785156 222.839844 C 165.105469 224.484375 166.308594 225.882812 172.65625 228.488281 C 178.21875 230.769531 167.925781 240.539062 160.960938 237.183594 C 154.269531 234.0625 156.546875 219.035156 162.785156 222.839844 Z M 162.785156 222.839844 " fill-opacity="1" fill-rule="nonzero"/><path fill="#4f2020" d="M 143.53125 219.882812 C 143.503906 217.972656 146.503906 217.972656 146.476562 219.882812 C 146.503906 221.789062 143.503906 221.789062 143.53125 219.882812 Z M 143.53125 219.882812 " fill-opacity="1" fill-rule="nonzero"/><path fill="#4f2020" d="M 148.046875 223.269531 C 148.019531 221.359375 151.019531 221.359375 150.992188 223.269531 C 151.019531 225.175781 148.019531 225.175781 148.046875 223.269531 Z M 148.046875 223.269531 " fill-opacity="1" fill-rule="nonzero"/><path fill="#4f2020" d="M 143.925781 225.8125 C 143.910156 224.417969 146.097656 224.417969 146.078125 225.8125 C 146.097656 227.207031 143.910156 227.207031 143.925781 225.8125 Z M 143.925781 225.8125 " fill-opacity="1" fill-rule="nonzero"/><path fill="#4f2020" d="M 98.988281 178.90625 C 96.386719 180.847656 93.925781 182.28125 90.78125 182.011719 C 88.839844 179.316406 88.324219 175.878906 88.652344 172.625 C 92.210938 174.523438 95.664062 176.621094 98.988281 178.90625 Z M 98.988281 178.90625 " fill-opacity="0.2" fill-rule="nonzero"/><path fill="#4f2020" d="M 160.484375 160.355469 C 158.769531 165.996094 152.527344 164.605469 148.945312 177.152344 C 147.703125 181.507812 146.476562 185.859375 144.933594 190.117188 C 139.566406 204.941406 122.464844 198.851562 120.050781 191.148438 C 118.9375 185.734375 118.613281 180.246094 119.28125 174.9375 C 119.597656 191.265625 136.925781 194.8125 142.3125 178.578125 C 148.679688 160.09375 154.222656 168.074219 160.261719 158.65625 C 160.46875 159.191406 160.550781 159.761719 160.484375 160.355469 Z M 160.484375 160.355469 " fill-opacity="0.2" fill-rule="nonzero"/><path fill="#4f2020" d="M 98.566406 207.230469 C 98.566406 207.230469 98.574219 207.296875 98.585938 207.417969 C 98.589844 207.480469 98.597656 207.558594 98.601562 207.648438 C 98.601562 207.691406 98.605469 207.734375 98.605469 207.789062 C 98.605469 207.847656 98.601562 207.90625 98.601562 207.972656 C 98.597656 208.101562 98.589844 208.25 98.585938 208.40625 C 98.574219 208.554688 98.550781 208.714844 98.535156 208.890625 C 98.527344 208.980469 98.507812 209.070312 98.492188 209.15625 C 98.472656 209.25 98.457031 209.347656 98.441406 209.441406 C 98.433594 209.460938 98.429688 209.488281 98.429688 209.511719 C 98.421875 209.535156 98.417969 209.5625 98.414062 209.582031 C 98.402344 209.632812 98.390625 209.683594 98.375 209.734375 C 98.347656 209.832031 98.324219 209.9375 98.296875 210.042969 C 98.269531 210.148438 98.230469 210.253906 98.195312 210.359375 C 98.15625 210.464844 98.128906 210.574219 98.085938 210.683594 C 98.042969 210.796875 97.996094 210.902344 97.953125 211.015625 C 97.929688 211.074219 97.90625 211.128906 97.878906 211.1875 C 97.851562 211.242188 97.832031 211.300781 97.800781 211.355469 C 97.753906 211.464844 97.691406 211.582031 97.636719 211.699219 C 97.574219 211.808594 97.515625 211.925781 97.449219 212.035156 C 97.414062 212.089844 97.386719 212.152344 97.347656 212.207031 C 97.316406 212.261719 97.277344 212.316406 97.242188 212.375 C 97.171875 212.484375 97.097656 212.601562 97.019531 212.710938 C 96.710938 213.160156 96.351562 213.589844 95.957031 214.003906 C 95.558594 214.410156 95.113281 214.792969 94.648438 215.140625 C 94.175781 215.476562 93.675781 215.78125 93.167969 216.035156 C 92.90625 216.160156 92.652344 216.28125 92.390625 216.378906 C 92.257812 216.429688 92.128906 216.484375 92.003906 216.53125 C 91.867188 216.574219 91.742188 216.613281 91.609375 216.65625 C 91.480469 216.695312 91.347656 216.730469 91.21875 216.761719 C 91.152344 216.777344 91.09375 216.796875 91.027344 216.8125 C 90.960938 216.828125 90.898438 216.839844 90.832031 216.851562 C 90.703125 216.878906 90.578125 216.898438 90.449219 216.929688 C 90.320312 216.949219 90.199219 216.964844 90.070312 216.984375 C 90.011719 216.988281 89.949219 217 89.890625 217.003906 C 89.828125 217.011719 89.765625 217.015625 89.707031 217.023438 C 89.585938 217.03125 89.46875 217.039062 89.351562 217.050781 C 89.234375 217.054688 89.117188 217.054688 89.007812 217.054688 C 88.898438 217.054688 88.785156 217.0625 88.675781 217.054688 C 88.570312 217.050781 88.457031 217.042969 88.359375 217.039062 C 88.253906 217.03125 88.152344 217.03125 88.058594 217.015625 C 87.960938 217.003906 87.863281 216.996094 87.777344 216.984375 C 87.683594 216.972656 87.59375 216.960938 87.511719 216.945312 C 87.339844 216.910156 87.175781 216.878906 87.035156 216.851562 C 86.890625 216.816406 86.757812 216.777344 86.632812 216.746094 C 86.574219 216.730469 86.515625 216.710938 86.46875 216.695312 C 86.417969 216.679688 86.367188 216.664062 86.324219 216.644531 C 86.234375 216.613281 86.15625 216.585938 86.097656 216.5625 C 85.972656 216.511719 85.90625 216.492188 85.90625 216.492188 C 85.550781 216.351562 85.378906 215.953125 85.519531 215.601562 C 85.625 215.335938 85.878906 215.167969 86.144531 215.164062 L 86.207031 215.164062 C 86.207031 215.164062 86.269531 215.164062 86.382812 215.15625 C 86.441406 215.15625 86.511719 215.15625 86.589844 215.15625 C 86.628906 215.15625 86.671875 215.15625 86.722656 215.15625 C 86.765625 215.15625 86.816406 215.152344 86.871094 215.152344 C 86.976562 215.144531 87.089844 215.144531 87.214844 215.140625 C 87.339844 215.128906 87.472656 215.117188 87.617188 215.105469 C 87.757812 215.089844 87.910156 215.074219 88.066406 215.058594 C 88.21875 215.035156 88.386719 215.007812 88.550781 214.980469 C 88.71875 214.941406 88.898438 214.914062 89.078125 214.867188 C 89.257812 214.820312 89.445312 214.785156 89.628906 214.71875 C 89.722656 214.691406 89.816406 214.664062 89.910156 214.636719 C 90.003906 214.601562 90.101562 214.570312 90.199219 214.535156 C 90.25 214.519531 90.292969 214.503906 90.34375 214.488281 C 90.394531 214.464844 90.4375 214.449219 90.488281 214.433594 C 90.582031 214.394531 90.683594 214.359375 90.78125 214.316406 C 91.171875 214.148438 91.5625 213.957031 91.945312 213.738281 C 92.328125 213.519531 92.707031 213.269531 93.066406 213.007812 C 93.425781 212.738281 93.765625 212.449219 94.09375 212.144531 C 94.410156 211.839844 94.707031 211.519531 94.980469 211.199219 C 95.046875 211.121094 95.109375 211.035156 95.175781 210.957031 C 95.207031 210.917969 95.242188 210.875 95.269531 210.835938 C 95.296875 210.796875 95.328125 210.75 95.355469 210.710938 C 95.417969 210.628906 95.480469 210.550781 95.535156 210.46875 C 95.589844 210.386719 95.640625 210.304688 95.695312 210.226562 C 95.722656 210.1875 95.75 210.148438 95.777344 210.105469 C 95.804688 210.066406 95.828125 210.019531 95.851562 209.980469 C 95.902344 209.898438 95.945312 209.820312 95.996094 209.746094 C 96.042969 209.667969 96.082031 209.582031 96.128906 209.507812 C 96.171875 209.429688 96.214844 209.351562 96.253906 209.273438 C 96.328125 209.117188 96.40625 208.976562 96.472656 208.832031 C 96.53125 208.6875 96.597656 208.546875 96.65625 208.421875 C 96.703125 208.289062 96.753906 208.167969 96.800781 208.050781 C 96.84375 207.941406 96.871094 207.839844 96.910156 207.746094 C 96.925781 207.703125 96.941406 207.65625 96.960938 207.613281 C 96.976562 207.570312 96.988281 207.519531 97 207.480469 C 97.019531 207.398438 97.042969 207.324219 97.066406 207.265625 C 97.105469 207.148438 97.121094 207.085938 97.121094 207.085938 C 97.242188 206.699219 97.660156 206.484375 98.046875 206.605469 C 98.347656 206.683594 98.546875 206.945312 98.566406 207.230469 Z M 98.566406 207.230469 " fill-opacity="1" fill-rule="nonzero"/><path fill="#4f2020" d="M 70.15625 221.859375 C 70.15625 221.859375 70.148438 221.902344 70.125 221.992188 C 70.113281 222.035156 70.097656 222.089844 70.082031 222.152344 C 70.070312 222.1875 70.0625 222.21875 70.046875 222.257812 C 70.03125 222.296875 70.015625 222.339844 69.996094 222.386719 C 69.964844 222.472656 69.917969 222.578125 69.875 222.683594 C 69.824219 222.785156 69.777344 222.894531 69.714844 223.011719 C 69.652344 223.125 69.582031 223.242188 69.507812 223.371094 C 69.476562 223.4375 69.425781 223.492188 69.386719 223.558594 C 69.34375 223.625 69.296875 223.683594 69.253906 223.75 C 69.203125 223.816406 69.15625 223.878906 69.105469 223.945312 C 69.050781 224.011719 69 224.078125 68.945312 224.144531 C 68.886719 224.210938 68.828125 224.277344 68.765625 224.34375 C 68.734375 224.378906 68.707031 224.410156 68.671875 224.445312 C 68.636719 224.476562 68.605469 224.511719 68.570312 224.542969 C 68.503906 224.609375 68.4375 224.675781 68.367188 224.738281 C 68.292969 224.796875 68.222656 224.863281 68.144531 224.925781 C 68.105469 224.957031 68.074219 224.992188 68.035156 225.019531 C 67.996094 225.046875 67.957031 225.082031 67.917969 225.109375 C 67.839844 225.167969 67.757812 225.230469 67.671875 225.285156 C 67.335938 225.515625 66.96875 225.726562 66.582031 225.910156 C 66.191406 226.085938 65.78125 226.238281 65.359375 226.351562 C 64.941406 226.464844 64.511719 226.542969 64.085938 226.578125 C 63.660156 226.613281 63.238281 226.617188 62.832031 226.585938 C 62.734375 226.578125 62.632812 226.5625 62.53125 226.550781 C 62.484375 226.546875 62.433594 226.542969 62.382812 226.535156 C 62.332031 226.53125 62.285156 226.519531 62.238281 226.507812 C 62.144531 226.492188 62.042969 226.476562 61.957031 226.457031 C 61.863281 226.4375 61.773438 226.414062 61.679688 226.390625 C 61.632812 226.378906 61.589844 226.371094 61.546875 226.359375 C 61.5 226.347656 61.457031 226.332031 61.414062 226.320312 C 61.324219 226.292969 61.242188 226.265625 61.15625 226.242188 C 61.074219 226.214844 60.996094 226.179688 60.914062 226.152344 C 60.835938 226.121094 60.757812 226.09375 60.6875 226.058594 C 60.613281 226.027344 60.542969 225.992188 60.46875 225.960938 C 60.398438 225.925781 60.332031 225.898438 60.269531 225.859375 C 60.203125 225.828125 60.144531 225.789062 60.082031 225.753906 C 60.019531 225.722656 59.960938 225.6875 59.910156 225.65625 C 59.800781 225.582031 59.699219 225.515625 59.605469 225.457031 C 59.515625 225.390625 59.433594 225.328125 59.359375 225.269531 C 59.320312 225.242188 59.289062 225.214844 59.253906 225.183594 C 59.222656 225.15625 59.195312 225.128906 59.167969 225.109375 C 59.109375 225.058594 59.066406 225.019531 59.035156 224.984375 C 58.960938 224.917969 58.921875 224.882812 58.921875 224.882812 C 58.683594 224.648438 58.679688 224.273438 58.910156 224.035156 C 59.078125 223.867188 59.316406 223.8125 59.523438 223.878906 L 59.582031 223.894531 C 59.582031 223.894531 59.628906 223.90625 59.703125 223.933594 C 59.78125 223.957031 59.894531 224.007812 60.042969 224.046875 C 60.113281 224.066406 60.191406 224.089844 60.28125 224.117188 C 60.371094 224.140625 60.464844 224.167969 60.558594 224.1875 C 60.660156 224.210938 60.765625 224.234375 60.875 224.261719 C 60.984375 224.285156 61.101562 224.304688 61.222656 224.328125 C 61.347656 224.34375 61.472656 224.367188 61.605469 224.378906 C 61.738281 224.382812 61.871094 224.410156 62.011719 224.410156 C 62.289062 224.433594 62.582031 224.425781 62.886719 224.421875 C 63.191406 224.40625 63.496094 224.378906 63.8125 224.328125 C 64.125 224.277344 64.441406 224.207031 64.75 224.121094 C 65.0625 224.035156 65.359375 223.929688 65.65625 223.8125 C 65.945312 223.691406 66.226562 223.558594 66.492188 223.414062 C 66.558594 223.382812 66.621094 223.335938 66.6875 223.304688 C 66.71875 223.285156 66.753906 223.265625 66.78125 223.25 C 66.8125 223.226562 66.84375 223.210938 66.875 223.191406 C 66.9375 223.152344 66.996094 223.117188 67.058594 223.078125 C 67.117188 223.039062 67.175781 222.992188 67.230469 222.953125 C 67.347656 222.882812 67.453125 222.792969 67.558594 222.71875 C 67.664062 222.640625 67.757812 222.554688 67.855469 222.480469 C 67.945312 222.394531 68.039062 222.324219 68.121094 222.246094 C 68.207031 222.167969 68.285156 222.097656 68.355469 222.023438 C 68.429688 221.953125 68.496094 221.882812 68.554688 221.820312 C 68.617188 221.757812 68.667969 221.703125 68.714844 221.648438 C 68.738281 221.621094 68.765625 221.597656 68.789062 221.578125 C 68.808594 221.554688 68.832031 221.523438 68.855469 221.5 C 68.894531 221.449219 68.933594 221.40625 68.960938 221.371094 C 69.019531 221.304688 69.050781 221.265625 69.050781 221.265625 C 69.28125 220.996094 69.6875 220.960938 69.964844 221.195312 C 70.148438 221.378906 70.21875 221.632812 70.15625 221.859375 Z M 70.15625 221.859375 " fill-opacity="1" fill-rule="nonzero"/></svg>